<svg width="649" height="576" viewBox="0 0 649 576" fill="none" xmlns="http://www.w3.org/2000/svg">
<path d="M224.985 437.496L159.719 324.462L296.736 327.967L362.002 441.026L224.985 437.496Z" fill="#F8951D"/>
<path d="M235.29 421.749L170.024 308.716L307.042 312.221L372.335 425.254L235.29 421.749Z" fill="#F8951D"/>
<g opacity="0.9">
<path opacity="0.9" d="M299.043 324.462L248.644 237.174L354.416 239.906L404.815 327.168L299.043 324.462Z" fill="#663500"/>
<path opacity="0.9" d="M404.815 327.168L349.277 411.982L243.478 409.276L299.043 324.462L404.815 327.168Z" fill="#F8951D"/>
<path opacity="0.9" d="M248.645 237.174L193.079 321.988L243.478 409.276L299.016 324.462L248.645 237.174Z" fill="url(#paint0_linear_1484_777)"/>
</g>
<path style="mix-blend-mode:lighten" opacity="0.7" d="M243.478 409.276L193.079 321.988L298.879 324.694L349.278 411.982L243.478 409.276Z" fill="url(#paint1_linear_1484_777)"/>
<path d="M372.334 425.254L362.002 441.026L224.984 437.496L235.29 421.749L372.334 425.254Z" fill="url(#paint2_linear_1484_777)"/>
<path d="M170.024 308.716L159.719 324.462L224.985 437.496L235.29 421.749L170.024 308.716Z" fill="#F8951D"/>
<path style="mix-blend-mode:lighten" opacity="0.7" d="M170.024 308.716L159.719 324.462L224.985 437.496L235.29 421.749L170.024 308.716Z" fill="url(#paint3_linear_1484_777)"/>
<path d="M311.245 305.804L245.979 192.77L382.996 196.275L448.289 309.309L311.245 305.804Z" fill="#F8951D"/>
<path d="M321.58 290.057L256.314 176.998L393.332 180.503L458.598 293.562L321.58 290.057Z" fill="#F8951D"/>
<path style="mix-blend-mode:lighten" opacity="0.7" d="M321.58 290.057L256.314 176.998L393.332 180.503L458.598 293.562L321.58 290.057Z" fill="url(#paint4_linear_1484_777)"/>
<path d="M458.595 293.562L448.29 309.309L311.245 305.804L321.578 290.057L458.595 293.562Z" fill="url(#paint5_linear_1484_777)"/>
<path d="M256.311 176.998L245.979 192.77L311.245 305.804L321.577 290.057L256.311 176.998Z" fill="#F8951D"/>
<path style="mix-blend-mode:lighten" opacity="0.7" d="M256.311 176.998L245.979 192.77L311.245 305.804L321.577 290.057L256.311 176.998Z" fill="url(#paint6_linear_1484_777)"/>
<path opacity="0.3" d="M311.246 305.804L235.29 421.749L170.024 308.716L245.98 192.77L311.246 305.804Z" fill="#C87829"/>
<path opacity="0.3" d="M260.846 218.516L193.079 321.988L243.478 409.276L349.278 411.982L417.045 308.51L311.245 305.804L260.846 218.516Z" fill="#C87829"/>
<path opacity="0.3" d="M311.245 305.804L243.478 409.276L193.079 321.988L260.846 218.516L311.245 305.804Z" fill="#C87829"/>
<path opacity="0.5" d="M245.98 192.77L170.024 308.716L235.29 421.749L372.335 425.254L448.291 309.309L311.246 305.804L245.98 192.77Z" fill="#C87829"/>
<path style="mix-blend-mode:lighten" d="M258.705 178.39L394.101 181.843L393.332 180.503L256.314 176.998L321.58 290.057L323.202 290.083L258.705 178.39Z" fill="url(#paint7_linear_1484_777)"/>
<path opacity="0.5" d="M245.978 192.771L170.022 308.716L170.929 310.262L246.885 194.317L245.978 192.771Z" fill="#C87829"/>
<path opacity="0.5" d="M448.29 309.309L372.334 425.254L370.438 425.203L446.393 309.257L448.29 309.309Z" fill="#C87829"/>
<path opacity="0.5" d="M311.247 305.804L309.708 303.124L233.752 419.095L235.291 421.749L238.534 421.852L314.489 305.881L311.247 305.804Z" fill="#C87829"/>
<path d="M301.131 572.357L235.838 459.324L372.883 462.829L438.149 575.862L301.131 572.357Z" fill="#F8951D"/>
<path d="M311.436 556.611L246.17 443.578L383.187 447.083L448.453 560.116L311.436 556.611Z" fill="#F8951D"/>
<g opacity="0.9">
<path opacity="0.9" d="M375.165 459.324L324.766 372.036L430.565 374.742L480.964 462.03L375.165 459.324Z" fill="url(#paint8_linear_1484_777)"/>
<path opacity="0.9" d="M480.964 462.03L425.398 546.844L319.626 544.138L375.164 459.324L480.964 462.03Z" fill="url(#paint9_linear_1484_777)"/>
<path opacity="0.9" d="M324.766 372.036L269.228 456.85L319.627 544.138L375.165 459.324L324.766 372.036Z" fill="url(#paint10_linear_1484_777)"/>
</g>
<path style="mix-blend-mode:lighten" opacity="0.7" d="M319.627 544.138L269.228 456.85L375.027 459.556L425.399 546.844L319.627 544.138Z" fill="url(#paint11_linear_1484_777)"/>
<path d="M246.171 443.578L235.838 459.324L301.131 572.357L311.437 556.611L246.171 443.578Z" fill="#F8951D"/>
<path style="mix-blend-mode:lighten" opacity="0.7" d="M246.171 443.578L235.838 459.324L301.131 572.357L311.437 556.611L246.171 443.578Z" fill="url(#paint12_linear_1484_777)"/>
<path d="M387.394 440.665L322.128 327.606L459.145 331.137L524.411 444.17L387.394 440.665Z" fill="#F8951D"/>
<path d="M397.727 424.919L332.434 311.86L469.478 315.365L534.745 428.424L397.727 424.919Z" fill="#F8951D"/>
<path style="mix-blend-mode:lighten" opacity="0.7" d="M397.727 424.919L332.434 311.86L469.478 315.365L534.745 428.424L397.727 424.919Z" fill="url(#paint13_linear_1484_777)"/>
<path d="M332.433 311.86L322.128 327.606L387.394 440.665L397.727 424.919L332.433 311.86Z" fill="#F8951D"/>
<path style="mix-blend-mode:lighten" opacity="0.7" d="M332.433 311.86L322.128 327.606L387.394 440.665L397.727 424.919L332.433 311.86Z" fill="url(#paint14_linear_1484_777)"/>
<path opacity="0.3" d="M387.392 440.665L311.436 556.611L246.17 443.578L322.126 327.606L387.392 440.665Z" fill="#C87829"/>
<path opacity="0.3" d="M336.994 353.378L269.228 456.85L319.627 544.138L425.399 546.844L493.193 443.371L387.393 440.665L336.994 353.378Z" fill="#C87829"/>
<path opacity="0.3" d="M387.393 440.665L319.627 544.138L269.228 456.85L336.994 353.378L387.393 440.665Z" fill="#C87829"/>
<path opacity="0.5" d="M322.126 327.606L246.17 443.578L311.436 556.611L448.453 560.116L524.409 444.17L387.392 440.665L322.126 327.606Z" fill="#C87829"/>
<path style="mix-blend-mode:lighten" d="M334.824 313.252L470.248 316.705L469.478 315.365L332.434 311.86L397.727 424.919L399.348 424.945L334.824 313.252Z" fill="url(#paint15_linear_1484_777)"/>
<path opacity="0.5" d="M322.126 327.606L246.17 443.578L247.077 445.124L323.033 329.179L322.126 327.606Z" fill="#C87829"/>
<path opacity="0.5" d="M524.411 444.17L448.455 560.116L446.586 560.064L522.542 444.119L524.411 444.17Z" fill="#C87829"/>
<path opacity="0.5" d="M387.393 440.666L385.854 437.986L309.898 553.957L311.437 556.611L314.653 556.714L390.636 440.743L387.393 440.666Z" fill="#C87829"/>
<path d="M65.266 433.527L0 320.493L137.017 323.998L202.311 437.031L65.266 433.527Z" fill="#F8951D"/>
<path d="M75.598 417.78L10.332 304.747L147.349 308.252L212.615 421.285L75.598 417.78Z" fill="#F8951D"/>
<g opacity="0.9">
<path opacity="0.9" d="M139.328 320.493L88.9287 233.205L194.728 235.911L245.127 323.199L139.328 320.493Z" fill="url(#paint16_linear_1484_777)"/>
<path opacity="0.9" d="M245.128 323.199L189.562 408.013L83.7627 405.307L139.328 320.493L245.128 323.199Z" fill="url(#paint17_linear_1484_777)"/>
<path opacity="0.9" d="M88.9286 233.205L33.3906 318.019L83.7623 405.307L139.328 320.493L88.9286 233.205Z" fill="url(#paint18_linear_1484_777)"/>
</g>
<path style="mix-blend-mode:lighten" opacity="0.7" d="M83.7613 405.307L33.3896 318.019L139.162 320.725L189.561 408.013L83.7613 405.307Z" fill="url(#paint19_linear_1484_777)"/>
<path d="M10.3326 304.747L0 320.493L65.266 433.527L75.5987 417.78L10.3326 304.747Z" fill="#F8951D"/>
<path style="mix-blend-mode:lighten" opacity="0.7" d="M10.3326 304.747L0 320.493L65.266 433.527L75.5987 417.78L10.3326 304.747Z" fill="url(#paint20_linear_1484_777)"/>
<path d="M151.556 301.835L86.29 188.776L223.307 192.306L288.573 305.34L151.556 301.835Z" fill="#F8951D"/>
<path d="M161.889 286.088L96.5957 173.029L233.613 176.534L298.907 289.593L161.889 286.088Z" fill="#F8951D"/>
<path style="mix-blend-mode:lighten" opacity="0.7" d="M161.889 286.088L96.5957 173.029L233.613 176.534L298.907 289.593L161.889 286.088Z" fill="url(#paint21_linear_1484_777)"/>
<path d="M96.5952 173.029L86.29 188.776L151.556 301.835L161.889 286.088L96.5952 173.029Z" fill="#F8951D"/>
<path style="mix-blend-mode:lighten" opacity="0.7" d="M96.5952 173.029L86.29 188.776L151.556 301.835L161.889 286.088L96.5952 173.029Z" fill="url(#paint22_linear_1484_777)"/>
<path opacity="0.3" d="M151.554 301.835L75.598 417.78L10.332 304.747L86.2879 188.776L151.554 301.835Z" fill="#C87829"/>
<path opacity="0.3" d="M101.157 214.547L33.3906 318.019L83.7623 405.307L189.562 408.013L257.356 304.541L151.556 301.835L101.157 214.547Z" fill="#C87829"/>
<path opacity="0.3" d="M151.556 301.835L83.7623 405.307L33.3906 318.019L101.157 214.547L151.556 301.835Z" fill="#C87829"/>
<path opacity="0.5" d="M86.2879 188.776L10.332 304.747L75.598 417.78L212.615 421.285L288.571 305.34L151.554 301.835L86.2879 188.776Z" fill="#C87829"/>
<path style="mix-blend-mode:lighten" d="M98.9865 174.421L234.41 177.874L233.613 176.534L96.5957 173.029L161.889 286.088L163.483 286.114L98.9865 174.421Z" fill="url(#paint23_linear_1484_777)"/>
<path opacity="0.5" d="M86.2879 188.776L10.332 304.747L11.2114 306.293L87.1673 190.348L86.2879 188.776Z" fill="#C87829"/>
<path opacity="0.5" d="M288.574 305.34L212.618 421.286L210.749 421.234L286.705 305.288L288.574 305.34Z" fill="#C87829"/>
<path opacity="0.5" d="M151.556 301.835L150.018 299.155L74.0342 415.126L75.6006 417.78L78.8158 417.883L154.799 301.912L151.556 301.835Z" fill="#C87829"/>
<path d="M141.416 568.388L76.1504 455.355L213.168 458.86L278.434 571.893L141.416 568.388Z" fill="#F8951D"/>
<path d="M151.75 552.642L86.4561 439.608L223.501 443.113L288.767 556.147L151.75 552.642Z" fill="#F8951D"/>
<g opacity="0.9">
<path opacity="0.9" d="M215.474 455.355L165.075 368.067L270.875 370.773L321.274 458.061L215.474 455.355Z" fill="url(#paint24_linear_1484_777)"/>
<path opacity="0.9" d="M321.274 458.061L265.709 542.875L159.909 540.169L215.475 455.355L321.274 458.061Z" fill="url(#paint25_linear_1484_777)"/>
<path opacity="0.9" d="M165.076 368.067L109.511 452.881L159.91 540.169L215.475 455.355L165.076 368.067Z" fill="url(#paint26_linear_1484_777)"/>
</g>
<path style="mix-blend-mode:lighten" opacity="0.7" d="M159.91 540.169L109.511 452.881L215.31 455.587L265.71 542.875L159.91 540.169Z" fill="#663500"/>
<path d="M86.4556 439.608L76.1504 455.355L141.416 568.388L151.749 552.642L86.4556 439.608Z" fill="#F8951D"/>
<path style="mix-blend-mode:lighten" opacity="0.7" d="M86.4556 439.608L76.1504 455.355L141.416 568.388L151.749 552.642L86.4556 439.608Z" fill="url(#paint27_linear_1484_777)"/>
<path d="M227.704 436.696L162.41 323.637L299.455 327.168L364.721 440.201L227.704 436.696Z" fill="#F8951D"/>
<path d="M238.012 420.924L172.746 307.891L309.764 311.396L375.03 424.455L238.012 420.924Z" fill="#F8951D"/>
<path style="mix-blend-mode:lighten" opacity="0.7" d="M238.012 420.924L172.746 307.891L309.764 311.396L375.03 424.455L238.012 420.924Z" fill="#FF990F"/>
<path d="M172.743 307.891L162.41 323.637L227.704 436.696L238.009 420.924L172.743 307.891Z" fill="#F8951D"/>
<path style="mix-blend-mode:lighten" opacity="0.7" d="M172.743 307.891L162.41 323.637L227.704 436.696L238.009 420.924L172.743 307.891Z" fill="url(#paint28_linear_1484_777)"/>
<path opacity="0.3" d="M227.705 436.696L151.75 552.642L86.4561 439.609L162.412 323.637L227.705 436.696Z" fill="#C87829"/>
<path opacity="0.3" d="M177.305 349.409L109.511 452.881L159.91 540.169L265.71 542.875L333.476 439.402L227.704 436.696L177.305 349.409Z" fill="#C87829"/>
<path opacity="0.3" d="M227.704 436.696L159.91 540.169L109.511 452.881L177.305 349.409L227.704 436.696Z" fill="#C87829"/>
<path opacity="0.5" d="M162.412 323.637L86.4561 439.609L151.75 552.642L288.767 556.147L364.723 440.201L227.705 436.696L162.412 323.637Z" fill="#C87829"/>
<path style="mix-blend-mode:lighten" d="M175.137 309.257L310.533 312.736L309.764 311.396L172.746 307.891L238.012 420.924L239.633 420.976L175.137 309.257Z" fill="url(#paint29_linear_1484_777)"/>
<path opacity="0.5" d="M162.411 323.637L86.4551 439.609L87.3619 441.155L163.318 325.209L162.411 323.637Z" fill="#C87829"/>
<path opacity="0.5" d="M364.721 440.201L288.765 556.147L286.869 556.095L362.825 440.15L364.721 440.201Z" fill="#C87829"/>
<path opacity="0.5" d="M227.706 436.697L226.167 434.016L150.184 549.988L151.75 552.642L154.965 552.745L230.921 436.774L227.706 436.697Z" fill="#C87829"/>
<path d="M338.314 264.467L273.048 151.433L410.065 154.938L475.359 267.997L338.314 264.467Z" fill="#F8951D"/>
<path d="M348.646 248.72L283.38 135.687L420.397 139.192L485.663 252.225L348.646 248.72Z" fill="#F8951D"/>
<g opacity="0.9">
<path opacity="0.9" d="M412.375 151.433L361.976 64.1454L467.775 66.8771L518.174 154.139L412.375 151.433Z" fill="url(#paint30_linear_1484_777)"/>
<path opacity="0.9" d="M518.173 154.139L462.608 238.953L356.836 236.247L412.374 151.433L518.173 154.139Z" fill="url(#paint31_linear_1484_777)"/>
<path opacity="0.9" d="M361.975 64.1713L306.438 148.959L356.809 236.247L412.375 151.433L361.975 64.1713Z" fill="url(#paint32_linear_1484_777)"/>
</g>
<path style="mix-blend-mode:lighten" opacity="0.7" d="M356.837 236.247L306.438 148.959L412.21 151.665L462.609 238.953L356.837 236.247Z" fill="url(#paint33_linear_1484_777)"/>
<path d="M485.664 252.225L475.358 267.997L338.313 264.467L348.646 248.72L485.664 252.225Z" fill="url(#paint34_linear_1484_777)"/>
<path d="M283.38 135.687L273.048 151.433L338.314 264.467L348.646 248.72L283.38 135.687Z" fill="#F8951D"/>
<path style="mix-blend-mode:lighten" opacity="0.7" d="M283.38 135.687L273.048 151.433L338.314 264.467L348.646 248.72L283.38 135.687Z" fill="url(#paint35_linear_1484_777)"/>
<path d="M424.604 132.775L359.338 19.7413L496.355 23.2462L561.621 136.28L424.604 132.775Z" fill="#F8951D"/>
<path d="M434.937 117.028L369.644 3.96912L506.661 7.47403L571.954 120.533L434.937 117.028Z" fill="#F8951D"/>
<path style="mix-blend-mode:lighten" opacity="0.7" d="M434.937 117.028L369.644 3.96912L506.661 7.47403L571.954 120.533L434.937 117.028Z" fill="url(#paint36_linear_1484_777)"/>
<path d="M369.643 3.96912L359.338 19.7412L424.604 132.775L434.937 117.028L369.643 3.96912Z" fill="#F8951D"/>
<path style="mix-blend-mode:lighten" opacity="0.7" d="M369.643 3.96912L359.338 19.7412L424.604 132.775L434.937 117.028L369.643 3.96912Z" fill="url(#paint37_linear_1484_777)"/>
<path opacity="0.3" d="M424.602 132.775L348.646 248.72L283.38 135.687L359.336 19.7413L424.602 132.775Z" fill="#C87829"/>
<path opacity="0.3" d="M374.204 45.4868L306.438 148.959L356.837 236.247L462.609 238.953L530.403 135.481L424.603 132.775L374.204 45.4868Z" fill="#C87829"/>
<path opacity="0.3" d="M424.603 132.775L356.837 236.247L306.438 148.959L374.204 45.4868L424.603 132.775Z" fill="#C87829"/>
<path opacity="0.5" d="M359.336 19.7413L283.38 135.687L348.646 248.72L485.663 252.225L561.619 136.28L424.602 132.775L359.336 19.7413Z" fill="#C87829"/>
<path style="mix-blend-mode:lighten" d="M372.034 5.36077L507.458 8.81413L506.661 7.47403L369.644 3.96912L434.937 117.028L436.531 117.054L372.034 5.36077Z" fill="url(#paint38_linear_1484_777)"/>
<path opacity="0.5" d="M359.336 19.7413L283.38 135.687L284.259 137.233L360.215 21.2876L359.336 19.7413Z" fill="#C87829"/>
<path opacity="0.5" d="M561.62 136.279L485.665 252.225L483.796 252.173L559.752 136.228L561.62 136.279Z" fill="#C87829"/>
<path opacity="0.5" d="M424.602 132.774L423.063 130.094L347.107 246.066L348.646 248.72L351.862 248.823L427.845 132.852L424.602 132.774Z" fill="#C87829"/>
<path d="M414.462 399.328L349.196 286.295L486.214 289.8L551.48 402.859L414.462 399.328Z" fill="#F8951D"/>
<path d="M424.795 383.582L359.502 270.548L496.547 274.053L561.813 387.087L424.795 383.582Z" fill="#F8951D"/>
<g opacity="0.9">
<path opacity="0.9" d="M488.52 286.295L438.121 199.007L543.921 201.713L594.32 289.001L488.52 286.295Z" fill="url(#paint39_linear_1484_777)"/>
<path opacity="0.9" d="M594.32 289.001L538.755 373.815L432.955 371.109L488.521 286.295L594.32 289.001Z" fill="url(#paint40_linear_1484_777)"/>
<path opacity="0.9" d="M438.122 199.007L382.557 283.821L432.956 371.109L488.521 286.295L438.122 199.007Z" fill="url(#paint41_linear_1484_777)"/>
</g>
<path style="mix-blend-mode:lighten" opacity="0.7" d="M432.956 371.109L382.557 283.821L488.356 286.527L538.755 373.815L432.956 371.109Z" fill="url(#paint42_linear_1484_777)"/>
<path d="M359.501 270.548L349.196 286.295L414.462 399.328L424.795 383.582L359.501 270.548Z" fill="#F8951D"/>
<path style="mix-blend-mode:lighten" opacity="0.7" d="M359.501 270.548L349.196 286.295L414.462 399.328L424.795 383.582L359.501 270.548Z" fill="url(#paint43_linear_1484_777)"/>
<path d="M500.751 267.636L435.457 154.577L572.502 158.108L637.768 271.141L500.751 267.636Z" fill="#F8951D"/>
<path d="M511.058 251.89L445.792 138.831L582.809 142.336L648.103 255.395L511.058 251.89Z" fill="#F8951D"/>
<path style="mix-blend-mode:lighten" opacity="0.7" d="M511.058 251.89L445.792 138.831L582.809 142.336L648.103 255.395L511.058 251.89Z" fill="url(#paint44_linear_1484_777)"/>
<path d="M445.79 138.831L435.457 154.577L500.751 267.636L511.056 251.89L445.79 138.831Z" fill="#F8951D"/>
<path style="mix-blend-mode:lighten" opacity="0.7" d="M445.79 138.831L435.457 154.577L500.751 267.636L511.056 251.89L445.79 138.831Z" fill="url(#paint45_linear_1484_777)"/>
<path opacity="0.3" d="M500.751 267.636L424.795 383.582L359.502 270.548L435.458 154.577L500.751 267.636Z" fill="#C87829"/>
<path opacity="0.3" d="M450.351 180.349L382.557 283.821L432.956 371.109L538.755 373.815L606.522 270.342L500.75 267.636L450.351 180.349Z" fill="#C87829"/>
<path opacity="0.3" d="M500.75 267.636L432.956 371.109L382.557 283.821L450.351 180.349L500.75 267.636Z" fill="#C87829"/>
<path opacity="0.5" d="M435.458 154.577L359.502 270.548L424.795 383.582L561.813 387.087L637.769 271.141L500.751 267.636L435.458 154.577Z" fill="#C87829"/>
<path style="mix-blend-mode:lighten" d="M448.183 140.222L583.579 143.676L582.809 142.336L445.792 138.831L511.058 251.89L512.679 251.916L448.183 140.222Z" fill="url(#paint46_linear_1484_777)"/>
<path opacity="0.5" d="M435.457 154.577L359.501 270.548L360.408 272.095L436.364 156.149L435.457 154.577Z" fill="#C87829"/>
<path opacity="0.5" d="M637.767 271.141L561.811 387.087L559.915 387.035L635.871 271.09L637.767 271.141Z" fill="#C87829"/>
<path opacity="0.5" d="M500.752 267.636L499.213 264.956L423.229 380.927L424.796 383.582L428.011 383.685L503.967 267.713L500.752 267.636Z" fill="#C87829"/>
<path d="M178.623 260.497L113.357 147.464L250.375 150.969L315.641 264.028L178.623 260.497Z" fill="#F8951D"/>
<path d="M188.957 244.751L123.663 131.718L260.68 135.222L325.974 248.256L188.957 244.751Z" fill="#F8951D"/>
<g opacity="0.9">
<path opacity="0.9" d="M252.682 147.464L202.283 60.1761L308.083 62.8821L358.454 150.17L252.682 147.464Z" fill="url(#paint47_linear_1484_777)"/>
<path opacity="0.9" d="M358.455 150.17L302.917 234.984L197.117 232.278L252.683 147.464L358.455 150.17Z" fill="url(#paint48_linear_1484_777)"/>
<path opacity="0.9" d="M202.284 60.1761L146.719 144.99L197.118 232.278L252.683 147.464L202.284 60.1761Z" fill="url(#paint49_linear_1484_777)"/>
</g>
<path style="mix-blend-mode:lighten" opacity="0.7" d="M197.117 232.278L146.718 144.99L252.517 147.696L302.917 234.984L197.117 232.278Z" fill="url(#paint50_linear_1484_777)"/>
<path d="M123.663 131.718L113.357 147.464L178.623 260.497L188.956 244.751L123.663 131.718Z" fill="#F8951D"/>
<path style="mix-blend-mode:lighten" opacity="0.7" d="M123.663 131.718L113.357 147.464L178.623 260.497L188.956 244.751L123.663 131.718Z" fill="url(#paint51_linear_1484_777)"/>
<path d="M264.911 128.805L199.617 15.772L336.662 19.2769L401.928 132.31L264.911 128.805Z" fill="#F8951D"/>
<path d="M275.219 113.059L209.953 0L346.971 3.50491L412.237 116.564L275.219 113.059Z" fill="#F8951D"/>
<path style="mix-blend-mode:lighten" opacity="0.7" d="M275.219 113.059L209.953 0L346.971 3.50491L412.237 116.564L275.219 113.059Z" fill="#C87829"/>
<path d="M209.95 0L199.617 15.7721L264.911 128.805L275.216 113.059L209.95 0Z" fill="#F8951D"/>
<path style="mix-blend-mode:lighten" opacity="0.7" d="M209.95 0L199.617 15.7721L264.911 128.805L275.216 113.059L209.95 0Z" fill="#663500"/>
<path opacity="0.3" d="M264.913 128.805L188.957 244.751L123.663 131.718L199.619 15.772L264.913 128.805Z" fill="#C87829"/>
<path opacity="0.3" d="M214.513 41.5177L146.719 144.99L197.118 232.278L302.917 234.984L370.684 131.511L264.912 128.805L214.513 41.5177Z" fill="#C87829"/>
<path opacity="0.3" d="M264.912 128.805L197.118 232.278L146.719 144.99L214.513 41.5177L264.912 128.805Z" fill="#C87829"/>
<path opacity="0.5" d="M199.619 15.772L123.663 131.718L188.957 244.751L325.974 248.256L401.93 132.31L264.913 128.805L199.619 15.772Z" fill="#C87829"/>
<path style="mix-blend-mode:lighten" d="M212.344 1.39166L347.74 4.84504L346.971 3.50491L209.953 0L275.219 113.059L276.84 113.085L212.344 1.39166Z" fill="#7B4D15"/>
<path opacity="0.5" d="M199.619 15.7722L123.663 131.718L124.57 133.264L200.526 17.3185L199.619 15.7722Z" fill="#C87829"/>
<path opacity="0.5" d="M401.928 132.31L325.972 248.256L324.076 248.204L400.032 132.259L401.928 132.31Z" fill="#C87829"/>
<path opacity="0.5" d="M264.913 128.806L263.374 126.125L187.391 242.097L188.957 244.751L192.172 244.854L268.128 128.883L264.913 128.806Z" fill="#C87829"/>
<path d="M254.773 395.359L189.479 282.326L326.524 285.831L391.79 398.864L254.773 395.359Z" fill="#F8951D"/>
<path d="M265.078 379.613L199.812 266.579L336.829 270.084L402.122 383.118L265.078 379.613Z" fill="#F8951D"/>
<g opacity="0.9">
<path opacity="0.9" d="M328.805 282.325L278.434 195.038L384.206 197.744L434.605 285.031L328.805 282.325Z" fill="#764710"/>
<path opacity="0.9" d="M434.605 285.032L379.067 369.845L273.268 367.139L328.806 282.326L434.605 285.032Z" fill="#663500"/>
<path opacity="0.9" d="M278.435 195.038L222.869 279.851L273.268 367.139L328.806 282.325L278.435 195.038Z" fill="#C87829"/>
</g>
<path style="mix-blend-mode:lighten" opacity="0.7" d="M273.268 367.139L222.869 279.852L328.669 282.558L379.068 369.845L273.268 367.139Z" fill="#C87829"/>
<path d="M199.812 266.579L189.479 282.326L254.773 395.359L265.078 379.613L199.812 266.579Z" fill="#F8951D"/>
<path style="mix-blend-mode:lighten" opacity="0.7" d="M199.812 266.579L189.479 282.326L254.773 395.359L265.078 379.613L199.812 266.579Z" fill="#F8951D"/>
<path d="M341.036 263.667L275.77 150.608L412.787 154.139L478.08 267.172L341.036 263.667Z" fill="#F8951D"/>
<path d="M351.368 247.895L286.102 134.862L423.119 138.367L488.385 251.426L351.368 247.895Z" fill="#F8951D"/>
<path style="mix-blend-mode:lighten" opacity="0.7" d="M351.368 247.895L286.102 134.862L423.119 138.367L488.385 251.426L351.368 247.895Z" fill="url(#paint52_linear_1484_777)"/>
<path d="M286.102 134.862L275.77 150.608L341.036 263.667L351.368 247.895L286.102 134.862Z" fill="#F8951D"/>
<path style="mix-blend-mode:lighten" opacity="0.7" d="M286.102 134.862L275.77 150.608L341.036 263.667L351.368 247.895L286.102 134.862Z" fill="#C87829"/>
<path opacity="0.3" d="M341.033 263.667L265.078 379.613L199.812 266.579L275.767 150.608L341.033 263.667Z" fill="#C87829"/>
<path opacity="0.3" d="M290.636 176.38L222.869 279.852L273.268 367.14L379.068 369.845L446.835 266.373L341.035 263.667L290.636 176.38Z" fill="#C87829"/>
<path opacity="0.3" d="M341.035 263.667L273.268 367.14L222.869 279.852L290.636 176.38L341.035 263.667Z" fill="#C87829"/>
<path opacity="0.5" d="M275.767 150.608L199.812 266.579L265.078 379.613L402.122 383.118L478.078 267.172L341.033 263.667L275.767 150.608Z" fill="#C87829"/>
<path style="mix-blend-mode:lighten" d="M288.492 136.253L423.888 139.707L423.119 138.367L286.102 134.862L351.368 247.895L352.989 247.947L288.492 136.253Z" fill="#C87829"/>
<path opacity="0.5" d="M275.767 150.608L199.812 266.579L200.718 268.126L276.674 152.18L275.767 150.608Z" fill="#C87829"/>
<path opacity="0.5" d="M478.08 267.172L402.124 383.118L400.228 383.066L476.183 267.12L478.08 267.172Z" fill="#C87829"/>
<path opacity="0.5" d="M341.034 263.667L339.495 260.987L263.539 376.958L265.078 379.613L268.321 379.716L344.277 263.744L341.034 263.667Z" fill="#C87829"/>
<defs>
<linearGradient id="paint0_linear_1484_777" x1="309.397" y1="424.525" x2="211.863" y2="247.052" gradientUnits="userSpaceOnUse">
<stop stop-color="#180D5B"/>
<stop offset="0.09" stop-color="#191560"/>
<stop offset="0.25" stop-color="#1E2C6E"/>
<stop offset="0.44" stop-color="#255285"/>
<stop offset="0.66" stop-color="#2F87A5"/>
<stop offset="0.9" stop-color="#3CC9CD"/>
<stop offset="1" stop-color="#42E8E0"/>
</linearGradient>
<linearGradient id="paint1_linear_1484_777" x1="360.016" y1="513.014" x2="235.049" y2="279.381" gradientUnits="userSpaceOnUse">
<stop stop-color="#180D5B"/>
<stop offset="0.09" stop-color="#191560"/>
<stop offset="0.25" stop-color="#1E2C6E"/>
<stop offset="0.44" stop-color="#255285"/>
<stop offset="0.66" stop-color="#2F87A5"/>
<stop offset="0.9" stop-color="#3CC9CD"/>
<stop offset="1" stop-color="#42E8E0"/>
</linearGradient>
<linearGradient id="paint2_linear_1484_777" x1="214.496" y1="382.883" x2="353.881" y2="474.176" gradientUnits="userSpaceOnUse">
<stop stop-color="#2B237C"/>
<stop offset="1" stop-color="#180D5B"/>
</linearGradient>
<linearGradient id="paint3_linear_1484_777" x1="237.347" y1="440.959" x2="159.795" y2="290.685" gradientUnits="userSpaceOnUse">
<stop stop-color="#180D5B"/>
<stop offset="0.1" stop-color="#191560"/>
<stop offset="0.25" stop-color="#1D2C6E"/>
<stop offset="0.28" stop-color="#1F3372"/>
<stop offset="0.38" stop-color="#22447C"/>
<stop offset="0.57" stop-color="#2A7097"/>
<stop offset="0.83" stop-color="#38B7C2"/>
<stop offset="1" stop-color="#42E8E0"/>
</linearGradient>
<linearGradient id="paint4_linear_1484_777" x1="398.028" y1="315.24" x2="306.308" y2="109.567" gradientUnits="userSpaceOnUse">
<stop stop-color="#180D5B"/>
<stop offset="0.09" stop-color="#191560"/>
<stop offset="0.25" stop-color="#1E2C6E"/>
<stop offset="0.44" stop-color="#255285"/>
<stop offset="0.66" stop-color="#2F87A5"/>
<stop offset="0.9" stop-color="#3CC9CD"/>
<stop offset="1" stop-color="#42E8E0"/>
</linearGradient>
<linearGradient id="paint5_linear_1484_777" x1="300.751" y1="251.191" x2="440.135" y2="342.484" gradientUnits="userSpaceOnUse">
<stop stop-color="#2B237C"/>
<stop offset="1" stop-color="#180D5B"/>
</linearGradient>
<linearGradient id="paint6_linear_1484_777" x1="312.791" y1="290.368" x2="242.657" y2="155.593" gradientUnits="userSpaceOnUse">
<stop stop-color="#180D5B"/>
<stop offset="0.1" stop-color="#191560"/>
<stop offset="0.25" stop-color="#1D2C6E"/>
<stop offset="0.28" stop-color="#1F3372"/>
<stop offset="0.38" stop-color="#22447C"/>
<stop offset="0.57" stop-color="#2A7097"/>
<stop offset="0.83" stop-color="#38B7C2"/>
<stop offset="1" stop-color="#42E8E0"/>
</linearGradient>
<linearGradient id="paint7_linear_1484_777" x1="386.522" y1="261.854" x2="276.41" y2="147.311" gradientUnits="userSpaceOnUse">
<stop stop-color="#180D5B"/>
<stop offset="0.09" stop-color="#191560"/>
<stop offset="0.25" stop-color="#1E2C6E"/>
<stop offset="0.44" stop-color="#255285"/>
<stop offset="0.66" stop-color="#2F87A5"/>
<stop offset="0.9" stop-color="#3CC9CD"/>
<stop offset="1" stop-color="#42E8E0"/>
</linearGradient>
<linearGradient id="paint8_linear_1484_777" x1="576.757" y1="570.056" x2="337.912" y2="331.052" gradientUnits="userSpaceOnUse">
<stop stop-color="#180D5B"/>
<stop offset="0.09" stop-color="#191560"/>
<stop offset="0.25" stop-color="#1E2C6E"/>
<stop offset="0.44" stop-color="#255285"/>
<stop offset="0.66" stop-color="#2F87A5"/>
<stop offset="0.9" stop-color="#3CC9CD"/>
<stop offset="1" stop-color="#42E8E0"/>
</linearGradient>
<linearGradient id="paint9_linear_1484_777" x1="443.236" y1="587.688" x2="336.393" y2="348.137" gradientUnits="userSpaceOnUse">
<stop stop-color="#180D5B"/>
<stop offset="0.09" stop-color="#191560"/>
<stop offset="0.25" stop-color="#1E2C6E"/>
<stop offset="0.44" stop-color="#255285"/>
<stop offset="0.66" stop-color="#2F87A5"/>
<stop offset="0.9" stop-color="#3CC9CD"/>
<stop offset="1" stop-color="#42E8E0"/>
</linearGradient>
<linearGradient id="paint10_linear_1484_777" x1="385.517" y1="559.38" x2="288.004" y2="381.922" gradientUnits="userSpaceOnUse">
<stop stop-color="#180D5B"/>
<stop offset="0.09" stop-color="#191560"/>
<stop offset="0.25" stop-color="#1E2C6E"/>
<stop offset="0.44" stop-color="#255285"/>
<stop offset="0.66" stop-color="#2F87A5"/>
<stop offset="0.9" stop-color="#3CC9CD"/>
<stop offset="1" stop-color="#42E8E0"/>
</linearGradient>
<linearGradient id="paint11_linear_1484_777" x1="436.15" y1="647.846" x2="311.19" y2="414.249" gradientUnits="userSpaceOnUse">
<stop stop-color="#180D5B"/>
<stop offset="0.09" stop-color="#191560"/>
<stop offset="0.25" stop-color="#1E2C6E"/>
<stop offset="0.44" stop-color="#255285"/>
<stop offset="0.66" stop-color="#2F87A5"/>
<stop offset="0.9" stop-color="#3CC9CD"/>
<stop offset="1" stop-color="#42E8E0"/>
</linearGradient>
<linearGradient id="paint12_linear_1484_777" x1="313.488" y1="575.827" x2="235.928" y2="425.518" gradientUnits="userSpaceOnUse">
<stop stop-color="#180D5B"/>
<stop offset="0.1" stop-color="#191560"/>
<stop offset="0.25" stop-color="#1D2C6E"/>
<stop offset="0.28" stop-color="#1F3372"/>
<stop offset="0.38" stop-color="#22447C"/>
<stop offset="0.57" stop-color="#2A7097"/>
<stop offset="0.83" stop-color="#38B7C2"/>
<stop offset="1" stop-color="#42E8E0"/>
</linearGradient>
<linearGradient id="paint13_linear_1484_777" x1="474.184" y1="450.086" x2="382.45" y2="244.434" gradientUnits="userSpaceOnUse">
<stop stop-color="#180D5B"/>
<stop offset="0.09" stop-color="#191560"/>
<stop offset="0.25" stop-color="#1E2C6E"/>
<stop offset="0.44" stop-color="#255285"/>
<stop offset="0.66" stop-color="#2F87A5"/>
<stop offset="0.9" stop-color="#3CC9CD"/>
<stop offset="1" stop-color="#42E8E0"/>
</linearGradient>
<linearGradient id="paint14_linear_1484_777" x1="388.935" y1="425.236" x2="318.801" y2="290.461" gradientUnits="userSpaceOnUse">
<stop stop-color="#180D5B"/>
<stop offset="0.1" stop-color="#191560"/>
<stop offset="0.25" stop-color="#1D2C6E"/>
<stop offset="0.28" stop-color="#1F3372"/>
<stop offset="0.38" stop-color="#22447C"/>
<stop offset="0.57" stop-color="#2A7097"/>
<stop offset="0.83" stop-color="#38B7C2"/>
<stop offset="1" stop-color="#42E8E0"/>
</linearGradient>
<linearGradient id="paint15_linear_1484_777" x1="462.663" y1="396.722" x2="352.551" y2="282.179" gradientUnits="userSpaceOnUse">
<stop stop-color="#180D5B"/>
<stop offset="0.09" stop-color="#191560"/>
<stop offset="0.25" stop-color="#1E2C6E"/>
<stop offset="0.44" stop-color="#255285"/>
<stop offset="0.66" stop-color="#2F87A5"/>
<stop offset="0.9" stop-color="#3CC9CD"/>
<stop offset="1" stop-color="#42E8E0"/>
</linearGradient>
<linearGradient id="paint16_linear_1484_777" x1="340.917" y1="431.238" x2="102.066" y2="192.198" gradientUnits="userSpaceOnUse">
<stop stop-color="#180D5B"/>
<stop offset="0.09" stop-color="#191560"/>
<stop offset="0.25" stop-color="#1E2C6E"/>
<stop offset="0.44" stop-color="#255285"/>
<stop offset="0.66" stop-color="#2F87A5"/>
<stop offset="0.9" stop-color="#3CC9CD"/>
<stop offset="1" stop-color="#42E8E0"/>
</linearGradient>
<linearGradient id="paint17_linear_1484_777" x1="207.397" y1="448.87" x2="100.554" y2="209.319" gradientUnits="userSpaceOnUse">
<stop stop-color="#180D5B"/>
<stop offset="0.09" stop-color="#191560"/>
<stop offset="0.25" stop-color="#1E2C6E"/>
<stop offset="0.44" stop-color="#255285"/>
<stop offset="0.66" stop-color="#2F87A5"/>
<stop offset="0.9" stop-color="#3CC9CD"/>
<stop offset="1" stop-color="#42E8E0"/>
</linearGradient>
<linearGradient id="paint18_linear_1484_777" x1="149.677" y1="420.562" x2="52.1568" y2="243.068" gradientUnits="userSpaceOnUse">
<stop stop-color="#180D5B"/>
<stop offset="0.09" stop-color="#191560"/>
<stop offset="0.25" stop-color="#1E2C6E"/>
<stop offset="0.44" stop-color="#255285"/>
<stop offset="0.66" stop-color="#2F87A5"/>
<stop offset="0.9" stop-color="#3CC9CD"/>
<stop offset="1" stop-color="#42E8E0"/>
</linearGradient>
<linearGradient id="paint19_linear_1484_777" x1="200.309" y1="509.028" x2="75.3415" y2="275.396" gradientUnits="userSpaceOnUse">
<stop stop-color="#180D5B"/>
<stop offset="0.09" stop-color="#191560"/>
<stop offset="0.25" stop-color="#1E2C6E"/>
<stop offset="0.44" stop-color="#255285"/>
<stop offset="0.66" stop-color="#2F87A5"/>
<stop offset="0.9" stop-color="#3CC9CD"/>
<stop offset="1" stop-color="#42E8E0"/>
</linearGradient>
<linearGradient id="paint20_linear_1484_777" x1="77.6614" y1="436.987" x2="0.0878533" y2="286.698" gradientUnits="userSpaceOnUse">
<stop stop-color="#180D5B"/>
<stop offset="0.1" stop-color="#191560"/>
<stop offset="0.25" stop-color="#1D2C6E"/>
<stop offset="0.28" stop-color="#1F3372"/>
<stop offset="0.38" stop-color="#22447C"/>
<stop offset="0.57" stop-color="#2A7097"/>
<stop offset="0.83" stop-color="#38B7C2"/>
<stop offset="1" stop-color="#42E8E0"/>
</linearGradient>
<linearGradient id="paint21_linear_1484_777" x1="238.343" y1="311.268" x2="146.609" y2="105.616" gradientUnits="userSpaceOnUse">
<stop stop-color="#180D5B"/>
<stop offset="0.09" stop-color="#191560"/>
<stop offset="0.25" stop-color="#1E2C6E"/>
<stop offset="0.44" stop-color="#255285"/>
<stop offset="0.66" stop-color="#2F87A5"/>
<stop offset="0.9" stop-color="#3CC9CD"/>
<stop offset="1" stop-color="#42E8E0"/>
</linearGradient>
<linearGradient id="paint22_linear_1484_777" x1="153.07" y1="286.405" x2="82.9581" y2="151.644" gradientUnits="userSpaceOnUse">
<stop stop-color="#180D5B"/>
<stop offset="0.1" stop-color="#191560"/>
<stop offset="0.25" stop-color="#1D2C6E"/>
<stop offset="0.28" stop-color="#1F3372"/>
<stop offset="0.38" stop-color="#22447C"/>
<stop offset="0.57" stop-color="#2A7097"/>
<stop offset="0.83" stop-color="#38B7C2"/>
<stop offset="1" stop-color="#42E8E0"/>
</linearGradient>
<linearGradient id="paint23_linear_1484_777" x1="226.837" y1="257.882" x2="116.709" y2="143.361" gradientUnits="userSpaceOnUse">
<stop stop-color="#180D5B"/>
<stop offset="0.09" stop-color="#191560"/>
<stop offset="0.25" stop-color="#1E2C6E"/>
<stop offset="0.44" stop-color="#255285"/>
<stop offset="0.66" stop-color="#2F87A5"/>
<stop offset="0.9" stop-color="#3CC9CD"/>
<stop offset="1" stop-color="#42E8E0"/>
</linearGradient>
<linearGradient id="paint24_linear_1484_777" x1="417.072" y1="566.084" x2="178.205" y2="327.065" gradientUnits="userSpaceOnUse">
<stop stop-color="#180D5B"/>
<stop offset="0.09" stop-color="#191560"/>
<stop offset="0.25" stop-color="#1E2C6E"/>
<stop offset="0.44" stop-color="#255285"/>
<stop offset="0.66" stop-color="#2F87A5"/>
<stop offset="0.9" stop-color="#3CC9CD"/>
<stop offset="1" stop-color="#42E8E0"/>
</linearGradient>
<linearGradient id="paint25_linear_1484_777" x1="283.528" y1="583.703" x2="176.686" y2="344.152" gradientUnits="userSpaceOnUse">
<stop stop-color="#180D5B"/>
<stop offset="0.09" stop-color="#191560"/>
<stop offset="0.25" stop-color="#1E2C6E"/>
<stop offset="0.44" stop-color="#255285"/>
<stop offset="0.66" stop-color="#2F87A5"/>
<stop offset="0.9" stop-color="#3CC9CD"/>
<stop offset="1" stop-color="#42E8E0"/>
</linearGradient>
<linearGradient id="paint26_linear_1484_777" x1="225.833" y1="555.408" x2="128.299" y2="377.935" gradientUnits="userSpaceOnUse">
<stop stop-color="#180D5B"/>
<stop offset="0.09" stop-color="#191560"/>
<stop offset="0.25" stop-color="#1E2C6E"/>
<stop offset="0.44" stop-color="#255285"/>
<stop offset="0.66" stop-color="#2F87A5"/>
<stop offset="0.9" stop-color="#3CC9CD"/>
<stop offset="1" stop-color="#42E8E0"/>
</linearGradient>
<linearGradient id="paint27_linear_1484_777" x1="153.783" y1="571.842" x2="76.2308" y2="421.568" gradientUnits="userSpaceOnUse">
<stop stop-color="#180D5B"/>
<stop offset="0.1" stop-color="#191560"/>
<stop offset="0.25" stop-color="#1D2C6E"/>
<stop offset="0.28" stop-color="#1F3372"/>
<stop offset="0.38" stop-color="#22447C"/>
<stop offset="0.57" stop-color="#2A7097"/>
<stop offset="0.83" stop-color="#38B7C2"/>
<stop offset="1" stop-color="#42E8E0"/>
</linearGradient>
<linearGradient id="paint28_linear_1484_777" x1="229.227" y1="421.25" x2="159.114" y2="286.49" gradientUnits="userSpaceOnUse">
<stop stop-color="#180D5B"/>
<stop offset="0.1" stop-color="#191560"/>
<stop offset="0.25" stop-color="#1D2C6E"/>
<stop offset="0.28" stop-color="#1F3372"/>
<stop offset="0.38" stop-color="#22447C"/>
<stop offset="0.57" stop-color="#2A7097"/>
<stop offset="0.83" stop-color="#38B7C2"/>
<stop offset="1" stop-color="#42E8E0"/>
</linearGradient>
<linearGradient id="paint29_linear_1484_777" x1="302.958" y1="392.736" x2="192.852" y2="278.23" gradientUnits="userSpaceOnUse">
<stop stop-color="#180D5B"/>
<stop offset="0.09" stop-color="#191560"/>
<stop offset="0.25" stop-color="#1E2C6E"/>
<stop offset="0.44" stop-color="#255285"/>
<stop offset="0.66" stop-color="#2F87A5"/>
<stop offset="0.9" stop-color="#3CC9CD"/>
<stop offset="1" stop-color="#42E8E0"/>
</linearGradient>
<linearGradient id="paint30_linear_1484_777" x1="613.963" y1="262.182" x2="375.112" y2="23.1421" gradientUnits="userSpaceOnUse">
<stop stop-color="#180D5B"/>
<stop offset="0.09" stop-color="#191560"/>
<stop offset="0.25" stop-color="#1E2C6E"/>
<stop offset="0.44" stop-color="#255285"/>
<stop offset="0.66" stop-color="#2F87A5"/>
<stop offset="0.9" stop-color="#3CC9CD"/>
<stop offset="1" stop-color="#42E8E0"/>
</linearGradient>
<linearGradient id="paint31_linear_1484_777" x1="480.442" y1="279.814" x2="373.599" y2="40.263" gradientUnits="userSpaceOnUse">
<stop stop-color="#180D5B"/>
<stop offset="0.09" stop-color="#191560"/>
<stop offset="0.25" stop-color="#1E2C6E"/>
<stop offset="0.44" stop-color="#255285"/>
<stop offset="0.66" stop-color="#2F87A5"/>
<stop offset="0.9" stop-color="#3CC9CD"/>
<stop offset="1" stop-color="#42E8E0"/>
</linearGradient>
<linearGradient id="paint32_linear_1484_777" x1="422.723" y1="251.506" x2="325.203" y2="74.0123" gradientUnits="userSpaceOnUse">
<stop stop-color="#180D5B"/>
<stop offset="0.09" stop-color="#191560"/>
<stop offset="0.25" stop-color="#1E2C6E"/>
<stop offset="0.44" stop-color="#255285"/>
<stop offset="0.66" stop-color="#2F87A5"/>
<stop offset="0.9" stop-color="#3CC9CD"/>
<stop offset="1" stop-color="#42E8E0"/>
</linearGradient>
<linearGradient id="paint33_linear_1484_777" x1="473.356" y1="339.972" x2="348.389" y2="106.339" gradientUnits="userSpaceOnUse">
<stop stop-color="#180D5B"/>
<stop offset="0.09" stop-color="#191560"/>
<stop offset="0.25" stop-color="#1E2C6E"/>
<stop offset="0.44" stop-color="#255285"/>
<stop offset="0.66" stop-color="#2F87A5"/>
<stop offset="0.9" stop-color="#3CC9CD"/>
<stop offset="1" stop-color="#42E8E0"/>
</linearGradient>
<linearGradient id="paint34_linear_1484_777" x1="327.843" y1="209.877" x2="467.205" y2="301.155" gradientUnits="userSpaceOnUse">
<stop stop-color="#2B237C"/>
<stop offset="1" stop-color="#180D5B"/>
</linearGradient>
<linearGradient id="paint35_linear_1484_777" x1="350.708" y1="267.931" x2="273.135" y2="117.642" gradientUnits="userSpaceOnUse">
<stop stop-color="#180D5B"/>
<stop offset="0.1" stop-color="#191560"/>
<stop offset="0.25" stop-color="#1D2C6E"/>
<stop offset="0.28" stop-color="#1F3372"/>
<stop offset="0.38" stop-color="#22447C"/>
<stop offset="0.57" stop-color="#2A7097"/>
<stop offset="0.83" stop-color="#38B7C2"/>
<stop offset="1" stop-color="#42E8E0"/>
</linearGradient>
<linearGradient id="paint36_linear_1484_777" x1="511.39" y1="142.212" x2="419.656" y2="-63.4404" gradientUnits="userSpaceOnUse">
<stop stop-color="#180D5B"/>
<stop offset="0.09" stop-color="#191560"/>
<stop offset="0.25" stop-color="#1E2C6E"/>
<stop offset="0.44" stop-color="#255285"/>
<stop offset="0.66" stop-color="#2F87A5"/>
<stop offset="0.9" stop-color="#3CC9CD"/>
<stop offset="1" stop-color="#42E8E0"/>
</linearGradient>
<linearGradient id="paint37_linear_1484_777" x1="426.118" y1="117.348" x2="356.005" y2="-17.412" gradientUnits="userSpaceOnUse">
<stop stop-color="#180D5B"/>
<stop offset="0.1" stop-color="#191560"/>
<stop offset="0.25" stop-color="#1D2C6E"/>
<stop offset="0.28" stop-color="#1F3372"/>
<stop offset="0.38" stop-color="#22447C"/>
<stop offset="0.57" stop-color="#2A7097"/>
<stop offset="0.83" stop-color="#38B7C2"/>
<stop offset="1" stop-color="#42E8E0"/>
</linearGradient>
<linearGradient id="paint38_linear_1484_777" x1="499.884" y1="88.8255" x2="389.756" y2="-25.6959" gradientUnits="userSpaceOnUse">
<stop stop-color="#180D5B"/>
<stop offset="0.09" stop-color="#191560"/>
<stop offset="0.25" stop-color="#1E2C6E"/>
<stop offset="0.44" stop-color="#255285"/>
<stop offset="0.66" stop-color="#2F87A5"/>
<stop offset="0.9" stop-color="#3CC9CD"/>
<stop offset="1" stop-color="#42E8E0"/>
</linearGradient>
<linearGradient id="paint39_linear_1484_777" x1="690.117" y1="397.028" x2="451.25" y2="158.009" gradientUnits="userSpaceOnUse">
<stop stop-color="#180D5B"/>
<stop offset="0.09" stop-color="#191560"/>
<stop offset="0.25" stop-color="#1E2C6E"/>
<stop offset="0.44" stop-color="#255285"/>
<stop offset="0.66" stop-color="#2F87A5"/>
<stop offset="0.9" stop-color="#3CC9CD"/>
<stop offset="1" stop-color="#42E8E0"/>
</linearGradient>
<linearGradient id="paint40_linear_1484_777" x1="556.574" y1="414.647" x2="449.731" y2="175.095" gradientUnits="userSpaceOnUse">
<stop stop-color="#180D5B"/>
<stop offset="0.09" stop-color="#191560"/>
<stop offset="0.25" stop-color="#1E2C6E"/>
<stop offset="0.44" stop-color="#255285"/>
<stop offset="0.66" stop-color="#2F87A5"/>
<stop offset="0.9" stop-color="#3CC9CD"/>
<stop offset="1" stop-color="#42E8E0"/>
</linearGradient>
<linearGradient id="paint41_linear_1484_777" x1="498.878" y1="386.352" x2="401.344" y2="208.879" gradientUnits="userSpaceOnUse">
<stop stop-color="#180D5B"/>
<stop offset="0.09" stop-color="#191560"/>
<stop offset="0.25" stop-color="#1E2C6E"/>
<stop offset="0.44" stop-color="#255285"/>
<stop offset="0.66" stop-color="#2F87A5"/>
<stop offset="0.9" stop-color="#3CC9CD"/>
<stop offset="1" stop-color="#42E8E0"/>
</linearGradient>
<linearGradient id="paint42_linear_1484_777" x1="549.497" y1="474.84" x2="424.529" y2="241.207" gradientUnits="userSpaceOnUse">
<stop stop-color="#180D5B"/>
<stop offset="0.09" stop-color="#191560"/>
<stop offset="0.25" stop-color="#1E2C6E"/>
<stop offset="0.44" stop-color="#255285"/>
<stop offset="0.66" stop-color="#2F87A5"/>
<stop offset="0.9" stop-color="#3CC9CD"/>
<stop offset="1" stop-color="#42E8E0"/>
</linearGradient>
<linearGradient id="paint43_linear_1484_777" x1="426.828" y1="402.785" x2="349.276" y2="252.512" gradientUnits="userSpaceOnUse">
<stop stop-color="#180D5B"/>
<stop offset="0.1" stop-color="#191560"/>
<stop offset="0.25" stop-color="#1D2C6E"/>
<stop offset="0.28" stop-color="#1F3372"/>
<stop offset="0.38" stop-color="#22447C"/>
<stop offset="0.57" stop-color="#2A7097"/>
<stop offset="0.83" stop-color="#38B7C2"/>
<stop offset="1" stop-color="#42E8E0"/>
</linearGradient>
<linearGradient id="paint44_linear_1484_777" x1="587.509" y1="277.067" x2="495.81" y2="71.4085" gradientUnits="userSpaceOnUse">
<stop stop-color="#180D5B"/>
<stop offset="0.09" stop-color="#191560"/>
<stop offset="0.25" stop-color="#1E2C6E"/>
<stop offset="0.44" stop-color="#255285"/>
<stop offset="0.66" stop-color="#2F87A5"/>
<stop offset="0.9" stop-color="#3CC9CD"/>
<stop offset="1" stop-color="#42E8E0"/>
</linearGradient>
<linearGradient id="paint45_linear_1484_777" x1="502.273" y1="252.194" x2="432.146" y2="117.454" gradientUnits="userSpaceOnUse">
<stop stop-color="#180D5B"/>
<stop offset="0.1" stop-color="#191560"/>
<stop offset="0.25" stop-color="#1D2C6E"/>
<stop offset="0.28" stop-color="#1F3372"/>
<stop offset="0.38" stop-color="#22447C"/>
<stop offset="0.57" stop-color="#2A7097"/>
<stop offset="0.83" stop-color="#38B7C2"/>
<stop offset="1" stop-color="#42E8E0"/>
</linearGradient>
<linearGradient id="paint46_linear_1484_777" x1="576.003" y1="223.68" x2="465.898" y2="109.174" gradientUnits="userSpaceOnUse">
<stop stop-color="#180D5B"/>
<stop offset="0.09" stop-color="#191560"/>
<stop offset="0.25" stop-color="#1E2C6E"/>
<stop offset="0.44" stop-color="#255285"/>
<stop offset="0.66" stop-color="#2F87A5"/>
<stop offset="0.9" stop-color="#3CC9CD"/>
<stop offset="1" stop-color="#42E8E0"/>
</linearGradient>
<linearGradient id="paint47_linear_1484_777" x1="454.253" y1="258.196" x2="215.408" y2="19.1924" gradientUnits="userSpaceOnUse">
<stop stop-color="#180D5B"/>
<stop offset="0.09" stop-color="#191560"/>
<stop offset="0.25" stop-color="#1E2C6E"/>
<stop offset="0.44" stop-color="#255285"/>
<stop offset="0.66" stop-color="#2F87A5"/>
<stop offset="0.9" stop-color="#3CC9CD"/>
<stop offset="1" stop-color="#42E8E0"/>
</linearGradient>
<linearGradient id="paint48_linear_1484_777" x1="320.733" y1="275.828" x2="213.89" y2="36.2772" gradientUnits="userSpaceOnUse">
<stop stop-color="#180D5B"/>
<stop offset="0.09" stop-color="#191560"/>
<stop offset="0.25" stop-color="#1E2C6E"/>
<stop offset="0.44" stop-color="#255285"/>
<stop offset="0.66" stop-color="#2F87A5"/>
<stop offset="0.9" stop-color="#3CC9CD"/>
<stop offset="1" stop-color="#42E8E0"/>
</linearGradient>
<linearGradient id="paint49_linear_1484_777" x1="263.037" y1="247.534" x2="165.503" y2="70.0605" gradientUnits="userSpaceOnUse">
<stop stop-color="#180D5B"/>
<stop offset="0.09" stop-color="#191560"/>
<stop offset="0.25" stop-color="#1E2C6E"/>
<stop offset="0.44" stop-color="#255285"/>
<stop offset="0.66" stop-color="#2F87A5"/>
<stop offset="0.9" stop-color="#3CC9CD"/>
<stop offset="1" stop-color="#42E8E0"/>
</linearGradient>
<linearGradient id="paint50_linear_1484_777" x1="313.669" y1="336" x2="188.688" y2="102.388" gradientUnits="userSpaceOnUse">
<stop stop-color="#180D5B"/>
<stop offset="0.09" stop-color="#191560"/>
<stop offset="0.25" stop-color="#1E2C6E"/>
<stop offset="0.44" stop-color="#255285"/>
<stop offset="0.66" stop-color="#2F87A5"/>
<stop offset="0.9" stop-color="#3CC9CD"/>
<stop offset="1" stop-color="#42E8E0"/>
</linearGradient>
<linearGradient id="paint51_linear_1484_777" x1="190.986" y1="263.967" x2="113.448" y2="113.673" gradientUnits="userSpaceOnUse">
<stop stop-color="#180D5B"/>
<stop offset="0.1" stop-color="#191560"/>
<stop offset="0.25" stop-color="#1D2C6E"/>
<stop offset="0.28" stop-color="#1F3372"/>
<stop offset="0.38" stop-color="#22447C"/>
<stop offset="0.57" stop-color="#2A7097"/>
<stop offset="0.83" stop-color="#38B7C2"/>
<stop offset="1" stop-color="#42E8E0"/>
</linearGradient>
<linearGradient id="paint52_linear_1484_777" x1="427.824" y1="273.094" x2="336.09" y2="67.442" gradientUnits="userSpaceOnUse">
<stop stop-color="#180D5B"/>
<stop offset="0.09" stop-color="#191560"/>
<stop offset="0.25" stop-color="#1E2C6E"/>
<stop offset="0.44" stop-color="#255285"/>
<stop offset="0.66" stop-color="#2F87A5"/>
<stop offset="0.9" stop-color="#3CC9CD"/>
<stop offset="1" stop-color="#42E8E0"/>
</linearGradient>
</defs>
</svg>
