<svg width="430" height="350" viewBox="0 0 711 548" fill="none" xmlns="http://www.w3.org/2000/svg">
<path d="M316.846 24.4397L277.751 47.8545L280.553 52.5926L319.648 29.1779L316.846 24.4397Z" fill="#F8951D"/>
<path d="M318.249 124.037L297.297 111.483L300.097 106.748L318.237 117.613L355.819 94.9238L358.637 99.6534L318.249 124.037Z" fill="#F8951D"/>
<path d="M361.064 100.727C358.858 100.727 356.652 100.208 354.938 99.1707C352.959 97.9762 351.82 96.1966 351.82 94.2963C351.82 92.396 352.953 90.6224 354.938 89.4219C358.373 87.3467 363.756 87.3467 367.191 89.4219C369.17 90.6164 370.309 92.396 370.309 94.2963C370.309 96.1966 369.176 97.9702 367.191 99.1707C365.471 100.208 363.271 100.727 361.064 100.727ZM361.064 92.1366C359.62 92.1366 358.169 92.4563 357.12 93.0898C356.34 93.5603 356.065 94.0369 356.065 94.3023C356.065 94.5678 356.34 95.0443 357.12 95.5149C359.224 96.7817 362.905 96.7817 365.009 95.5149C365.788 95.0443 366.064 94.5678 366.064 94.3023C366.064 94.0369 365.788 93.5603 365.009 93.0898C363.96 92.4563 362.509 92.1366 361.064 92.1366Z" fill="#F8951D"/>
<path d="M400.511 153.658C398.305 153.658 396.098 153.139 394.384 152.101C392.406 150.907 391.267 149.127 391.267 147.227C391.267 145.326 392.4 143.553 394.384 142.352C397.819 140.277 403.202 140.277 406.638 142.352C408.616 143.547 409.755 145.326 409.755 147.227C409.755 149.127 408.622 150.901 406.638 152.101C404.917 153.139 402.717 153.658 400.511 153.658ZM400.511 145.067C399.066 145.067 397.615 145.387 396.566 146.02C395.787 146.491 395.511 146.967 395.511 147.233C395.511 147.498 395.787 147.975 396.566 148.445C398.664 149.712 402.351 149.712 404.455 148.445C405.235 147.975 405.51 147.498 405.51 147.233C405.51 146.967 405.235 146.491 404.455 146.02C403.406 145.387 401.955 145.067 400.511 145.067Z" fill="#663500"/>
<path d="M273.947 59.3794C271.741 59.3794 269.535 58.8606 267.82 57.823C265.842 56.6285 264.703 54.8489 264.703 52.9486C264.703 51.0484 265.836 49.2747 267.82 48.0742C271.256 45.999 276.639 45.999 280.074 48.0742C282.052 49.2687 283.191 51.0484 283.191 52.9486C283.191 54.8489 282.058 56.6225 280.074 57.823C278.354 58.8606 276.153 59.3794 273.947 59.3794ZM273.947 50.7889C272.503 50.7889 271.052 51.1087 270.003 51.7421C269.223 52.2127 268.948 52.6892 268.948 52.9547C268.948 53.2201 269.223 53.6967 270.003 54.1672C272.107 55.4341 275.788 55.4341 277.892 54.1672C278.671 53.6967 278.947 53.2201 278.947 52.9547C278.947 52.6892 278.671 52.2127 277.892 51.7421C276.843 51.1087 275.392 50.7889 273.947 50.7889Z" fill="#F8951D"/>
<path d="M332.024 24.3719C329.818 24.3719 327.612 23.8531 325.898 22.8154C323.919 21.621 322.78 19.8414 322.78 17.9411C322.78 16.0408 323.913 14.2672 325.898 13.0667C329.333 10.9914 334.716 10.9914 338.151 13.0667C340.13 14.2611 341.269 16.0408 341.269 17.9411C341.269 19.8414 340.135 21.6149 338.151 22.8154C336.431 23.8531 334.231 24.3719 332.024 24.3719ZM332.024 15.7814C330.58 15.7814 329.129 16.1011 328.08 16.7345C327.3 17.2051 327.025 17.6817 327.025 17.9471C327.025 18.2125 327.3 18.6891 328.08 19.1597C330.184 20.4265 333.865 20.4265 335.969 19.1597C336.748 18.6891 337.024 18.2125 337.024 17.9471C337.024 17.6817 336.748 17.2051 335.969 16.7345C334.92 16.1011 333.469 15.7814 332.024 15.7814Z" fill="#F8951D"/>
<path d="M459.136 70.956C456.93 70.956 454.724 70.4371 453.009 69.3995C451.031 68.2051 449.892 66.4254 449.892 64.5251C449.892 62.6249 451.025 60.8513 453.009 59.6508C456.444 57.5756 461.827 57.5756 465.263 59.6508C467.241 60.8452 468.38 62.6249 468.38 64.5251C468.38 66.4254 467.247 68.199 465.263 69.3995C463.542 70.4371 461.342 70.956 459.136 70.956ZM459.136 62.3655C457.691 62.3655 456.24 62.6852 455.191 63.3186C454.412 63.7892 454.136 64.2657 454.136 64.5312C454.136 64.7966 454.412 65.2732 455.191 65.7437C457.289 67.0106 460.976 67.0106 463.08 65.7437C463.86 65.2732 464.135 64.7966 464.135 64.5312C464.135 64.2657 463.86 63.7892 463.08 63.3186C462.031 62.6852 460.581 62.3655 459.136 62.3655Z" fill="#F8951D"/>
<path d="M294.768 112.859C292.561 112.859 290.355 112.34 288.641 111.302C286.662 110.108 285.523 108.328 285.523 106.428C285.523 104.528 286.656 102.754 288.641 101.554C292.076 99.4784 297.459 99.4784 300.894 101.554C302.873 102.748 304.012 104.528 304.012 106.428C304.012 108.328 302.879 110.102 300.894 111.302C299.174 112.34 296.974 112.859 294.768 112.859ZM294.768 104.268C293.323 104.268 291.872 104.588 290.823 105.221C290.044 105.692 289.768 106.169 289.768 106.434C289.768 106.699 290.044 107.176 290.823 107.647C292.927 108.913 296.608 108.913 298.712 107.647C299.492 107.176 299.767 106.699 299.767 106.434C299.767 106.169 299.492 105.692 298.712 105.221C297.663 104.588 296.212 104.268 294.768 104.268Z" fill="#F8951D"/>
<path d="M315.114 150.864C313.651 150.864 312.152 150.195 310.852 148.934C307.968 146.129 306.577 140.898 307.68 137.02C308.316 134.787 309.725 133.219 311.553 132.73C313.375 132.242 315.378 132.881 317.038 134.498C319.922 137.303 321.313 142.533 320.21 146.412C319.574 148.644 318.165 150.213 316.337 150.702C315.935 150.81 315.528 150.864 315.114 150.864ZM312.776 136.838C312.728 136.838 312.686 136.839 312.65 136.857C312.398 136.923 312.015 137.315 311.763 138.196C311.091 140.567 312.045 144.15 313.807 145.863C314.461 146.497 314.988 146.648 315.24 146.575C315.492 146.509 315.875 146.117 316.127 145.236C316.799 142.865 315.845 139.282 314.083 137.568C313.525 137.026 313.058 136.838 312.776 136.838Z" fill="#F8951D"/>
<path d="M357.024 147.83C355.561 147.83 354.063 147.16 352.762 145.9C349.878 143.094 348.487 137.864 349.59 133.985C350.226 131.753 351.635 130.184 353.463 129.696C355.286 129.201 357.288 129.847 358.948 131.463C361.832 134.269 363.223 139.499 362.12 143.378C361.484 145.61 360.076 147.178 358.247 147.667C357.845 147.776 357.438 147.83 357.024 147.83ZM354.686 133.804C354.638 133.804 354.596 133.804 354.56 133.822C354.308 133.888 353.925 134.281 353.673 135.161C353.002 137.532 353.955 141.116 355.717 142.829C356.371 143.462 356.898 143.613 357.15 143.541C357.402 143.474 357.785 143.082 358.037 142.201C358.709 139.831 357.755 136.247 355.993 134.534C355.435 133.991 354.968 133.804 354.686 133.804Z" fill="#F8951D"/>
<path d="M390.301 179.254C389.888 179.254 389.48 179.2 389.078 179.091C387.256 178.596 385.841 177.034 385.212 174.802C384.109 170.923 385.505 165.693 388.383 162.887C390.044 161.271 392.04 160.625 393.868 161.12C395.691 161.615 397.106 163.177 397.741 165.409C398.844 169.288 397.447 174.518 394.57 177.324C393.275 178.584 391.776 179.254 390.307 179.254H390.301ZM392.639 165.228C392.358 165.228 391.89 165.415 391.333 165.958C389.57 167.671 388.617 171.255 389.288 173.626C389.54 174.506 389.924 174.898 390.175 174.965C390.427 175.031 390.955 174.886 391.608 174.253C393.371 172.54 394.324 168.956 393.653 166.585C393.401 165.705 393.017 165.313 392.765 165.246C392.729 165.234 392.687 165.228 392.639 165.228Z" fill="#F8951D"/>
<path d="M453.307 124.122C452.894 124.122 452.486 124.067 452.084 123.959C450.262 123.464 448.847 121.902 448.212 119.669C447.109 115.79 448.505 110.56 451.383 107.755C453.044 106.138 455.04 105.493 456.868 105.987C458.691 106.482 460.106 108.045 460.741 110.277C461.844 114.156 460.447 119.386 457.57 122.191C456.275 123.452 454.776 124.122 453.307 124.122ZM455.645 110.096C455.364 110.096 454.896 110.283 454.339 110.826C452.576 112.539 451.623 116.122 452.294 118.493C452.546 119.374 452.93 119.766 453.181 119.832C453.433 119.899 453.961 119.754 454.614 119.12C456.377 117.407 457.33 113.824 456.659 111.453C456.407 110.572 456.023 110.18 455.771 110.114C455.735 110.102 455.693 110.096 455.645 110.096Z" fill="#663500"/>
<path d="M319.219 194.692C317.757 194.692 316.258 194.022 314.957 192.761C312.073 189.956 310.683 184.726 311.786 180.847C312.421 178.615 313.83 177.046 315.658 176.558C317.481 176.063 319.483 176.708 321.144 178.325C324.027 181.13 325.418 186.361 324.315 190.24C323.68 192.472 322.271 194.04 320.442 194.529C320.041 194.637 319.633 194.692 319.219 194.692ZM316.881 180.672C316.833 180.672 316.791 180.672 316.755 180.69C316.504 180.756 316.12 181.148 315.868 182.029C315.197 184.4 316.15 187.983 317.913 189.697C318.566 190.33 319.094 190.481 319.345 190.408C319.597 190.342 319.981 189.95 320.233 189.069C320.904 186.698 319.951 183.115 318.188 181.402C317.631 180.859 317.163 180.672 316.881 180.672Z" fill="#F8951D"/>
<path d="M240.255 79.8541C245.702 79.8541 250.117 77.1883 250.117 73.8999C250.117 70.6115 245.702 67.9457 240.255 67.9457C234.809 67.9457 230.394 70.6115 230.394 73.8999C230.394 77.1883 234.809 79.8541 240.255 79.8541Z" fill="#F8951D"/>
<path d="M354.991 66.3108C358.216 63.1738 361.843 64.1511 363.072 68.4886C364.307 72.826 362.689 78.907 359.463 82.044C356.238 85.1809 352.611 84.2036 351.382 79.8661C350.147 75.5287 351.766 69.4478 354.991 66.3108Z" fill="#663500"/>
<path d="M281.117 206.902C277.891 203.765 274.265 204.742 273.036 209.08C271.801 213.417 273.419 219.498 276.644 222.635C279.87 225.772 283.497 224.795 284.726 220.457C285.961 216.12 284.342 210.039 281.117 206.902Z" fill="#F8951D"/>
<path d="M398.365 42.3249C395.139 39.188 391.513 40.1653 390.284 44.5027C389.049 48.8402 390.667 54.9211 393.893 58.0581C397.118 61.1951 400.745 60.2178 401.974 55.8803C403.209 51.5428 401.59 45.4619 398.365 42.3249Z" fill="#F8951D"/>
<path d="M415.575 68.006C421.022 68.006 425.437 65.3402 425.437 62.0518C425.437 58.7633 421.022 56.0975 415.575 56.0975C410.129 56.0975 405.714 58.7633 405.714 62.0518C405.714 65.3402 410.129 68.006 415.575 68.006Z" fill="#F8951D"/>
<path d="M414.479 114.041C419.925 114.041 424.34 111.375 424.34 108.087C424.34 104.799 419.925 102.133 414.479 102.133C409.032 102.133 404.617 104.799 404.617 108.087C404.617 111.375 409.032 114.041 414.479 114.041Z" fill="#F8951D"/>
<path d="M369.703 128.411C365.861 130.733 365.861 134.51 369.703 136.832C373.546 139.155 379.805 139.155 383.647 136.832C387.49 134.51 387.49 130.733 383.647 128.411C379.805 126.088 373.546 126.088 369.703 128.411Z" fill="#663500"/>
<path d="M435.299 173.861C440.745 173.861 445.161 171.195 445.161 167.907C445.161 164.618 440.745 161.953 435.299 161.953C429.853 161.953 425.438 164.618 425.438 167.907C425.438 171.195 429.853 173.861 435.299 173.861Z" fill="#663500"/>
<path d="M291.631 151.842C287.788 154.164 287.788 157.941 291.631 160.263C295.474 162.586 301.732 162.586 305.575 160.263C309.418 157.941 309.418 154.164 305.575 151.842C301.732 149.519 295.474 149.519 291.631 151.842Z" fill="#663500"/>
<path d="M337.505 209.146C342.952 209.146 347.367 206.48 347.367 203.192C347.367 199.903 342.952 197.237 337.505 197.237C332.059 197.237 327.644 199.903 327.644 203.192C327.644 206.48 332.059 209.146 337.505 209.146Z" fill="#663500"/>
<path d="M313.669 35.4718C319.116 35.4718 323.531 32.806 323.531 29.5176C323.531 26.2292 319.116 23.5634 313.669 23.5634C308.223 23.5634 303.808 26.2292 303.808 29.5176C303.808 32.806 308.223 35.4718 313.669 35.4718Z" fill="#F8951D"/>
<path d="M319.422 141.823L316.607 146.554L355.816 170.177L358.631 165.446L319.422 141.823Z" fill="#F8951D"/>
<path d="M436.682 47.8832L433.83 52.5911L453.153 64.446L456.005 59.7381L436.682 47.8832Z" fill="#F8951D"/>
<path d="M359.248 3.17992L355.004 3.18738L355.127 74.1493L359.371 74.1419L359.248 3.17992Z" fill="#663500"/>
<path d="M377.668 130.683L375.473 134.339L394.883 146.141L397.078 142.485L377.668 130.683Z" fill="#663500"/>
<path d="M436.094 165.941L433.91 169.604L472.893 193.137L475.076 189.475L436.094 165.941Z" fill="#663500"/>
<path d="M258.442 106.74L238.84 118.573L241.659 123.302L261.26 111.468L258.442 106.74Z" fill="#663500"/>
<path d="M297.22 153.666L238.945 189.013L241.774 193.735L300.048 158.389L297.22 153.666Z" fill="#663500"/>
<path d="M339.01 200.646L336.191 205.374L394.56 240.61L397.379 235.882L339.01 200.646Z" fill="#663500"/>
<path d="M398.748 50.4871H393.269V97.4271H398.748V50.4871Z" fill="#F8951D"/>
<path d="M451.8 85.5421L451.73 109.094L457.21 109.11L457.279 85.5585L451.8 85.5421Z" fill="#663500"/>
<path d="M414.185 83.1335L355.697 118.358L358.511 123.089L416.999 87.8647L414.185 83.1335Z" fill="#663500"/>
<path d="M419.413 89.1504C417.207 89.1504 415.001 88.6316 413.286 87.594C411.308 86.3995 410.169 84.6199 410.169 82.7196C410.169 80.8193 411.302 79.0457 413.286 77.8452C416.721 75.77 422.105 75.77 425.54 77.8452C427.518 79.0397 428.657 80.8193 428.657 82.7196C428.657 84.6199 427.524 86.3935 425.54 87.594C423.819 88.6316 421.619 89.1504 419.413 89.1504ZM419.413 80.5599C417.968 80.5599 416.518 80.8797 415.468 81.5131C414.689 81.9837 414.413 82.4602 414.413 82.7257C414.413 82.9911 414.689 83.4677 415.468 83.9382C417.567 85.2051 421.259 85.2051 423.358 83.9382C424.137 83.4677 424.413 82.9911 424.413 82.7257C424.413 82.4602 424.137 81.9837 423.358 81.5131C422.309 80.8797 420.858 80.5599 419.413 80.5599Z" fill="#663500"/>
<path d="M357.227 126.722C362.673 126.722 367.088 124.056 367.088 120.768C367.088 117.479 362.673 114.813 357.227 114.813C351.78 114.813 347.365 117.479 347.365 120.768C347.365 124.056 351.78 126.722 357.227 126.722Z" fill="#663500"/>
<path d="M277.898 217.236L237.624 192.918V68.9351L279.426 94.1214L355.813 47.8329L358.643 52.5565L279.432 100.552L243.103 78.6658V189.799L280.715 212.506L277.898 217.236Z" fill="#F8951D"/>
<path d="M357.227 56.1519C362.673 56.1519 367.088 53.4861 367.088 50.1977C367.088 46.9092 362.673 44.2434 357.227 44.2434C351.78 44.2434 347.365 46.9092 347.365 50.1977C347.365 53.4861 351.78 56.1519 357.227 56.1519Z" fill="#F8951D"/>
<path d="M417.003 64.4106L414.185 59.681L429.886 50.1977L357.114 6.43685L339.135 17.3801L336.3 12.6625L357.102 0L440.551 50.1917L417.003 64.4106Z" fill="#F8951D"/>
<path d="M282.046 120.822H276.566V167.847H282.046V120.822Z" fill="#F8951D"/>
<path d="M280.05 183.115C278.588 183.115 277.089 182.446 275.788 181.185C272.905 178.379 271.514 173.149 272.617 169.27C273.252 167.038 274.661 165.47 276.49 164.981C278.312 164.492 280.314 165.132 281.975 166.749C284.858 169.554 286.249 174.784 285.146 178.663C284.511 180.895 283.102 182.464 281.273 182.952C280.872 183.061 280.464 183.115 280.05 183.115ZM277.712 169.089C277.664 169.089 277.623 169.089 277.587 169.107C277.335 169.174 276.951 169.566 276.699 170.447C276.028 172.817 276.981 176.401 278.744 178.114C279.397 178.748 279.925 178.898 280.176 178.826C280.428 178.76 280.812 178.367 281.064 177.487C281.735 175.116 280.782 171.532 279.019 169.819C278.462 169.276 277.994 169.089 277.712 169.089Z" fill="#F8951D"/>
<path d="M281.118 112.895C277.892 109.758 274.265 110.735 273.037 115.073C271.802 119.41 273.42 125.491 276.645 128.628C279.871 131.765 283.498 130.788 284.727 126.45C285.962 122.113 284.343 116.032 281.118 112.895Z" fill="#F8951D"/>
<path d="M359.975 266.788L315.505 239.943V191.356H320.984V236.818L354.484 257.045L354.37 144.386L359.849 144.38L359.975 266.788Z" fill="#F8951D"/>
<path d="M372.25 242.187C375.475 239.05 379.102 240.027 380.331 244.365C381.566 248.702 379.947 254.783 376.722 257.92C373.497 261.057 369.87 260.08 368.641 255.742C367.406 251.405 369.025 245.324 372.25 242.187Z" fill="#F8951D"/>
<path d="M259.111 102.145C262.336 99.0079 265.963 99.9852 267.192 104.323C268.427 108.66 266.808 114.741 263.583 117.878C260.358 121.015 256.731 120.038 255.502 115.7C254.273 111.363 255.886 105.282 259.111 102.145Z" fill="#663500"/>
<path d="M414.181 224.31L375.239 247.819L378.058 252.547L416.999 229.038L414.181 224.31Z" fill="#F8951D"/>
<path d="M457.218 156.125H451.738V203.15H457.218V156.125Z" fill="#F8951D"/>
<path d="M452.241 142.395C455.466 139.258 459.093 140.235 460.322 144.572C461.557 148.91 459.939 154.991 456.713 158.128C453.488 161.265 449.861 160.288 448.632 155.95C447.397 151.613 449.016 145.532 452.241 142.395Z" fill="#F8951D"/>
<path d="M412.854 231.497V160.957L397.537 170.211L394.714 165.482L418.334 151.22V221.754L471.269 189.799V78.6718L417.027 111.417L414.209 106.693L476.748 68.9291V192.918L412.854 231.497Z" fill="#F8951D"/>
<path d="M320.689 305.654L281.594 329.069L284.396 333.807L323.491 310.392L320.689 305.654Z" fill="#F8951D"/>
<path d="M322.11 405.243L301.152 392.689L303.958 387.954L322.099 398.819L359.674 376.13L362.498 380.859L322.11 405.243Z" fill="#F8951D"/>
<path d="M364.92 381.939C362.714 381.939 360.508 381.421 358.793 380.383C356.815 379.189 355.676 377.409 355.676 375.509C355.676 373.608 356.809 371.835 358.793 370.634C362.228 368.559 367.612 368.559 371.047 370.634C373.025 371.829 374.164 373.608 374.164 375.509C374.164 377.409 373.031 379.182 371.047 380.383C369.326 381.421 367.126 381.939 364.92 381.939ZM364.92 373.349C363.475 373.349 362.024 373.669 360.975 374.302C360.196 374.773 359.92 375.249 359.92 375.515C359.92 375.78 360.196 376.257 360.975 376.727C363.079 377.994 366.76 377.994 368.865 376.727C369.644 376.257 369.92 375.78 369.92 375.515C369.92 375.249 369.644 374.773 368.865 374.302C367.815 373.669 366.365 373.349 364.92 373.349Z" fill="#F8951D"/>
<path d="M404.367 434.864C402.161 434.864 399.955 434.345 398.24 433.307C396.262 432.113 395.123 430.333 395.123 428.433C395.123 426.533 396.256 424.759 398.24 423.559C401.676 421.483 407.059 421.483 410.494 423.559C412.472 424.753 413.611 426.533 413.611 428.433C413.611 430.333 412.478 432.107 410.494 433.307C408.773 434.345 406.573 434.864 404.367 434.864ZM404.367 426.273C402.922 426.273 401.472 426.593 400.423 427.226C399.643 427.697 399.367 428.174 399.367 428.439C399.367 428.704 399.643 429.181 400.423 429.652C402.521 430.918 406.208 430.918 408.312 429.652C409.091 429.181 409.367 428.704 409.367 428.439C409.367 428.174 409.091 427.697 408.312 427.226C407.263 426.593 405.812 426.273 404.367 426.273Z" fill="#663500"/>
<path d="M277.809 340.585C275.602 340.585 273.396 340.067 271.682 339.029C269.703 337.834 268.564 336.055 268.564 334.155C268.564 332.254 269.697 330.481 271.682 329.28C275.117 327.205 280.5 327.205 283.935 329.28C285.914 330.475 287.053 332.254 287.053 334.155C287.053 336.055 285.92 337.828 283.935 339.029C282.215 340.067 280.015 340.585 277.809 340.585ZM277.809 331.995C276.364 331.995 274.913 332.315 273.864 332.948C273.085 333.419 272.809 333.895 272.809 334.161C272.809 334.426 273.085 334.903 273.864 335.373C275.968 336.64 279.649 336.64 281.753 335.373C282.533 334.903 282.808 334.426 282.808 334.161C282.808 333.895 282.533 333.419 281.753 332.948C280.704 332.315 279.253 331.995 277.809 331.995Z" fill="#F8951D"/>
<path d="M335.881 305.578C333.675 305.578 331.469 305.059 329.754 304.022C327.776 302.827 326.637 301.048 326.637 299.147C326.637 297.247 327.77 295.473 329.754 294.273C333.189 292.198 338.573 292.198 342.008 294.273C343.986 295.467 345.125 297.247 345.125 299.147C345.125 301.048 343.992 302.821 342.008 304.022C340.287 305.059 338.087 305.578 335.881 305.578ZM335.881 296.988C334.436 296.988 332.985 297.307 331.936 297.941C331.157 298.411 330.881 298.888 330.881 299.153C330.881 299.419 331.157 299.895 331.936 300.366C334.04 301.633 337.721 301.633 339.825 300.366C340.605 299.895 340.881 299.419 340.881 299.153C340.881 298.888 340.605 298.411 339.825 297.941C338.776 297.307 337.326 296.988 335.881 296.988Z" fill="#F8951D"/>
<path d="M462.99 352.168C460.784 352.168 458.578 351.649 456.863 350.612C454.885 349.417 453.746 347.638 453.746 345.737C453.746 343.837 454.879 342.063 456.863 340.863C460.298 338.788 465.682 338.788 469.117 340.863C471.095 342.057 472.234 343.837 472.234 345.737C472.234 347.638 471.101 349.411 469.117 350.612C467.396 351.649 465.196 352.168 462.99 352.168ZM462.99 343.578C461.545 343.578 460.095 343.897 459.046 344.531C458.266 345.001 457.99 345.478 457.99 345.743C457.99 346.009 458.266 346.485 459.046 346.956C461.144 348.223 464.831 348.223 466.935 346.956C467.714 346.485 467.99 346.009 467.99 345.743C467.99 345.478 467.714 345.001 466.935 344.531C465.886 343.897 464.435 343.578 462.99 343.578Z" fill="#F8951D"/>
<path d="M298.629 394.065C296.423 394.065 294.217 393.546 292.502 392.508C290.524 391.314 289.385 389.534 289.385 387.634C289.385 385.734 290.518 383.96 292.502 382.76C295.937 380.684 301.321 380.684 304.756 382.76C306.734 383.954 307.873 385.734 307.873 387.634C307.873 389.534 306.74 391.308 304.756 392.508C303.035 393.546 300.835 394.065 298.629 394.065ZM298.629 385.474C297.184 385.474 295.733 385.794 294.684 386.427C293.905 386.898 293.629 387.375 293.629 387.64C293.629 387.906 293.905 388.382 294.684 388.853C296.788 390.119 300.469 390.119 302.574 388.853C303.353 388.382 303.629 387.906 303.629 387.64C303.629 387.375 303.353 386.898 302.574 386.427C301.524 385.794 300.074 385.474 298.629 385.474Z" fill="#F8951D"/>
<path d="M318.975 432.071C317.513 432.071 316.014 431.401 314.713 430.14C311.829 427.335 310.439 422.105 311.542 418.226C312.177 415.994 313.586 414.425 315.414 413.936C317.237 413.448 319.239 414.087 320.9 415.704C323.783 418.509 325.174 423.739 324.071 427.618C323.435 429.851 322.027 431.419 320.198 431.908C319.797 432.016 319.389 432.071 318.975 432.071ZM316.637 418.045C316.589 418.045 316.547 418.045 316.511 418.063C316.26 418.129 315.876 418.521 315.624 419.402C314.953 421.773 315.906 425.356 317.668 427.069C318.322 427.703 318.849 427.854 319.101 427.781C319.353 427.715 319.737 427.323 319.988 426.442C320.66 424.071 319.707 420.488 317.944 418.775C317.387 418.232 316.919 418.045 316.637 418.045Z" fill="#F8951D"/>
<path d="M360.885 429.042C359.423 429.042 357.924 428.372 356.623 427.112C353.74 424.306 352.349 419.076 353.452 415.197C354.087 412.965 355.496 411.397 357.324 410.908C359.147 410.413 361.149 411.059 362.81 412.676C365.693 415.481 367.084 420.711 365.981 424.59C365.346 426.822 363.937 428.391 362.108 428.879C361.707 428.988 361.299 429.042 360.885 429.042ZM358.547 415.016C358.499 415.016 358.457 415.016 358.422 415.034C358.17 415.101 357.786 415.493 357.534 416.374C356.863 418.744 357.816 422.328 359.579 424.041C360.232 424.674 360.76 424.825 361.011 424.753C361.263 424.687 361.647 424.294 361.899 423.414C362.57 421.043 361.617 417.459 359.854 415.746C359.297 415.203 358.829 415.016 358.547 415.016Z" fill="#F8951D"/>
<path d="M394.157 460.466C393.743 460.466 393.336 460.412 392.934 460.303C391.111 459.809 389.697 458.246 389.067 456.014C387.964 452.135 389.361 446.905 392.239 444.1C393.899 442.483 395.895 441.837 397.724 442.332C399.546 442.827 400.961 444.389 401.597 446.621C402.7 450.5 401.303 455.731 398.425 458.536C397.13 459.797 395.632 460.466 394.163 460.466H394.157ZM396.495 446.44C396.213 446.44 395.746 446.627 395.188 447.17C393.425 448.884 392.472 452.467 393.144 454.838C393.396 455.719 393.779 456.111 394.031 456.177C394.283 456.243 394.81 456.099 395.464 455.465C397.226 453.752 398.179 450.169 397.508 447.798C397.256 446.917 396.873 446.525 396.621 446.458C396.585 446.446 396.543 446.44 396.495 446.44Z" fill="#F8951D"/>
<path d="M457.164 405.334C456.75 405.334 456.343 405.279 455.941 405.171C454.119 404.676 452.704 403.114 452.068 400.882C450.965 397.003 452.362 391.772 455.24 388.967C456.9 387.35 458.896 386.705 460.725 387.2C462.547 387.694 463.962 389.257 464.598 391.489C465.701 395.368 464.304 400.598 461.426 403.403C460.131 404.664 458.633 405.334 457.164 405.334ZM459.502 391.308C459.22 391.308 458.753 391.495 458.195 392.038C456.433 393.751 455.479 397.334 456.151 399.705C456.403 400.586 456.786 400.978 457.038 401.045C457.29 401.111 457.817 400.966 458.471 400.333C460.233 398.619 461.186 395.036 460.515 392.665C460.263 391.784 459.88 391.392 459.628 391.326C459.592 391.314 459.55 391.308 459.502 391.308Z" fill="#663500"/>
<path d="M323.082 475.904C321.619 475.904 320.12 475.234 318.819 473.973C315.936 471.168 314.545 465.938 315.648 462.059C316.284 459.827 317.692 458.258 319.521 457.77C321.343 457.275 323.345 457.921 325.006 459.537C327.89 462.342 329.28 467.573 328.177 471.452C327.542 473.684 326.133 475.252 324.305 475.741C323.903 475.85 323.495 475.904 323.082 475.904ZM320.744 461.884C320.696 461.884 320.654 461.884 320.618 461.902C320.366 461.968 319.982 462.361 319.731 463.241C319.059 465.612 320.012 469.196 321.775 470.909C322.428 471.542 322.956 471.693 323.208 471.621C323.459 471.554 323.843 471.162 324.095 470.281C324.766 467.911 323.813 464.327 322.051 462.614C321.493 462.071 321.025 461.884 320.744 461.884Z" fill="#F8951D"/>
<path d="M237.139 350.901C233.296 353.224 233.296 357 237.139 359.323C240.982 361.646 247.24 361.646 251.083 359.323C254.926 357 254.926 353.224 251.083 350.901C247.24 348.579 240.982 348.579 237.139 350.901Z" fill="#F8951D"/>
<path d="M358.847 347.517C362.072 344.38 365.699 345.357 366.928 349.695C368.163 354.032 366.544 360.113 363.319 363.25C360.094 366.387 356.467 365.41 355.238 361.072C354.003 356.735 355.621 350.654 358.847 347.517Z" fill="#663500"/>
<path d="M285.289 505.558C288.445 504.706 289.861 499.725 288.452 494.431C287.042 489.137 283.341 485.535 280.184 486.386C277.028 487.238 275.611 492.219 277.021 497.513C278.431 502.807 282.132 506.409 285.289 505.558Z" fill="#F8951D"/>
<path d="M402.532 340.996C405.688 340.145 407.105 335.164 405.695 329.87C404.285 324.576 400.584 320.974 397.427 321.825C394.271 322.676 392.855 327.658 394.264 332.952C395.674 338.246 399.376 341.847 402.532 340.996Z" fill="#F8951D"/>
<path d="M419.438 349.212C424.884 349.212 429.299 346.546 429.299 343.258C429.299 339.969 424.884 337.304 419.438 337.304C413.991 337.304 409.576 339.969 409.576 343.258C409.576 346.546 413.991 349.212 419.438 349.212Z" fill="#F8951D"/>
<path d="M411.368 385.082C407.526 387.405 407.526 391.181 411.368 393.504C415.211 395.826 421.47 395.826 425.313 393.504C429.155 391.181 429.155 387.405 425.313 385.082C421.47 382.76 415.211 382.76 411.368 385.082Z" fill="#F8951D"/>
<path d="M373.566 409.617C369.723 411.94 369.723 415.716 373.566 418.039C377.408 420.361 383.667 420.361 387.51 418.039C391.352 415.716 391.352 411.94 387.51 409.617C383.667 407.295 377.408 407.295 373.566 409.617Z" fill="#663500"/>
<path d="M432.183 444.902C428.34 447.225 428.34 451.001 432.183 453.324C436.026 455.646 442.284 455.646 446.127 453.324C449.97 451.001 449.97 447.225 446.127 444.902C442.284 442.58 436.026 442.58 432.183 444.902Z" fill="#663500"/>
<path d="M302.465 443.213C307.912 443.213 312.327 440.547 312.327 437.259C312.327 433.97 307.912 431.304 302.465 431.304C297.019 431.304 292.604 433.97 292.604 437.259C292.604 440.547 297.019 443.213 302.465 443.213Z" fill="#663500"/>
<path d="M334.389 480.187C330.546 482.51 330.546 486.286 334.389 488.609C338.232 490.931 344.49 490.931 348.333 488.609C352.176 486.286 352.176 482.51 348.333 480.187C344.49 477.864 338.232 477.864 334.389 480.187Z" fill="#663500"/>
<path d="M317.531 316.684C322.977 316.684 327.392 314.018 327.392 310.73C327.392 307.441 322.977 304.776 317.531 304.776C312.084 304.776 307.669 307.441 307.669 310.73C307.669 314.018 312.084 316.684 317.531 316.684Z" fill="#F8951D"/>
<path d="M323.283 423.035L320.469 427.766L359.677 451.389L362.492 446.659L323.283 423.035Z" fill="#F8951D"/>
<path d="M440.526 329.111L437.674 333.818L456.996 345.673L459.849 340.966L440.526 329.111Z" fill="#F8951D"/>
<path d="M363.129 284.385L358.885 284.392L359.008 355.354L363.252 355.347L363.129 284.385Z" fill="#663500"/>
<path d="M381.527 411.885L379.332 415.54L398.743 427.342L400.938 423.686L381.527 411.885Z" fill="#663500"/>
<path d="M439.958 447.133L437.774 450.796L476.757 474.329L478.94 470.667L439.958 447.133Z" fill="#663500"/>
<path d="M262.285 387.966L242.684 399.799L245.502 404.528L265.104 392.694L262.285 387.966Z" fill="#663500"/>
<path d="M301.077 434.872L242.803 470.219L245.631 474.941L303.906 439.594L301.077 434.872Z" fill="#663500"/>
<path d="M342.88 481.841L340.062 486.569L398.43 521.806L401.249 517.077L342.88 481.841Z" fill="#663500"/>
<path d="M402.604 331.693H397.125V378.633H402.604V331.693Z" fill="#F8951D"/>
<path d="M455.66 366.75L455.591 390.302L461.07 390.318L461.14 366.767L455.66 366.75Z" fill="#663500"/>
<path d="M418.067 364.327L359.58 399.552L362.394 404.283L420.881 369.059L418.067 364.327Z" fill="#663500"/>
<path d="M423.268 370.363C421.061 370.363 418.855 369.844 417.141 368.806C415.162 367.612 414.023 365.832 414.023 363.932C414.023 362.031 415.156 360.258 417.141 359.057C420.576 356.982 425.959 356.982 429.394 359.057C431.373 360.252 432.512 362.031 432.512 363.932C432.512 365.832 431.379 367.606 429.394 368.806C427.674 369.844 425.474 370.363 423.268 370.363ZM423.268 361.772C421.823 361.772 420.372 362.092 419.323 362.725C418.544 363.196 418.268 363.672 418.268 363.938C418.268 364.203 418.544 364.68 419.323 365.15C421.421 366.417 425.108 366.417 427.212 365.15C427.992 364.68 428.267 364.203 428.267 363.938C428.267 363.672 427.992 363.196 427.212 362.725C426.163 362.092 424.712 361.772 423.268 361.772Z" fill="#663500"/>
<path d="M361.083 407.928C366.53 407.928 370.945 405.262 370.945 401.974C370.945 398.685 366.53 396.019 361.083 396.019C355.637 396.019 351.222 398.685 351.222 401.974C351.222 405.262 355.637 407.928 361.083 407.928Z" fill="#663500"/>
<path d="M281.752 498.442L241.484 474.13V350.147L283.281 375.327L359.674 329.045L362.497 333.762L283.293 381.758L246.964 359.872V471.005L284.57 493.712L281.752 498.442Z" fill="#F8951D"/>
<path d="M354.112 327.193C350.269 329.515 350.269 333.292 354.112 335.614C357.954 337.937 364.213 337.937 368.056 335.614C371.898 333.292 371.898 329.515 368.056 327.193C364.213 324.87 357.954 324.87 354.112 327.193Z" fill="#F8951D"/>
<path d="M420.865 345.617L418.047 340.887L433.748 331.41L360.976 287.643L342.991 298.586L340.155 293.869L360.958 281.212L444.412 331.398L420.865 345.617Z" fill="#F8951D"/>
<path d="M285.901 402.034H280.422V449.059H285.901V402.034Z" fill="#F8951D"/>
<path d="M283.911 464.327C282.448 464.327 280.949 463.658 279.648 462.397C276.765 459.592 275.374 454.361 276.477 450.482C277.113 448.25 278.521 446.682 280.35 446.193C282.172 445.704 284.175 446.344 285.835 447.961C288.719 450.766 290.11 455.996 289.006 459.875C288.371 462.107 286.962 463.676 285.134 464.164C284.732 464.273 284.324 464.327 283.911 464.327ZM281.573 450.301C281.525 450.301 281.483 450.301 281.447 450.319C281.195 450.386 280.811 450.778 280.56 451.659C279.888 454.029 280.841 457.613 282.604 459.326C283.257 459.96 283.785 460.11 284.037 460.038C284.288 459.972 284.672 459.579 284.924 458.699C285.595 456.328 284.642 452.745 282.88 451.031C282.322 450.488 281.855 450.301 281.573 450.301Z" fill="#F8951D"/>
<path d="M284.978 394.107C281.753 390.97 278.126 391.947 276.897 396.285C275.662 400.622 277.281 406.703 280.506 409.84C283.731 412.977 287.358 412 288.587 407.662C289.816 403.325 288.203 397.244 284.978 394.107Z" fill="#F8951D"/>
<path d="M363.829 548L319.365 521.149V472.568H324.845V518.03L358.344 538.257L358.23 425.591L363.709 425.585L363.829 548Z" fill="#F8951D"/>
<path d="M376.107 523.393C379.333 520.256 382.96 521.233 384.188 525.571C385.423 529.908 383.805 535.989 380.58 539.126C377.354 542.263 373.727 541.286 372.498 536.948C371.263 532.611 372.882 526.53 376.107 523.393Z" fill="#F8951D"/>
<path d="M262.971 383.357C266.196 380.22 269.823 381.197 271.052 385.535C272.287 389.872 270.668 395.953 267.443 399.09C264.218 402.227 260.591 401.25 259.362 396.912C258.127 392.575 259.745 386.494 262.971 383.357Z" fill="#663500"/>
<path d="M418.028 505.53L379.087 529.038L381.906 533.767L420.847 510.258L418.028 505.53Z" fill="#F8951D"/>
<path d="M461.078 437.337H455.599V484.362H461.078V437.337Z" fill="#F8951D"/>
<path d="M456.097 423.601C459.322 420.464 462.949 421.441 464.178 425.778C465.407 430.116 463.794 436.197 460.569 439.334C457.344 442.471 453.717 441.493 452.488 437.156C451.253 432.819 452.871 426.738 456.097 423.601Z" fill="#F8951D"/>
<path d="M416.716 512.703V442.169L401.393 451.417L398.575 446.694L422.195 432.432V502.966L475.13 471.005V359.878L420.888 392.629L418.065 387.899L480.603 350.141V474.13L416.716 512.703Z" fill="#F8951D"/>
<path d="M161.581 178.621L228.028 138.504" stroke="#DEC188" stroke-width="14.07" stroke-miterlimit="10" stroke-linecap="round"/>
<path d="M565.631 186.783L499.178 146.66" stroke="#DEC188" stroke-width="14.07" stroke-miterlimit="10" stroke-linecap="round"/>
<path d="M551.097 167.011L512.002 190.425L514.804 195.163L553.899 171.749L551.097 167.011Z" fill="#F8951D"/>
<path d="M552.501 266.583L531.549 254.029L534.348 249.294L552.489 260.158L590.071 237.469L592.889 242.199L552.501 266.583Z" fill="#F8951D"/>
<path d="M595.316 243.273C593.11 243.273 590.904 242.754 589.19 241.717C587.211 240.522 586.072 238.742 586.072 236.842C586.072 234.942 587.205 233.168 589.19 231.968C592.625 229.893 598.008 229.893 601.443 231.968C603.421 233.162 604.56 234.942 604.56 236.842C604.56 238.742 603.427 240.516 601.443 241.717C599.723 242.754 597.523 243.273 595.316 243.273ZM595.316 234.682C593.872 234.682 592.421 235.002 591.372 235.636C590.592 236.106 590.317 236.583 590.317 236.848C590.317 237.114 590.592 237.59 591.372 238.061C593.476 239.328 597.157 239.328 599.261 238.061C600.04 237.59 600.316 237.114 600.316 236.848C600.316 236.583 600.04 236.106 599.261 235.636C598.212 235.002 596.761 234.682 595.316 234.682Z" fill="#F8951D"/>
<path d="M634.764 296.203C632.557 296.203 630.351 295.685 628.637 294.647C626.659 293.453 625.52 291.673 625.52 289.773C625.52 287.872 626.653 286.099 628.637 284.898C632.072 282.823 637.455 282.823 640.89 284.898C642.869 286.093 644.008 287.872 644.008 289.773C644.008 291.673 642.875 293.446 640.89 294.647C639.17 295.685 636.97 296.203 634.764 296.203ZM634.764 287.613C633.319 287.613 631.868 287.933 630.819 288.566C630.04 289.037 629.764 289.513 629.764 289.779C629.764 290.044 630.04 290.521 630.819 290.991C632.917 292.258 636.61 292.258 638.708 290.991C639.488 290.521 639.763 290.044 639.763 289.779C639.763 289.513 639.488 289.037 638.708 288.566C637.659 287.933 636.208 287.613 634.764 287.613Z" fill="#663500"/>
<path d="M508.205 201.925C505.999 201.925 503.793 201.406 502.078 200.369C500.1 199.174 498.961 197.395 498.961 195.494C498.961 193.594 500.094 191.821 502.078 190.62C505.513 188.545 510.897 188.545 514.332 190.62C516.31 191.814 517.449 193.594 517.449 195.494C517.449 197.395 516.316 199.168 514.332 200.369C512.611 201.406 510.411 201.925 508.205 201.925ZM508.205 193.335C506.76 193.335 505.31 193.654 504.26 194.288C503.481 194.758 503.205 195.235 503.205 195.5C503.205 195.766 503.481 196.242 504.26 196.713C506.365 197.98 510.045 197.98 512.15 196.713C512.929 196.242 513.205 195.766 513.205 195.5C513.205 195.235 512.929 194.758 512.15 194.288C511.101 193.654 509.65 193.335 508.205 193.335Z" fill="#F8951D"/>
<path d="M566.277 166.918C564.071 166.918 561.865 166.399 560.151 165.361C558.172 164.167 557.033 162.387 557.033 160.487C557.033 158.587 558.166 156.813 560.151 155.613C563.586 153.537 568.969 153.537 572.404 155.613C574.382 156.807 575.521 158.587 575.521 160.487C575.521 162.387 574.388 164.161 572.404 165.361C570.684 166.399 568.483 166.918 566.277 166.918ZM566.277 158.327C564.833 158.327 563.382 158.647 562.333 159.28C561.553 159.751 561.278 160.228 561.278 160.493C561.278 160.758 561.553 161.235 562.333 161.706C564.437 162.972 568.118 162.972 570.222 161.706C571.001 161.235 571.277 160.758 571.277 160.493C571.277 160.228 571.001 159.751 570.222 159.28C569.173 158.647 567.722 158.327 566.277 158.327Z" fill="#F8951D"/>
<path d="M693.387 213.502C691.181 213.502 688.975 212.983 687.26 211.945C685.282 210.751 684.143 208.971 684.143 207.071C684.143 205.171 685.276 203.397 687.26 202.197C690.695 200.121 696.078 200.121 699.513 202.197C701.492 203.391 702.631 205.171 702.631 207.071C702.631 208.971 701.498 210.745 699.513 211.945C697.793 212.983 695.593 213.502 693.387 213.502ZM693.387 204.911C691.942 204.911 690.491 205.231 689.442 205.865C688.663 206.335 688.387 206.812 688.387 207.077C688.387 207.343 688.663 207.819 689.442 208.29C691.54 209.557 695.233 209.557 697.331 208.29C698.111 207.819 698.386 207.343 698.386 207.077C698.386 206.812 698.111 206.335 697.331 205.865C696.282 205.231 694.832 204.911 693.387 204.911Z" fill="#F8951D"/>
<path d="M529.018 255.404C526.812 255.404 524.606 254.886 522.892 253.848C520.913 252.654 519.774 250.874 519.774 248.974C519.774 247.073 520.907 245.3 522.892 244.099C526.327 242.024 531.71 242.024 535.145 244.099C537.124 245.294 538.263 247.073 538.263 248.974C538.263 250.874 537.13 252.648 535.145 253.848C533.425 254.886 531.225 255.404 529.018 255.404ZM529.018 246.814C527.574 246.814 526.123 247.134 525.074 247.767C524.295 248.238 524.019 248.714 524.019 248.98C524.019 249.245 524.295 249.722 525.074 250.192C527.178 251.459 530.859 251.459 532.963 250.192C533.743 249.722 534.018 249.245 534.018 248.98C534.018 248.714 533.743 248.238 532.963 247.767C531.914 247.134 530.463 246.814 529.018 246.814Z" fill="#F8951D"/>
<path d="M549.366 293.41C547.903 293.41 546.404 292.741 545.104 291.48C542.22 288.675 540.829 283.444 541.932 279.565C542.568 277.333 543.976 275.765 545.805 275.276C547.627 274.788 549.63 275.427 551.29 277.044C554.174 279.849 555.565 285.079 554.462 288.958C553.826 291.19 552.417 292.759 550.589 293.247C550.187 293.356 549.78 293.41 549.366 293.41ZM547.028 279.384C546.98 279.384 546.938 279.384 546.902 279.402C546.65 279.469 546.267 279.861 546.015 280.742C545.343 283.113 546.296 286.696 548.059 288.409C548.712 289.043 549.24 289.193 549.492 289.121C549.744 289.055 550.127 288.663 550.379 287.782C551.05 285.411 550.097 281.828 548.335 280.114C547.777 279.571 547.31 279.384 547.028 279.384Z" fill="#F8951D"/>
<path d="M591.282 290.376C589.819 290.376 588.32 289.706 587.019 288.445C584.136 285.64 582.745 280.41 583.848 276.531C584.484 274.299 585.892 272.73 587.721 272.242C589.543 271.747 591.546 272.393 593.206 274.009C596.09 276.814 597.481 282.045 596.378 285.924C595.742 288.156 594.333 289.724 592.505 290.213C592.103 290.322 591.696 290.376 591.282 290.376ZM588.944 276.35C588.896 276.35 588.854 276.35 588.818 276.368C588.566 276.434 588.183 276.827 587.931 277.707C587.259 280.078 588.213 283.662 589.975 285.375C590.628 286.008 591.156 286.159 591.408 286.087C591.66 286.02 592.043 285.628 592.295 284.747C592.966 282.377 592.013 278.793 590.251 277.08C589.693 276.537 589.226 276.35 588.944 276.35Z" fill="#F8951D"/>
<path d="M624.553 321.8C624.14 321.8 623.732 321.746 623.33 321.637C621.508 321.142 620.093 319.58 619.464 317.348C618.361 313.469 619.757 308.238 622.635 305.433C624.296 303.816 626.292 303.171 628.12 303.666C629.943 304.16 631.358 305.723 631.993 307.955C633.096 311.834 631.699 317.064 628.822 319.869C627.527 321.13 626.028 321.8 624.559 321.8H624.553ZM626.891 307.774C626.61 307.774 626.142 307.961 625.584 308.504C623.822 310.217 622.869 313.801 623.54 316.171C623.792 317.052 624.176 317.444 624.427 317.511C624.679 317.577 625.207 317.432 625.86 316.799C627.623 315.085 628.576 311.502 627.905 309.131C627.653 308.25 627.269 307.858 627.017 307.792C626.981 307.78 626.939 307.774 626.891 307.774Z" fill="#F8951D"/>
<path d="M687.56 266.668C687.147 266.668 686.739 266.613 686.337 266.505C684.515 266.01 683.1 264.448 682.465 262.216C681.362 258.337 682.758 253.106 685.636 250.301C687.297 248.684 689.293 248.039 691.121 248.533C692.944 249.028 694.359 250.591 694.994 252.823C696.097 256.702 694.7 261.932 691.823 264.737C690.528 265.998 689.029 266.668 687.56 266.668ZM689.898 252.642C689.617 252.642 689.149 252.829 688.591 253.372C686.829 255.085 685.876 258.668 686.547 261.039C686.799 261.92 687.183 262.312 687.434 262.378C687.686 262.445 688.214 262.3 688.867 261.667C690.63 259.953 691.583 256.37 690.911 253.999C690.66 253.118 690.276 252.726 690.024 252.66C689.988 252.648 689.946 252.642 689.898 252.642Z" fill="#663500"/>
<path d="M553.477 337.238C552.014 337.238 550.516 336.568 549.215 335.307C546.331 332.502 544.94 327.272 546.044 323.393C546.679 321.161 548.088 319.592 549.916 319.103C551.739 318.609 553.741 319.254 555.402 320.871C558.285 323.676 559.676 328.906 558.573 332.785C557.937 335.018 556.529 336.586 554.7 337.075C554.299 337.183 553.891 337.238 553.477 337.238ZM551.139 323.218C551.091 323.218 551.049 323.218 551.013 323.236C550.762 323.302 550.378 323.694 550.126 324.575C549.455 326.946 550.408 330.529 552.17 332.243C552.824 332.876 553.351 333.027 553.603 332.954C553.855 332.888 554.239 332.496 554.49 331.615C555.162 329.244 554.209 325.661 552.446 323.948C551.889 323.405 551.421 323.218 551.139 323.218Z" fill="#F8951D"/>
<path d="M467.535 212.235C463.693 214.558 463.693 218.334 467.535 220.657C471.378 222.979 477.637 222.979 481.479 220.657C485.322 218.334 485.322 214.558 481.479 212.235C477.637 209.912 471.378 209.912 467.535 212.235Z" fill="#F8951D"/>
<path d="M589.243 208.857C592.468 205.72 596.095 206.697 597.324 211.034C598.559 215.372 596.941 221.453 593.715 224.59C590.49 227.727 586.863 226.75 585.634 222.412C584.399 218.075 586.018 211.994 589.243 208.857Z" fill="#663500"/>
<path d="M515.369 349.448C512.143 346.311 508.516 347.288 507.288 351.625C506.053 355.963 507.671 362.044 510.896 365.181C514.122 368.318 517.749 367.34 518.978 363.003C520.213 358.666 518.594 352.585 515.369 349.448Z" fill="#F8951D"/>
<path d="M632.616 184.871C629.39 181.734 625.764 182.711 624.535 187.049C623.3 191.386 624.918 197.467 628.144 200.604C631.369 203.741 634.996 202.764 636.225 198.426C637.46 194.089 635.841 188.008 632.616 184.871Z" fill="#F8951D"/>
<path d="M649.827 210.552C655.274 210.552 659.689 207.886 659.689 204.598C659.689 201.309 655.274 198.643 649.827 198.643C644.381 198.643 639.966 201.309 639.966 204.598C639.966 207.886 644.381 210.552 649.827 210.552Z" fill="#F8951D"/>
<path d="M641.758 246.422C637.915 248.745 637.915 252.521 641.758 254.844C645.601 257.166 651.859 257.166 655.702 254.844C659.545 252.521 659.545 248.745 655.702 246.422C651.859 244.099 645.601 244.099 641.758 246.422Z" fill="#F8951D"/>
<path d="M610.927 281.122C616.373 281.122 620.789 278.456 620.789 275.168C620.789 271.879 616.373 269.213 610.927 269.213C605.481 269.213 601.065 271.879 601.065 275.168C601.065 278.456 605.481 281.122 610.927 281.122Z" fill="#663500"/>
<path d="M669.552 316.407C674.998 316.407 679.414 313.741 679.414 310.453C679.414 307.164 674.998 304.498 669.552 304.498C664.106 304.498 659.69 307.164 659.69 310.453C659.69 313.741 664.106 316.407 669.552 316.407Z" fill="#663500"/>
<path d="M525.883 294.388C522.04 296.71 522.04 300.487 525.883 302.809C529.726 305.132 535.984 305.132 539.827 302.809C543.67 300.487 543.67 296.71 539.827 294.388C535.984 292.065 529.726 292.065 525.883 294.388Z" fill="#663500"/>
<path d="M564.785 341.527C560.943 343.849 560.943 347.626 564.785 349.948C568.628 352.271 574.887 352.271 578.729 349.948C582.572 347.626 582.572 343.849 578.729 341.527C574.887 339.204 568.628 339.204 564.785 341.527Z" fill="#663500"/>
<path d="M547.92 178.018C553.367 178.018 557.782 175.352 557.782 172.063C557.782 168.775 553.367 166.109 547.92 166.109C542.474 166.109 538.059 168.775 538.059 172.063C538.059 175.352 542.474 178.018 547.92 178.018Z" fill="#F8951D"/>
<path d="M553.673 284.367L550.858 289.097L590.067 312.72L592.882 307.99L553.673 284.367Z" fill="#F8951D"/>
<path d="M670.947 190.455L668.095 195.163L687.417 207.018L690.27 202.31L670.947 190.455Z" fill="#F8951D"/>
<path d="M593.507 145.706L589.263 145.714L589.386 216.676L593.63 216.668L593.507 145.706Z" fill="#663500"/>
<path d="M611.914 273.222L609.719 276.877L629.13 288.679L631.324 285.023L611.914 273.222Z" fill="#663500"/>
<path d="M670.336 308.468L668.152 312.13L707.135 335.664L709.318 332.001L670.336 308.468Z" fill="#663500"/>
<path d="M492.692 249.308L473.09 261.142L475.909 265.87L495.51 254.037L492.692 249.308Z" fill="#663500"/>
<path d="M531.472 296.213L473.197 331.56L476.026 336.282L534.3 300.935L531.472 296.213Z" fill="#663500"/>
<path d="M573.251 343.172L570.433 347.901L628.801 383.137L631.62 378.409L573.251 343.172Z" fill="#663500"/>
<path d="M633.001 193.027H627.521V239.967H633.001V193.027Z" fill="#F8951D"/>
<path d="M686.039 228.084L685.97 251.635L691.449 251.651L691.518 228.1L686.039 228.084Z" fill="#663500"/>
<path d="M648.441 225.659L589.953 260.883L592.767 265.614L651.254 230.39L648.441 225.659Z" fill="#663500"/>
<path d="M653.664 231.696C651.458 231.696 649.252 231.177 647.537 230.14C645.559 228.945 644.42 227.166 644.42 225.265C644.42 223.365 645.553 221.592 647.537 220.391C650.972 218.316 656.356 218.316 659.791 220.391C661.769 221.585 662.908 223.365 662.908 225.265C662.908 227.166 661.775 228.939 659.791 230.14C658.07 231.177 655.87 231.696 653.664 231.696ZM653.664 223.106C652.219 223.106 650.769 223.425 649.719 224.059C648.94 224.529 648.664 225.006 648.664 225.271C648.664 225.537 648.94 226.013 649.719 226.484C651.818 227.751 655.504 227.751 657.609 226.484C658.388 226.013 658.664 225.537 658.664 225.271C658.664 225.006 658.388 224.529 657.609 224.059C656.56 223.425 655.109 223.106 653.664 223.106Z" fill="#663500"/>
<path d="M584.507 259.103C580.664 261.425 580.664 265.202 584.507 267.524C588.35 269.847 594.608 269.847 598.451 267.524C602.294 265.202 602.294 261.425 598.451 259.103C594.608 256.78 588.35 256.78 584.507 259.103Z" fill="#663500"/>
<path d="M512.149 359.781L471.875 335.464V211.481L513.677 236.667L590.064 190.379L592.894 195.102L513.683 243.098L477.354 221.211V332.345L514.966 355.052L512.149 359.781Z" fill="#F8951D"/>
<path d="M584.507 188.533C580.664 190.855 580.664 194.632 584.507 196.954C588.35 199.277 594.608 199.277 598.451 196.954C602.294 194.632 602.294 190.855 598.451 188.533C594.608 186.21 588.35 186.21 584.507 188.533Z" fill="#F8951D"/>
<path d="M651.262 206.956L648.438 202.227L664.145 192.743L591.373 148.982L573.388 159.926L570.553 155.208L591.355 142.546L674.81 192.737L651.262 206.956Z" fill="#F8951D"/>
<path d="M516.298 263.368H510.818V310.392H516.298V263.368Z" fill="#F8951D"/>
<path d="M514.3 325.661C512.838 325.661 511.339 324.991 510.038 323.73C507.155 320.925 505.764 315.695 506.867 311.816C507.502 309.584 508.911 308.015 510.739 307.527C512.562 307.038 514.564 307.677 516.225 309.294C519.108 312.099 520.499 317.33 519.396 321.209C518.761 323.441 517.352 325.009 515.523 325.498C515.122 325.607 514.714 325.661 514.3 325.661ZM511.962 311.635C511.914 311.635 511.873 311.635 511.837 311.653C511.585 311.719 511.201 312.111 510.949 312.992C510.278 315.363 511.231 318.946 512.994 320.66C513.647 321.293 514.175 321.444 514.426 321.372C514.678 321.305 515.062 320.913 515.314 320.032C515.985 317.662 515.032 314.078 513.269 312.365C512.712 311.822 512.244 311.635 511.962 311.635Z" fill="#F8951D"/>
<path d="M515.369 255.441C512.143 252.304 508.516 253.281 507.288 257.618C506.053 261.956 507.671 268.037 510.896 271.174C514.122 274.311 517.749 273.334 518.978 268.996C520.207 264.659 518.594 258.578 515.369 255.441Z" fill="#F8951D"/>
<path d="M594.226 409.334L549.756 382.488V333.901H555.235V379.363L588.735 399.591L588.621 286.931L594.1 286.925L594.226 409.334Z" fill="#F8951D"/>
<path d="M606.503 384.733C609.728 381.596 613.355 382.573 614.584 386.91C615.813 391.248 614.2 397.329 610.975 400.466C607.75 403.603 604.123 402.625 602.894 398.288C601.659 393.95 603.278 387.87 606.503 384.733Z" fill="#F8951D"/>
<path d="M493.361 244.691C496.587 241.554 500.213 242.531 501.442 246.868C502.677 251.206 501.059 257.287 497.834 260.424C494.608 263.561 490.981 262.583 489.752 258.246C488.517 253.908 490.136 247.828 493.361 244.691Z" fill="#663500"/>
<path d="M648.436 366.866L609.494 390.375L612.313 395.103L651.254 371.595L648.436 366.866Z" fill="#F8951D"/>
<path d="M691.469 298.671H685.989V345.695H691.469V298.671Z" fill="#F8951D"/>
<path d="M686.493 284.94C689.718 281.803 693.345 282.781 694.574 287.118C695.809 291.456 694.191 297.536 690.965 300.673C687.74 303.81 684.113 302.833 682.884 298.496C681.649 294.158 683.268 288.077 686.493 284.94Z" fill="#F8951D"/>
<path d="M647.112 374.043V303.503L631.789 312.757L628.972 308.027L652.592 293.766V364.3L705.52 332.345V221.217L651.279 253.963L648.461 249.239L711 211.475V335.464L647.112 374.043Z" fill="#F8951D"/>
<path d="M499.604 401.919L566.057 361.796" stroke="#DEC188" stroke-width="14.07" stroke-miterlimit="10" stroke-linecap="round"/>
<path d="M86.4435 165.317L47.3486 188.732L50.151 193.47L89.2458 170.055L86.4435 165.317Z" fill="#F8951D"/>
<path d="M87.8614 264.918L66.9033 252.364L69.7089 247.629L87.8495 258.493L125.425 235.805L128.243 240.534L87.8614 264.918Z" fill="#F8951D"/>
<path d="M130.671 241.614C128.465 241.614 126.259 241.095 124.544 240.057C122.566 238.863 121.427 237.083 121.427 235.183C121.427 233.283 122.56 231.509 124.544 230.309C127.979 228.233 133.363 228.233 136.798 230.309C138.776 231.503 139.915 233.283 139.915 235.183C139.915 237.083 138.782 238.857 136.798 240.057C135.077 241.095 132.877 241.614 130.671 241.614ZM130.671 233.023C129.226 233.023 127.775 233.343 126.726 233.976C125.947 234.447 125.671 234.924 125.671 235.189C125.671 235.454 125.947 235.931 126.726 236.402C128.83 237.668 132.511 237.668 134.616 236.402C135.395 235.931 135.671 235.454 135.671 235.189C135.671 234.924 135.395 234.447 134.616 233.976C133.566 233.343 132.116 233.023 130.671 233.023Z" fill="#F8951D"/>
<path d="M170.117 294.538C167.911 294.538 165.705 294.02 163.99 292.982C162.012 291.787 160.873 290.008 160.873 288.108C160.873 286.207 162.006 284.434 163.99 283.233C167.425 281.158 172.809 281.158 176.244 283.233C178.222 284.428 179.361 286.207 179.361 288.108C179.361 290.008 178.228 291.781 176.244 292.982C174.523 294.02 172.323 294.538 170.117 294.538ZM170.117 285.948C168.672 285.948 167.222 286.268 166.173 286.901C165.393 287.372 165.117 287.848 165.117 288.114C165.117 288.379 165.393 288.856 166.173 289.326C168.271 290.593 171.958 290.593 174.062 289.326C174.841 288.856 175.117 288.379 175.117 288.114C175.117 287.848 174.841 287.372 174.062 286.901C173.013 286.268 171.562 285.948 170.117 285.948Z" fill="#663500"/>
<path d="M43.5595 200.26C41.3534 200.26 39.1473 199.741 37.4328 198.704C35.4544 197.509 34.3154 195.73 34.3154 193.829C34.3154 191.929 35.4485 190.155 37.4328 188.955C40.8678 186.88 46.2513 186.88 49.6863 188.955C51.6646 190.149 52.8037 191.929 52.8037 193.829C52.8037 195.73 51.6706 197.503 49.6863 198.704C47.9658 199.741 45.7657 200.26 43.5595 200.26ZM43.5595 191.67C42.1148 191.67 40.664 191.989 39.6149 192.623C38.8356 193.093 38.5598 193.57 38.5598 193.835C38.5598 194.101 38.8356 194.577 39.6149 195.048C41.7191 196.315 45.4 196.315 47.5042 195.048C48.2835 194.577 48.5593 194.101 48.5593 193.835C48.5593 193.57 48.2835 193.093 47.5042 192.623C46.4551 191.989 45.0043 191.67 43.5595 191.67Z" fill="#F8951D"/>
<path d="M101.631 165.253C99.4247 165.253 97.2186 164.734 95.5041 163.696C93.5258 162.502 92.3867 160.722 92.3867 158.822C92.3867 156.921 93.5198 155.148 95.5041 153.947C98.9391 151.872 104.323 151.872 107.758 153.947C109.736 155.142 110.875 156.921 110.875 158.822C110.875 160.722 109.742 162.496 107.758 163.696C106.037 164.734 103.837 165.253 101.631 165.253ZM101.631 156.662C100.186 156.662 98.7353 156.982 97.6862 157.615C96.9069 158.086 96.6311 158.562 96.6311 158.828C96.6311 159.093 96.9069 159.57 97.6862 160.04C99.7904 161.307 103.471 161.307 105.575 160.04C106.355 159.57 106.631 159.093 106.631 158.828C106.631 158.562 106.355 158.086 105.575 157.615C104.526 156.982 103.076 156.662 101.631 156.662Z" fill="#F8951D"/>
<path d="M228.742 211.837C226.536 211.837 224.33 211.318 222.615 210.28C220.637 209.086 219.498 207.306 219.498 205.406C219.498 203.506 220.631 201.732 222.615 200.532C226.05 198.456 231.434 198.456 234.869 200.532C236.847 201.726 237.986 203.506 237.986 205.406C237.986 207.306 236.853 209.08 234.869 210.28C233.148 211.318 230.948 211.837 228.742 211.837ZM228.742 203.246C227.297 203.246 225.847 203.566 224.798 204.199C224.018 204.67 223.742 205.147 223.742 205.412C223.742 205.677 224.018 206.154 224.798 206.625C226.896 207.891 230.583 207.891 232.687 206.625C233.466 206.154 233.742 205.677 233.742 205.412C233.742 205.147 233.466 204.67 232.687 204.199C231.638 203.566 230.187 203.246 228.742 203.246Z" fill="#F8951D"/>
<path d="M64.3799 253.74C62.1738 253.74 59.9676 253.221 58.2531 252.183C56.2748 250.989 55.1357 249.209 55.1357 247.309C55.1357 245.408 56.2688 243.635 58.2531 242.434C61.6882 240.359 67.0716 240.359 70.5066 242.434C72.485 243.629 73.624 245.408 73.624 247.309C73.624 249.209 72.4909 250.983 70.5066 252.183C68.7861 253.221 66.586 253.74 64.3799 253.74ZM64.3799 245.149C62.9351 245.149 61.4843 245.469 60.4352 246.102C59.6559 246.573 59.3801 247.049 59.3801 247.315C59.3801 247.58 59.6559 248.057 60.4352 248.527C62.5394 249.794 66.2203 249.794 68.3245 248.527C69.1039 248.057 69.3796 247.58 69.3796 247.315C69.3796 247.049 69.1039 246.573 68.3245 246.102C67.2754 245.469 65.8246 245.149 64.3799 245.149Z" fill="#F8951D"/>
<path d="M84.7204 291.745C83.2576 291.745 81.7589 291.076 80.458 289.815C77.5745 287.01 76.1837 281.779 77.2867 277.9C77.9222 275.668 79.331 274.1 81.1594 273.611C82.9819 273.122 84.9842 273.762 86.6448 275.379C89.5283 278.184 90.9191 283.414 89.8161 287.293C89.1806 289.525 87.7718 291.094 85.9433 291.582C85.5417 291.691 85.134 291.745 84.7204 291.745ZM82.3824 277.719C82.3344 277.719 82.2925 277.719 82.2565 277.737C82.0047 277.804 81.621 278.196 81.3692 279.077C80.6978 281.448 81.651 285.031 83.4135 286.744C84.067 287.378 84.5945 287.528 84.8463 287.456C85.0981 287.39 85.4818 286.998 85.7335 286.117C86.405 283.746 85.4518 280.163 83.6893 278.449C83.1318 277.906 82.6641 277.719 82.3824 277.719Z" fill="#F8951D"/>
<path d="M126.636 288.711C125.174 288.711 123.675 288.041 122.374 286.78C119.49 283.975 118.1 278.745 119.203 274.866C119.838 272.634 121.247 271.065 123.075 270.577C124.898 270.082 126.9 270.727 128.561 272.344C131.444 275.149 132.835 280.38 131.732 284.259C131.097 286.491 129.688 288.059 127.859 288.548C127.458 288.656 127.05 288.711 126.636 288.711ZM124.298 274.685C124.25 274.685 124.208 274.685 124.172 274.703C123.921 274.769 123.537 275.161 123.285 276.042C122.614 278.413 123.567 281.996 125.33 283.71C125.983 284.343 126.511 284.494 126.762 284.421C127.014 284.355 127.398 283.963 127.65 283.082C128.321 280.711 127.368 277.128 125.605 275.415C125.048 274.872 124.58 274.685 124.298 274.685Z" fill="#F8951D"/>
<path d="M159.908 320.141C159.494 320.141 159.087 320.087 158.685 319.978C156.862 319.483 155.448 317.921 154.818 315.689C153.715 311.81 155.112 306.579 157.99 303.774C159.65 302.158 161.646 301.512 163.475 302.007C165.297 302.501 166.712 304.064 167.348 306.296C168.451 310.175 167.054 315.405 164.176 318.21C162.881 319.471 161.383 320.141 159.914 320.141H159.908ZM162.246 306.115C161.964 306.115 161.497 306.302 160.939 306.845C159.177 308.558 158.223 312.142 158.895 314.512C159.147 315.393 159.53 315.785 159.782 315.852C160.034 315.918 160.561 315.773 161.215 315.14C162.977 313.427 163.93 309.843 163.259 307.472C163.007 306.592 162.624 306.199 162.372 306.133C162.336 306.121 162.294 306.115 162.246 306.115Z" fill="#F8951D"/>
<path d="M222.914 265.002C222.5 265.002 222.093 264.948 221.691 264.839C219.868 264.345 218.454 262.782 217.818 260.55C216.715 256.671 218.112 251.441 220.989 248.636C222.65 247.019 224.646 246.374 226.475 246.868C228.297 247.363 229.712 248.925 230.348 251.157C231.451 255.036 230.054 260.267 227.176 263.072C225.881 264.333 224.383 265.002 222.914 265.002ZM225.252 250.976C224.97 250.976 224.502 251.163 223.945 251.706C222.182 253.42 221.229 257.003 221.901 259.374C222.153 260.255 222.536 260.647 222.788 260.713C223.04 260.779 223.567 260.635 224.221 260.001C225.983 258.288 226.936 254.705 226.265 252.334C226.013 251.453 225.63 251.061 225.378 250.995C225.342 250.982 225.3 250.976 225.252 250.976Z" fill="#663500"/>
<path d="M88.8327 335.578C87.3699 335.578 85.8712 334.909 84.5703 333.648C81.6868 330.843 80.296 325.612 81.399 321.733C82.0345 319.501 83.4433 317.933 85.2717 317.444C87.0942 316.95 89.0965 317.595 90.757 319.212C93.6406 322.017 95.0314 327.247 93.9283 331.126C93.2929 333.358 91.8841 334.927 90.0557 335.416C89.654 335.524 89.2463 335.578 88.8327 335.578ZM86.4947 321.559C86.4467 321.559 86.4047 321.559 86.3688 321.577C86.117 321.643 85.7333 322.035 85.4815 322.916C84.8101 325.287 85.7633 328.87 87.5258 330.583C88.1792 331.217 88.7068 331.368 88.9586 331.295C89.2104 331.229 89.594 330.837 89.8458 329.956C90.5172 327.585 89.5641 324.002 87.8016 322.288C87.244 321.746 86.7764 321.559 86.4947 321.559Z" fill="#F8951D"/>
<path d="M9.86161 220.741C15.308 220.741 19.7232 218.075 19.7232 214.787C19.7232 211.498 15.308 208.833 9.86161 208.833C4.4152 208.833 0 211.498 0 214.787C0 218.075 4.4152 220.741 9.86161 220.741Z" fill="#F8951D"/>
<path d="M124.598 207.192C127.823 204.055 131.45 205.032 132.679 209.369C133.908 213.707 132.296 219.788 129.07 222.925C125.845 226.062 122.218 225.085 120.989 220.747C119.76 216.41 121.373 210.329 124.598 207.192Z" fill="#663500"/>
<path d="M50.7231 347.782C47.4979 344.645 43.871 345.623 42.642 349.96C41.4071 354.298 43.0257 360.379 46.2509 363.516C49.4762 366.653 53.1031 365.675 54.332 361.338C55.567 357 53.9484 350.919 50.7231 347.782Z" fill="#F8951D"/>
<path d="M168.289 200.665C171.445 199.814 172.861 194.832 171.452 189.538C170.042 184.244 166.341 180.642 163.184 181.494C160.028 182.345 158.611 187.326 160.021 192.62C161.431 197.914 165.132 201.516 168.289 200.665Z" fill="#F8951D"/>
<path d="M178.21 198.722C174.367 201.044 174.367 204.821 178.21 207.143C182.053 209.466 188.312 209.466 192.154 207.143C195.997 204.821 195.997 201.044 192.154 198.722C188.312 196.399 182.053 196.399 178.21 198.722Z" fill="#F8951D"/>
<path d="M184.091 254.922C189.538 254.922 193.953 252.256 193.953 248.968C193.953 245.679 189.538 243.014 184.091 243.014C178.645 243.014 174.229 245.679 174.229 248.968C174.229 252.256 178.645 254.922 184.091 254.922Z" fill="#F8951D"/>
<path d="M139.31 269.292C135.467 271.614 135.467 275.391 139.31 277.713C143.153 280.036 149.411 280.036 153.254 277.713C157.097 275.391 157.097 271.614 153.254 269.292C149.411 266.969 143.153 266.969 139.31 269.292Z" fill="#663500"/>
<path d="M204.906 314.742C210.352 314.742 214.767 312.076 214.767 308.787C214.767 305.499 210.352 302.833 204.906 302.833C199.459 302.833 195.044 305.499 195.044 308.787C195.044 312.076 199.459 314.742 204.906 314.742Z" fill="#663500"/>
<path d="M68.2093 302.888C73.6557 302.888 78.0708 300.222 78.0708 296.933C78.0708 293.645 73.6557 290.979 68.2093 290.979C62.7629 290.979 58.3477 293.645 58.3477 296.933C58.3477 300.222 62.7629 302.888 68.2093 302.888Z" fill="#663500"/>
<path d="M107.112 350.027C112.558 350.027 116.973 347.361 116.973 344.072C116.973 340.784 112.558 338.118 107.112 338.118C101.665 338.118 97.25 340.784 97.25 344.072C97.25 347.361 101.665 350.027 107.112 350.027Z" fill="#663500"/>
<path d="M83.2815 176.359C88.7279 176.359 93.1431 173.693 93.1431 170.404C93.1431 167.116 88.7279 164.45 83.2815 164.45C77.8351 164.45 73.4199 167.116 73.4199 170.404C73.4199 173.693 77.8351 176.359 83.2815 176.359Z" fill="#F8951D"/>
<path d="M89.0295 282.704L86.2148 287.434L125.424 311.057L128.238 306.327L89.0295 282.704Z" fill="#F8951D"/>
<path d="M206.271 188.769L203.419 193.477L222.742 205.332L225.594 200.624L206.271 188.769Z" fill="#F8951D"/>
<path d="M128.86 144.073L124.615 144.081L124.738 215.043L128.983 215.035L128.86 144.073Z" fill="#663500"/>
<path d="M147.283 271.562L145.088 275.218L164.499 287.02L166.694 283.364L147.283 271.562Z" fill="#663500"/>
<path d="M205.718 306.823L203.534 310.486L242.517 334.019L244.7 330.356L205.718 306.823Z" fill="#663500"/>
<path d="M28.0344 247.609L8.43262 259.443L11.2514 264.171L30.8532 252.338L28.0344 247.609Z" fill="#663500"/>
<path d="M66.8232 294.547L8.54883 329.894L11.3775 334.616L69.6519 299.269L66.8232 294.547Z" fill="#663500"/>
<path d="M108.639 341.531L105.82 346.259L164.189 381.495L167.008 376.767L108.639 341.531Z" fill="#663500"/>
<path d="M168.354 191.368H162.875V238.308H168.354V191.368Z" fill="#F8951D"/>
<path d="M221.411 226.424L221.342 249.975L226.821 249.991L226.891 226.44L221.411 226.424Z" fill="#663500"/>
<path d="M183.815 224.033L125.328 259.258L128.142 263.989L186.629 228.764L183.815 224.033Z" fill="#663500"/>
<path d="M189.02 230.031C186.813 230.031 184.607 229.512 182.893 228.475C180.914 227.28 179.775 225.501 179.775 223.6C179.775 221.7 180.908 219.926 182.893 218.726C186.328 216.651 191.711 216.651 195.146 218.726C197.125 219.92 198.264 221.7 198.264 223.6C198.264 225.501 197.131 227.274 195.146 228.475C193.426 229.512 191.226 230.031 189.02 230.031ZM189.02 221.441C187.575 221.441 186.124 221.76 185.075 222.394C184.296 222.864 184.02 223.341 184.02 223.606C184.02 223.872 184.296 224.348 185.075 224.819C187.173 226.086 190.86 226.086 192.964 224.819C193.743 224.348 194.019 223.872 194.019 223.606C194.019 223.341 193.743 222.864 192.964 222.394C191.915 221.76 190.464 221.441 189.02 221.441Z" fill="#663500"/>
<path d="M126.833 267.603C132.28 267.603 136.695 264.937 136.695 261.648C136.695 258.36 132.28 255.694 126.833 255.694C121.387 255.694 116.972 258.36 116.972 261.648C116.972 264.937 121.387 267.603 126.833 267.603Z" fill="#663500"/>
<path d="M47.5042 358.116L7.23047 333.799V209.816L49.0329 235.002L125.426 188.714L128.249 193.437L49.0389 241.433L12.7098 219.546V330.68L50.3218 353.387L47.5042 358.116Z" fill="#F8951D"/>
<path d="M126.833 197.032C132.28 197.032 136.695 194.367 136.695 191.078C136.695 187.79 132.28 185.124 126.833 185.124C121.387 185.124 116.972 187.79 116.972 191.078C116.972 194.367 121.387 197.032 126.833 197.032Z" fill="#F8951D"/>
<path d="M186.615 205.291L183.797 200.562L199.498 191.084L126.726 147.317L108.741 158.261L105.905 153.543L126.708 140.887L210.162 191.072L186.615 205.291Z" fill="#F8951D"/>
<path d="M51.6512 261.703H46.1719V308.727H51.6512V261.703Z" fill="#F8951D"/>
<path d="M49.6559 323.996C48.1932 323.996 46.6944 323.326 45.3936 322.065C42.51 319.26 41.1192 314.03 42.2223 310.151C42.8577 307.919 44.2665 306.35 46.095 305.861C47.9174 305.373 49.9197 306.012 51.5803 307.629C54.4638 310.434 55.8547 315.665 54.7516 319.544C54.1161 321.776 52.7073 323.344 50.8789 323.833C50.4772 323.941 50.0696 323.996 49.6559 323.996ZM47.3179 309.97C47.27 309.97 47.228 309.97 47.192 309.988C46.9402 310.054 46.5566 310.446 46.3048 311.327C45.6334 313.698 46.5866 317.281 48.3491 318.995C49.0025 319.628 49.53 319.779 49.7818 319.706C50.0336 319.64 50.4173 319.248 50.6691 318.367C51.3405 315.996 50.3873 312.413 48.6248 310.7C48.0673 310.157 47.5997 309.97 47.3179 309.97Z" fill="#F8951D"/>
<path d="M50.7231 253.782C47.4979 250.645 43.871 251.622 42.642 255.959C41.4071 260.297 43.0257 266.378 46.2509 269.515C49.4762 272.652 53.1031 271.674 54.332 267.337C55.567 262.999 53.9484 256.919 50.7231 253.782Z" fill="#F8951D"/>
<path d="M129.58 407.668L85.1162 380.823V332.242H90.5956V377.704L124.089 397.926L123.981 285.266L129.454 285.26L129.58 407.668Z" fill="#F8951D"/>
<path d="M149.807 392.475C151.217 387.181 149.801 382.2 146.644 381.349C143.488 380.498 139.786 384.099 138.377 389.393C136.967 394.687 138.383 399.669 141.54 400.52C144.696 401.371 148.398 397.769 149.807 392.475Z" fill="#F8951D"/>
<path d="M28.7221 243.025C31.9474 239.888 35.5743 240.866 36.8032 245.203C38.0382 249.541 36.4196 255.622 33.1943 258.759C29.969 261.896 26.3421 260.918 25.1132 256.581C23.8842 252.243 25.4969 246.162 28.7221 243.025Z" fill="#663500"/>
<path d="M183.77 365.189L144.828 388.698L147.647 393.426L186.588 369.917L183.77 365.189Z" fill="#F8951D"/>
<path d="M226.829 297.005H221.35V344.03H226.829V297.005Z" fill="#F8951D"/>
<path d="M221.848 283.275C225.073 280.138 228.7 281.116 229.929 285.453C231.164 289.791 229.545 295.871 226.32 299.008C223.095 302.145 219.468 301.168 218.239 296.831C217.004 292.493 218.622 286.412 221.848 283.275Z" fill="#F8951D"/>
<path d="M182.466 372.378V301.844L167.143 311.092L164.325 306.362L187.945 292.101V362.641L240.874 330.68V219.552L186.632 252.298L183.815 247.574L246.353 209.816V333.799L182.466 372.378Z" fill="#F8951D"/>
<path d="M219.623 387.025L153.176 346.902" stroke="#DEC188" stroke-width="14.07" stroke-miterlimit="10" stroke-linecap="round"/>
</svg>
