<svg width="662" height="245" viewBox="0 0 662 245" fill="none" xmlns="http://www.w3.org/2000/svg">
<path style="mix-blend-mode:screen" d="M339.604 244.949L339.546 215.917C347.184 215.917 354.881 215.77 362.411 215.485L371.48 244.284C360.983 244.722 350.25 244.947 339.601 244.949H339.604ZM331.611 244.909C326.302 244.856 320.936 244.746 315.662 244.583L322.367 215.68C326.152 215.786 330.003 215.856 333.809 215.891L331.611 244.909ZM307.722 244.297C286.642 243.424 266.011 241.669 246.569 239.112L272.653 212.124C286.734 213.791 301.572 214.929 316.675 215.493L307.719 244.297H307.722ZM379.378 243.913L368.076 215.244C383.078 214.534 397.763 213.251 411.643 211.451L439.796 238.081C420.681 240.841 400.302 242.812 379.378 243.913ZM239.369 238.121C229.94 236.764 220.714 235.202 211.962 233.479L247.338 208.43C253.789 209.565 260.55 210.591 267.424 211.478L239.372 238.121H239.369ZM446.855 237.018L416.788 210.756C420.168 210.281 423.546 209.765 426.825 209.228L460.548 234.691C456.089 235.509 451.481 236.294 446.855 237.018ZM467.147 233.433L431.689 208.398C438.077 207.273 444.306 206.015 450.196 204.668L491.967 227.813C484.13 229.838 475.778 231.729 467.15 233.433H467.147ZM205.477 232.156C201.245 231.264 197.056 230.316 193.025 229.341L233.257 205.689C236.275 206.335 239.396 206.966 242.535 207.556L205.477 232.156ZM187.061 227.853C171.694 223.891 157.964 219.345 146.255 214.397L197.299 195.589C206.556 198.965 217.149 202.04 228.776 204.695L187.063 227.853H187.061ZM497.717 226.282L454.539 203.645C465.849 200.894 476.095 197.739 484.987 194.298L536.918 212.519C525.767 217.544 512.579 222.192 497.72 226.282H497.717ZM142.039 212.56C136.624 210.123 131.631 207.572 127.193 204.981L181.818 189.068C185.511 190.874 189.586 192.645 193.935 194.328L142.039 212.56ZM540.922 210.658L488.209 193.016C490.301 192.159 492.335 191.272 494.26 190.385L548.333 206.867C545.998 208.144 543.506 209.421 540.925 210.66L540.922 210.658ZM551.734 204.941L497.08 189.041C500.714 187.259 504.054 185.4 507.014 183.522L563.369 197.106C559.995 199.759 556.083 202.398 551.734 204.941ZM123.982 203.042C121.927 201.754 119.967 200.437 118.155 199.123L174.156 184.952C175.722 185.878 177.393 186.805 179.128 187.711L123.984 203.042H123.982ZM115.537 197.151C108.945 191.985 104.208 186.632 101.354 181.268L158.435 172.119C161.556 176.021 166.057 179.873 171.873 183.554L115.539 197.151H115.537ZM565.792 195.124L509.159 182.115C514.605 178.407 518.739 174.541 521.503 170.641L578.464 179.251C576.091 184.594 571.862 189.944 565.792 195.127V195.124ZM100.392 179.302C99.2359 176.716 98.5006 174.098 98.1964 171.523L154.24 164.933C154.951 166.845 155.993 168.779 157.347 170.681L100.392 179.304V179.302ZM579.255 177.282L522.463 169.196C523.056 168.24 523.577 167.273 524.008 166.314L580.337 173.385C580.083 174.675 579.72 175.987 579.255 177.282ZM580.638 171.451L524.598 164.877C525.29 162.993 525.679 161.086 525.761 159.208L580.31 163.894C580.813 166.386 580.926 168.926 580.638 171.451ZM98.0457 169.605C97.998 168.347 98.0483 167.075 98.199 165.825L153.176 160.664C153.295 161.604 153.496 162.558 153.769 163.501L98.0457 169.605ZM98.4926 163.96C99.4448 159.139 101.87 154.365 105.605 149.768L155.911 148.362C153.859 151.926 152.875 155.594 153.049 159.256L98.49 163.958L98.4926 163.96ZM579.866 162.048L525.767 157.811C525.637 154.173 524.367 150.537 522.051 147.011L571.717 148.039C575.761 152.567 578.535 157.282 579.866 162.05V162.048ZM107.03 148.095C108.504 146.439 110.17 144.783 111.982 143.169C112.55 142.662 113.143 142.152 113.741 141.652L160.823 141.965C160.442 142.363 160.066 142.769 159.709 143.169C158.577 144.446 157.57 145.753 156.721 147.054L107.033 148.093L107.03 148.095ZM570.183 146.388L521.151 145.715C520.53 144.866 519.834 144.011 519.088 143.169C518.697 142.726 518.279 142.28 517.85 141.839L564.864 141.495C565.533 142.05 566.192 142.614 566.816 143.172C568.003 144.23 569.138 145.312 570.183 146.388ZM162.055 140.731L115.656 140.105C116.952 139.088 118.332 138.073 119.753 137.081L164.761 138.316C163.812 139.109 162.902 139.921 162.058 140.731H162.055ZM516.607 140.608C513.24 137.397 508.977 134.295 503.972 131.384L544.524 128.491C551.565 132.083 557.778 135.933 562.938 139.95L516.607 140.608ZM166.224 137.132L121.927 135.607C127.73 131.784 134.524 128.135 142.081 124.745L180.451 128.325C174.963 131.095 170.165 134.055 166.224 137.132ZM502.081 130.31C500.812 129.607 499.476 128.905 498.119 128.223L536.41 124.62C538.274 125.453 540.115 126.311 541.882 127.174L502.081 130.31ZM182.522 127.305L144.911 123.503C148.664 121.89 152.655 120.308 156.771 118.807L191.337 123.426C188.248 124.673 185.28 125.977 182.522 127.307V127.305ZM496.048 127.206C493.279 125.878 490.303 124.577 487.209 123.332L521.699 118.695C525.817 120.193 529.816 121.77 533.577 123.38L496.048 127.206ZM193.678 122.499L159.873 117.693C161.936 116.969 164.071 116.248 166.213 115.551L198.497 120.712C196.86 121.294 195.239 121.895 193.678 122.501V122.499ZM484.879 122.416C478.674 120.025 471.834 117.787 464.55 115.751L492.263 109.666C501.576 112.073 510.442 114.733 518.609 117.592L484.879 122.413V122.416ZM200.981 119.843L169.453 114.517C177.967 111.851 187.124 109.388 196.669 107.176L222.238 113.63C214.695 115.513 207.54 117.6 200.981 119.843ZM461.836 115.006C460.024 114.52 458.16 114.036 456.295 113.574L481.797 107.109C484.149 107.652 486.508 108.218 488.806 108.79L461.834 115.006H461.836ZM225.057 112.941L200.219 106.369C204.919 105.322 209.783 104.318 214.679 103.383L236.621 110.379C232.688 111.183 228.8 112.043 225.057 112.941ZM453.478 112.885C449.73 111.99 445.834 111.13 441.901 110.328L463.778 103.324C468.676 104.256 473.543 105.258 478.248 106.303L453.478 112.885ZM239.578 109.786L218.353 102.694C220.791 102.248 223.288 101.807 225.766 101.387L245.566 108.659C243.559 109.019 241.543 109.399 239.575 109.786H239.578ZM438.936 109.738C431.084 108.205 422.845 106.85 414.431 105.704L429.946 97.9815C440.235 99.3011 450.368 100.864 460.096 102.64L438.934 109.741L438.936 109.738ZM248.595 108.124L229.501 100.77C239.398 99.1702 249.663 97.7838 260.044 96.6378L273.544 104.534C265.02 105.531 256.633 106.735 248.595 108.122V108.124ZM411.276 105.285C409.184 105.015 407.044 104.751 404.923 104.505L418.354 96.603C420.938 96.8862 423.543 97.1881 426.098 97.5006L411.276 105.287V105.285ZM276.729 104.176L263.919 96.2264C269.072 95.6895 274.335 95.2033 279.569 94.7812L289.631 102.915C285.309 103.284 280.968 103.709 276.731 104.179L276.729 104.176ZM401.717 104.144C397.477 103.679 393.134 103.257 388.81 102.889L398.797 94.7518C404.037 95.1712 409.303 95.6574 414.458 96.189L401.717 104.144ZM292.881 102.646L283.505 94.474C286.115 94.279 288.774 94.092 291.405 93.9237L299.419 102.165C297.24 102.312 295.042 102.475 292.881 102.646ZM385.541 102.619C376.908 101.938 368.053 101.446 359.195 101.158L363.096 92.7751C373.744 93.1036 384.411 93.6646 394.84 94.442L385.541 102.619ZM302.699 101.951L295.365 93.6806C305.844 93.0689 316.54 92.6736 327.204 92.5053L329.193 100.92C320.301 101.067 311.398 101.414 302.699 101.951ZM355.873 101.059C353.667 101 351.429 100.949 349.215 100.915L351.133 92.4999C353.783 92.54 356.465 92.596 359.107 92.6628L355.873 101.059ZM332.526 100.875L331.193 92.4545C336.475 92.3984 341.86 92.3984 347.142 92.4519L345.88 100.872C341.458 100.824 336.946 100.826 332.526 100.875Z" fill="url(#paint0_radial_1428_1715)"/>
<g style="mix-blend-mode:screen">
<g style="mix-blend-mode:screen">
<path d="M339.611 197.362H339.46C334.416 197.362 329.309 197.325 324.283 197.248L325.939 185.51C330.412 185.574 334.958 185.606 339.452 185.606H339.595L339.608 197.362H339.611ZM354.951 197.245L353.243 185.507C357.773 185.44 362.349 185.339 366.843 185.205L370.226 196.892C365.176 197.047 360.037 197.167 354.951 197.245ZM309.006 196.903C303.957 196.748 298.855 196.553 293.846 196.323L298.842 184.722C303.304 184.919 307.848 185.085 312.344 185.216L309.006 196.903ZM385.386 196.307L380.337 184.706C384.794 184.508 389.288 184.273 393.686 184.011L400.37 195.493C395.432 195.8 390.39 196.075 385.386 196.307ZM278.852 195.511C273.906 195.204 268.938 194.854 264.093 194.475L272.337 183.143C276.659 183.469 281.086 183.765 285.496 184.027L278.854 195.511H278.852ZM415.123 194.451L406.837 183.124C411.153 182.798 415.496 182.435 419.749 182.045L429.591 193.19C424.833 193.647 419.963 194.071 415.123 194.453V194.451ZM249.617 193.217C244.877 192.765 240.122 192.268 235.483 191.745L246.782 180.811C250.932 181.26 255.182 181.682 259.417 182.069L249.62 193.217H249.617ZM443.715 191.713L432.373 180.784C436.502 180.338 440.641 179.855 444.678 179.347L457.453 190.035C452.953 190.628 448.33 191.192 443.715 191.715V191.713ZM221.732 190.07C217.238 189.482 212.747 188.849 208.378 188.195L222.478 177.771C226.403 178.335 230.436 178.874 234.464 179.379L221.732 190.072V190.07ZM470.754 188.16L456.617 177.742C460.513 177.181 464.398 176.588 468.162 175.976L483.576 186.106C479.4 186.819 475.084 187.511 470.751 188.162L470.754 188.16ZM195.507 186.135C191.331 185.424 187.173 184.674 183.153 183.904L199.742 174.085C203.376 174.747 207.126 175.394 210.893 176.003L195.507 186.135ZM495.857 183.88L479.249 174.063C482.841 173.409 486.417 172.717 489.882 172.012L507.603 181.5C503.784 182.318 499.832 183.119 495.857 183.88ZM171.349 181.511C167.543 180.696 163.766 179.844 160.124 178.976L178.847 169.832C182.164 170.583 185.597 171.32 189.054 172.022L171.349 181.511ZM518.778 178.973L500.041 169.829C503.318 169.089 506.569 168.315 509.706 167.529L529.371 176.315C525.94 177.223 522.377 178.118 518.778 178.976V178.973ZM149.491 176.307C146.087 175.407 142.717 174.469 139.477 173.521L159.97 165.106C162.946 165.929 166.035 166.744 169.151 167.524L149.494 176.307H149.491ZM539.355 173.534L518.854 165.117C521.79 164.305 524.692 163.461 527.477 162.609L548.721 170.647C545.703 171.624 542.55 172.597 539.355 173.532V173.534ZM130.09 170.625C127.096 169.656 124.153 168.651 121.341 167.641L143.233 159.988C145.844 160.87 148.568 161.746 151.332 162.59L130.093 170.625H130.09ZM557.457 167.671L535.565 160.015C538.144 159.144 540.68 158.246 543.103 157.343L565.558 164.612C562.961 165.646 560.237 166.674 557.457 167.671ZM113.229 164.577C110.658 163.554 108.146 162.502 105.762 161.447L128.691 154.568C130.932 155.492 133.283 156.414 135.685 157.311L113.232 164.577H113.229ZM573.02 161.487L550.091 154.605C552.307 153.692 554.474 152.751 556.526 151.811L579.849 158.305C577.677 159.376 575.379 160.445 573.02 161.487ZM98.9359 158.262C96.7856 157.202 94.7014 156.115 92.7442 155.035L116.374 148.932C118.241 149.885 120.22 150.841 122.256 151.774L98.9359 158.262ZM586.046 155.076L562.414 148.966C564.268 148.021 566.064 147.054 567.751 146.089L591.616 151.814C589.863 152.904 587.99 154.002 586.046 155.073V155.076ZM87.1819 151.774C85.4468 150.692 83.7805 149.589 82.2332 148.491L106.254 143.148C107.759 144.118 109.37 145.095 111.042 146.052L87.1793 151.774H87.1819ZM596.573 148.531L572.546 143.183C574.046 142.216 575.48 141.23 576.805 140.258L600.921 145.234C599.575 146.332 598.112 147.441 596.573 148.531ZM77.893 145.197C76.5599 144.11 75.2983 143.001 74.1424 141.901L98.28 137.293C99.4385 138.273 100.69 139.259 102.004 140.226L77.893 145.197ZM604.679 141.933L580.537 137.322C581.684 136.35 582.769 135.361 583.753 134.384L607.861 138.639C606.896 139.734 605.827 140.843 604.679 141.935V141.933ZM70.9685 138.612C70.0137 137.528 69.1356 136.427 68.3553 135.337L92.366 131.432C93.1859 132.407 94.0957 133.392 95.0717 134.362L70.9685 138.615V138.612ZM610.482 135.353L586.466 131.448C587.281 130.475 588.03 129.492 588.688 128.52L612.559 132.089C611.956 133.171 611.26 134.269 610.482 135.353ZM66.2817 132.081C65.684 131.01 65.1629 129.925 64.7318 128.854L88.4065 125.614C88.9091 126.575 89.4936 127.553 90.1469 128.515L66.2791 132.081H66.2817ZM614.109 128.851L590.429 125.614C590.926 124.655 591.357 123.682 591.709 122.726L615.151 125.648C614.886 126.709 614.534 127.788 614.109 128.854V128.851ZM63.6897 125.662C63.4252 124.614 63.2374 123.554 63.1316 122.507L86.2958 119.889C86.5021 120.835 86.7825 121.794 87.129 122.737L63.6897 125.659V125.662ZM615.706 122.477L592.542 119.865C592.746 118.922 592.878 117.971 592.941 117.036L615.791 119.355C615.838 120.386 615.812 121.438 615.706 122.48V122.477ZM63.0391 119.397C63.084 118.374 63.203 117.34 63.3908 116.328L85.8991 114.29C85.8303 115.211 85.8277 116.149 85.8912 117.076L63.0391 119.397ZM615.428 116.275L592.925 114.242C592.854 113.326 592.711 112.399 592.508 111.488L614.635 113.248C614.968 114.247 615.235 115.268 615.428 116.275ZM64.1737 113.309C64.499 112.321 64.8985 111.325 65.3613 110.347L87.0946 108.843C86.7719 109.735 86.5048 110.644 86.3091 111.544L64.1764 113.309H64.1737ZM613.437 110.286L591.711 108.787C591.386 107.903 590.997 107.011 590.55 106.134L611.853 107.385C612.442 108.344 612.977 109.319 613.437 110.288V110.286ZM66.9324 107.441C67.5143 106.492 68.1649 105.536 68.8711 104.598L89.7395 103.581C89.1841 104.441 88.6816 105.317 88.2425 106.185L66.9324 107.441ZM609.906 104.542L589.045 103.53C588.492 102.678 587.874 101.82 587.21 100.979L607.613 101.767C608.433 102.68 609.205 103.615 609.906 104.545V104.542ZM71.1537 101.823C71.963 100.917 72.8411 100.004 73.7642 99.1115L93.7043 98.5345C92.9399 99.3572 92.2205 100.199 91.5672 101.032L71.1563 101.825L71.1537 101.823ZM604.992 99.0554L585.059 98.481C584.303 97.6662 583.48 96.8462 582.618 96.0394L602.069 96.4107C603.095 97.2816 604.079 98.1738 604.992 99.0554ZM76.6763 96.4642C77.6866 95.6014 78.7631 94.7358 79.8766 93.889L98.846 93.7047C97.8965 94.4901 96.984 95.2941 96.135 96.0902L76.6763 96.4642ZM598.858 93.8356L579.899 93.6566C578.958 92.8793 577.953 92.0965 576.918 91.3325L576.789 91.2364H595.245L595.385 91.3325C596.586 92.1553 597.755 92.9995 598.861 93.8383L598.858 93.8356ZM101.819 91.378H83.3468L83.4182 91.3299C84.5846 90.5285 85.8118 89.7271 87.0629 88.9417L105.04 89.1101C103.953 89.8393 102.893 90.5846 101.885 91.3299L101.819 91.378ZM573.557 88.9738C572.446 88.2339 571.279 87.4939 570.089 86.7727L587.53 86.4334C588.889 87.2081 590.225 88.0041 591.502 88.7975L573.557 88.9738ZM108.489 86.9035L91.0171 86.575C92.3607 85.803 93.7678 85.0309 95.196 84.2776L112.163 84.7612C110.904 85.4637 109.669 86.185 108.492 86.9035H108.489ZM566.399 84.6303C565.148 83.9357 563.839 83.2358 562.504 82.552L578.926 81.9108C580.431 82.6427 581.915 83.3907 583.335 84.136L566.399 84.6303ZM116.043 82.6775L99.5866 82.0471C101.073 81.3231 102.618 80.5966 104.178 79.8887L120.122 80.658C118.731 81.3205 117.358 81.999 116.041 82.6775H116.043ZM558.407 80.5378C557.021 79.8806 555.579 79.2235 554.122 78.5824L569.523 77.6715C571.15 78.3526 572.76 79.0552 574.316 79.7551L558.404 80.5351L558.407 80.5378ZM124.393 78.6999L108.96 77.797C110.571 77.1185 112.24 76.4373 113.917 75.7775L128.839 76.8033C127.332 77.423 125.835 78.0615 124.393 78.6999ZM549.665 76.6911C548.163 76.0767 546.608 75.4596 545.039 74.8612L559.422 73.7099C561.16 74.3483 562.887 75.0028 564.556 75.6573L549.665 76.6911ZM133.457 74.9707L119.043 73.8275C120.767 73.1917 122.547 72.5559 124.335 71.9388L138.242 73.1917C136.623 73.774 135.013 74.3697 133.457 74.9681V74.9707ZM540.257 73.0929C538.646 72.5159 536.988 71.9415 535.327 71.3858L548.705 70.0235C550.533 70.6138 552.358 71.2229 554.132 71.8319L540.254 73.0929H540.257ZM143.175 71.4767L129.768 70.1196C131.585 69.5293 133.457 68.9416 135.335 68.3699L148.245 69.8258C146.534 70.3654 144.831 70.9211 143.178 71.4794L143.175 71.4767ZM530.278 69.743C528.59 69.2114 526.847 68.6798 525.096 68.1616L537.49 66.6122C539.403 67.1599 541.31 67.7208 543.159 68.2845L530.275 69.743H530.278ZM153.44 68.231L141.022 66.6843C142.921 66.1394 144.873 65.5945 146.822 65.0682L158.756 66.6977C156.968 67.1972 155.18 67.7128 153.44 68.2283V68.231ZM519.796 66.6389C518.029 66.1474 516.209 65.6532 514.384 65.175L525.816 63.4627C527.799 63.9676 529.781 64.4859 531.709 65.0068L519.796 66.6389ZM164.181 65.2285L152.728 63.5188C154.696 63.0166 156.717 62.5171 158.73 62.0336L169.709 63.818C167.852 64.2775 165.993 64.753 164.181 65.2311V65.2285ZM508.864 63.7673C507.024 63.3131 505.135 62.859 503.252 62.4182L513.747 60.5617C515.786 61.0238 517.833 61.4993 519.828 61.9802L508.864 63.7673ZM175.332 62.461L164.818 60.6071C166.847 60.1476 168.923 59.6908 170.989 59.2474L181.042 61.1654C179.127 61.5875 177.204 62.0229 175.332 62.461ZM497.547 61.1253C495.65 60.7086 493.704 60.2919 491.76 59.8912L501.342 57.9117C503.437 58.3338 505.537 58.7692 507.584 59.2073L497.547 61.128V61.1253ZM186.837 59.9259L177.239 57.9464C179.318 57.527 181.444 57.1104 183.555 56.7097L192.706 58.7452C190.744 59.1298 188.768 59.5252 186.837 59.9259ZM485.893 58.7105C483.939 58.3285 481.939 57.9518 479.955 57.5859L488.652 55.4969C490.784 55.8789 492.929 56.2742 495.032 56.6722L485.896 58.7078L485.893 58.7105ZM198.644 57.6179L189.934 55.5316C192.058 55.1522 194.225 54.7756 196.375 54.4123L204.648 56.5467C202.643 56.8939 200.625 57.2546 198.644 57.6179ZM473.949 56.5173C471.949 56.1727 469.907 55.8308 467.881 55.5022L475.713 53.3198C477.879 53.6617 480.067 54.0196 482.209 54.3803L473.949 56.5173ZM210.71 55.529L202.866 53.3491C205.024 53.0072 207.224 52.6679 209.409 52.3447L216.828 54.5673C214.786 54.8771 212.728 55.2031 210.71 55.529ZM461.756 54.5405C459.719 54.2306 457.64 53.9261 455.58 53.6323L462.565 51.3697C464.766 51.6769 466.985 51.9948 469.162 52.318L461.756 54.5405ZM222.996 53.6564L215.995 51.3964C218.182 51.0918 220.415 50.79 222.626 50.5042L229.212 52.8015C227.138 53.0766 225.048 53.3652 222.996 53.659V53.6564ZM449.354 52.7748C447.283 52.4997 445.175 52.2299 443.083 51.9707L449.24 49.6387C451.467 49.9085 453.715 50.189 455.924 50.4775L449.354 52.7748ZM235.469 51.9947L229.296 49.6654C231.51 49.3982 233.764 49.1338 235.998 48.8827L241.767 51.2442C239.667 51.4872 237.548 51.7383 235.469 51.9974V51.9947ZM436.772 51.2174C434.674 50.977 432.537 50.7393 430.421 50.5149L435.769 48.124C438.02 48.3591 440.292 48.6048 442.525 48.8533L436.774 51.2147L436.772 51.2174ZM248.099 50.5416L242.735 48.1534C244.97 47.921 247.245 47.6913 249.498 47.4749L254.463 49.8898C252.341 50.0981 250.202 50.3172 248.099 50.5416ZM424.034 49.863C421.913 49.6547 419.754 49.4543 417.615 49.262L422.164 46.8231C424.433 47.0235 426.729 47.2318 428.983 47.4482L424.037 49.863H424.034ZM260.853 49.2887L256.285 46.8498C258.541 46.6521 260.832 46.4598 263.096 46.2782L267.272 48.7384C265.138 48.9121 262.979 49.0991 260.853 49.2887ZM411.164 48.7117C409.021 48.5381 406.845 48.3671 404.686 48.2095L408.447 45.7278C410.733 45.8935 413.044 46.0671 415.316 46.2487L411.164 48.7091V48.7117ZM273.712 48.2362L269.928 45.7573C272.202 45.5916 274.514 45.434 276.799 45.2871L280.192 47.7847C278.037 47.9263 275.855 48.0813 273.71 48.2389L273.712 48.2362ZM398.188 47.7581C396.029 47.6165 393.834 47.4803 391.663 47.3547L394.643 44.841C396.942 44.9719 399.267 45.1134 401.555 45.2604L398.185 47.7581H398.188ZM286.699 47.3788L283.689 44.8677C285.977 44.7368 288.299 44.6113 290.595 44.4991L293.219 47.0235C291.052 47.133 288.86 47.2532 286.699 47.3788ZM385.143 47.0021C382.979 46.8925 380.779 46.7911 378.605 46.6976L380.821 44.1598C383.122 44.256 385.45 44.3628 387.74 44.4777L385.143 47.0047V47.0021ZM299.754 46.7136L297.511 44.1759C299.807 44.077 302.137 43.9862 304.441 43.9061L306.303 46.4518C304.126 46.5292 301.923 46.6174 299.754 46.7109V46.7136ZM372.056 46.4385C369.882 46.361 367.676 46.2915 365.494 46.2301L366.954 43.6763C369.258 43.7404 371.593 43.8125 373.891 43.8927L372.056 46.4385ZM312.865 46.2408L311.379 43.687C313.677 43.6229 316.013 43.5641 318.322 43.516L319.435 46.0751C317.25 46.1232 315.042 46.1767 312.868 46.2408H312.865ZM358.927 46.0671C356.747 46.0217 354.533 45.9816 352.349 45.9523L353.065 43.3878C355.372 43.4198 357.71 43.4599 360.014 43.508L358.927 46.0698V46.0671ZM326.01 45.9576L325.27 43.3931C327.574 43.3611 329.912 43.337 332.218 43.3183L332.594 45.8855C330.406 45.9015 328.192 45.9256 326.01 45.9576ZM345.765 45.8828C343.647 45.8694 341.499 45.8614 339.38 45.8614H339.172V43.2943H339.378C341.615 43.2943 343.882 43.3023 346.114 43.3156L345.765 45.8828Z" fill="#663500"/>
</g>
</g>
<g style="mix-blend-mode:screen">
<g style="mix-blend-mode:screen">
<path d="M339.481 177.381C336.442 177.381 333.409 177.37 330.383 177.349L332.184 151.421C334.607 151.437 337.035 151.442 339.465 151.442C439.491 151.442 524.599 139.371 578.09 119.336L629.669 134.453C601.77 146.615 563.197 156.961 515.186 164.585C462.531 172.944 402.592 177.381 339.481 177.381Z" fill="#663500"/>
</g>
<g style="mix-blend-mode:screen">
<path d="M311.557 177.084C299.078 176.817 286.538 176.369 274.306 175.746L287.358 150.254C297.147 150.705 307.174 151.034 317.143 151.226L311.557 177.082V177.084Z" fill="#663500"/>
</g>
<g style="mix-blend-mode:screen">
<path d="M256.027 174.68C249.999 174.282 243.952 173.836 238.06 173.355L258.298 148.515C263.028 148.865 267.876 149.191 272.708 149.479L256.027 174.68Z" fill="#663500"/>
</g>
<g style="mix-blend-mode:screen">
<path d="M220.5 171.782C108.839 160.87 34.4032 136.659 9.58594 108.864L63.0186 99.205C88.9759 121.027 153.351 139.325 244.151 147.363L220.5 171.779V171.782Z" fill="#663500"/>
</g>
<g style="mix-blend-mode:screen">
<path d="M637.535 130.833L585.219 116.528C587.464 115.601 589.665 114.642 591.76 113.683L644.653 127.174C642.391 128.405 639.998 129.637 637.533 130.833H637.535Z" fill="#663500"/>
</g>
<g style="mix-blend-mode:screen">
<path d="M651.024 123.493L597.727 110.806C601.461 108.902 604.9 106.938 607.949 104.975L661.593 116.101C658.517 118.58 654.965 121.07 651.024 123.493Z" fill="#663500"/>
</g>
<g style="mix-blend-mode:screen">
<path d="M0.733398 87.6221C1.39727 73.7793 14.1855 60.9143 36.2838 49.3047C46.7683 43.7965 59.2179 38.6782 73.1355 34.0435L103.2 35.7611C91.7558 39.907 81.7818 44.4509 73.6804 49.3047C56.8454 59.3943 48.6039 70.36 51.0636 81.9188L0.733398 87.6221Z" fill="#663500"/>
</g>
<g style="mix-blend-mode:screen">
<path d="M601.173 47.0475C599.919 46.3583 598.605 45.6664 597.267 44.9905L632.455 44.4109C634.15 45.1776 635.824 45.9629 637.432 46.7429L601.171 47.0475H601.173Z" fill="#663500"/>
</g>
<g style="mix-blend-mode:screen">
<path d="M593.167 42.9897C590.405 41.6915 587.467 40.4066 584.438 39.1671L616.461 37.8528C620.19 39.2445 623.837 40.6897 627.294 42.151L593.167 42.9897Z" fill="#663500"/>
</g>
<g style="mix-blend-mode:screen">
<path d="M579.829 37.3426C550.793 26.2165 510.357 17.5187 465.909 11.9998L479.123 8.11035C529.088 14.038 575.718 23.4972 610.811 35.8119L579.831 37.3453L579.829 37.3426Z" fill="#663500"/>
</g>
<g style="mix-blend-mode:screen">
<path d="M108.089 34.0435L79.042 32.1309C82.9723 30.894 87.0667 29.6759 91.2086 28.5085L118.256 30.7765C114.775 31.8317 111.352 32.9296 108.086 34.0435H108.089Z" fill="#663500"/>
</g>
<g style="mix-blend-mode:screen">
<path d="M123.537 29.2218L97.4688 26.7936C99.5529 26.238 101.69 25.6823 103.822 25.1427L128.93 27.7205C127.118 28.2094 125.307 28.7143 123.54 29.2191L123.537 29.2218Z" fill="#663500"/>
</g>
<g style="mix-blend-mode:screen">
<path d="M427.488 8.06496C398.799 5.72221 369.438 4.56822 339.373 4.56822C324.892 4.56822 310.395 4.84338 296.181 5.38833L291.968 1.07949C307.591 0.50516 323.498 0.213989 339.37 0.213989C372.352 0.213989 404.641 1.43211 436.373 3.9191L427.491 8.06496H427.488Z" fill="#663500"/>
</g>
<g style="mix-blend-mode:screen">
<path d="M263.52 7.1407L255.942 2.93605C260.695 2.62083 265.53 2.32699 270.318 2.06787L276.536 6.32062C272.198 6.56638 267.821 6.84151 263.52 7.1407Z" fill="#663500"/>
</g>
<g style="mix-blend-mode:screen">
<path d="M283.07 5.97071L277.526 1.69661C279.923 1.57907 282.348 1.46955 284.744 1.36804L289.622 5.66083C287.447 5.757 285.244 5.86119 283.073 5.97071H283.07Z" fill="#663500"/>
</g>
</g>
<defs>
<radialGradient id="paint0_radial_1428_1715" cx="0" cy="0" r="1" gradientUnits="userSpaceOnUse" gradientTransform="translate(337.133 168.402) scale(198.039 106.44)">
<stop offset="0.24" stop-color="#C87829"/>
<stop offset="1"/>
</radialGradient>
</defs>
</svg>
