<svg width="767" height="568" viewBox="0 0 767 568" fill="none" xmlns="http://www.w3.org/2000/svg">
<circle cx="372" cy="322" r="246" fill="#1F1606"/>
<path d="M618 322C618 288.727 611.25 255.799 598.159 225.21C585.067 194.62 565.906 167.005 541.835 144.033C517.764 121.062 489.282 103.213 458.114 91.565C426.947 79.9174 393.74 74.7137 360.503 76.2688C327.266 77.8239 294.69 86.1054 264.746 100.612C234.802 115.119 208.111 135.55 186.29 160.668C164.469 185.787 147.97 215.071 137.792 246.749C127.614 278.428 123.968 311.841 127.075 344.969L372 322H618Z" fill="#87260A"/>
<path d="M618 322C618 270.947 602.116 221.158 572.55 179.537C542.984 137.916 501.201 106.525 452.994 89.7158L372 322H618Z" fill="#C27518"/>
<path d="M485.838 540.075C526 519.11 559.592 487.462 582.911 448.619C606.23 409.777 618.37 365.249 617.991 319.946L372 322L485.838 540.075Z" fill="#197B93"/>
<circle cx="372" cy="322" r="246" fill="#160D01"/>
<mask id="path-6-inside-1_1504_780" fill="white">
<path d="M618 322C618 284.415 609.388 247.33 592.825 213.592C576.262 179.854 552.189 150.359 522.453 127.373C492.717 104.386 458.11 88.5183 421.287 80.9881C384.465 73.4578 346.406 74.465 310.034 83.9324L372 322H618Z"/>
</mask>
<path d="M618 322C618 284.415 609.388 247.33 592.825 213.592C576.262 179.854 552.189 150.359 522.453 127.373C492.717 104.386 458.11 88.5183 421.287 80.9881C384.465 73.4578 346.406 74.465 310.034 83.9324L372 322H618Z" fill="#795C09" stroke="#979797" stroke-width="2" mask="url(#path-6-inside-1_1504_780)"/>
<mask id="path-7-inside-2_1504_780" fill="white">
<path d="M310.53 83.8038C257.448 97.5022 210.463 128.539 177.033 171.987L372 322L310.53 83.8038Z"/>
</mask>
<path d="M310.53 83.8038C257.448 97.5022 210.463 128.539 177.033 171.987L372 322L310.53 83.8038Z" fill="#241803" stroke="#979797" stroke-width="2" mask="url(#path-7-inside-2_1504_780)"/>
<mask id="path-8-inside-3_1504_780" fill="white">
<path d="M518.283 519.781C554.707 492.841 582.985 456.365 599.997 414.376C617.009 372.387 622.096 326.515 614.696 281.819L372 322L518.283 519.781Z"/>
</mask>
<path d="M518.283 519.781C554.707 492.841 582.985 456.365 599.997 414.376C617.009 372.387 622.096 326.515 614.696 281.819L372 322L518.283 519.781Z" fill="#87510F" stroke="#979797" stroke-width="2" mask="url(#path-8-inside-3_1504_780)"/>
<line x1="189.5" y1="155" x2="189.5" y2="20" stroke="white"/>
<line x1="567.445" y1="475.772" x2="586.445" y2="512.772" stroke="white"/>
<line x1="585" y1="512.5" x2="632" y2="512.5" stroke="white"/>
<line x1="531.646" y1="134.646" x2="567.646" y2="98.6464" stroke="white"/>
<line x1="567" y1="98.5" x2="614" y2="98.5" stroke="white"/>
<line x1="32.5" y1="290" x2="32.5" y2="456" stroke="white"/>
<line x1="190" y1="20.5" x2="244" y2="20.5" stroke="white"/>
<line x1="32" y1="289.5" x2="127" y2="289.5" stroke="white"/>
<path d="M69.05 497.975L62.1 514H59.225L66.25 498.275H57V495.85H69.05V497.975ZM71.4893 504.65C71.4893 501.767 71.9726 499.517 72.9393 497.9C73.9226 496.267 75.6059 495.45 77.9893 495.45C80.3726 495.45 82.0476 496.267 83.0143 497.9C83.9976 499.517 84.4893 501.767 84.4893 504.65C84.4893 507.567 83.9976 509.85 83.0143 511.5C82.0476 513.133 80.3726 513.95 77.9893 513.95C75.6059 513.95 73.9226 513.133 72.9393 511.5C71.9726 509.85 71.4893 507.567 71.4893 504.65ZM81.6893 504.65C81.6893 503.3 81.5976 502.158 81.4143 501.225C81.2476 500.292 80.8976 499.533 80.3643 498.95C79.8309 498.35 79.0393 498.05 77.9893 498.05C76.9393 498.05 76.1476 498.35 75.6143 498.95C75.0809 499.533 74.7226 500.292 74.5393 501.225C74.3726 502.158 74.2893 503.3 74.2893 504.65C74.2893 506.05 74.3726 507.225 74.5393 508.175C74.7059 509.125 75.0559 509.892 75.5893 510.475C76.1393 511.058 76.9393 511.35 77.9893 511.35C79.0393 511.35 79.8309 511.058 80.3643 510.475C80.9143 509.892 81.2726 509.125 81.4393 508.175C81.6059 507.225 81.6893 506.05 81.6893 504.65ZM87.0549 500.175C87.0549 498.958 87.4049 498.008 88.1049 497.325C88.8215 496.625 89.7382 496.275 90.8549 496.275C91.9715 496.275 92.8799 496.625 93.5799 497.325C94.2965 498.008 94.6549 498.958 94.6549 500.175C94.6549 501.392 94.2965 502.35 93.5799 503.05C92.8799 503.75 91.9715 504.1 90.8549 504.1C89.7382 504.1 88.8215 503.75 88.1049 503.05C87.4049 502.35 87.0549 501.392 87.0549 500.175ZM102.305 496.6L92.3299 514H89.5299L99.5049 496.6H102.305ZM90.8549 498C89.8049 498 89.2799 498.725 89.2799 500.175C89.2799 501.642 89.8049 502.375 90.8549 502.375C91.3549 502.375 91.7382 502.2 92.0049 501.85C92.2882 501.483 92.4299 500.925 92.4299 500.175C92.4299 498.725 91.9049 498 90.8549 498ZM97.2299 510.4C97.2299 509.183 97.5799 508.233 98.2799 507.55C98.9966 506.85 99.9132 506.5 101.03 506.5C102.13 506.5 103.03 506.85 103.73 507.55C104.447 508.233 104.805 509.183 104.805 510.4C104.805 511.617 104.447 512.575 103.73 513.275C103.03 513.975 102.13 514.325 101.03 514.325C99.9132 514.325 98.9966 513.975 98.2799 513.275C97.5799 512.575 97.2299 511.617 97.2299 510.4ZM101.005 508.225C99.9549 508.225 99.4299 508.95 99.4299 510.4C99.4299 511.85 99.9549 512.575 101.005 512.575C102.055 512.575 102.58 511.85 102.58 510.4C102.58 508.95 102.055 508.225 101.005 508.225Z" fill="#F8951D"/>
<path d="M35.6252 467.96V470.7H31.9052V482H28.4852V470.7H24.7652V467.96H35.6252ZM42.4216 482.16C41.3282 482.16 40.3416 481.927 39.4616 481.46C38.5949 480.993 37.9082 480.327 37.4016 479.46C36.9082 478.593 36.6616 477.58 36.6616 476.42C36.6616 475.273 36.9149 474.267 37.4216 473.4C37.9282 472.52 38.6216 471.847 39.5016 471.38C40.3816 470.913 41.3682 470.68 42.4616 470.68C43.5549 470.68 44.5416 470.913 45.4216 471.38C46.3016 471.847 46.9949 472.52 47.5016 473.4C48.0082 474.267 48.2616 475.273 48.2616 476.42C48.2616 477.567 48.0016 478.58 47.4816 479.46C46.9749 480.327 46.2749 480.993 45.3816 481.46C44.5016 481.927 43.5149 482.16 42.4216 482.16ZM42.4216 479.2C43.0749 479.2 43.6282 478.96 44.0816 478.48C44.5482 478 44.7816 477.313 44.7816 476.42C44.7816 475.527 44.5549 474.84 44.1016 474.36C43.6616 473.88 43.1149 473.64 42.4616 473.64C41.7949 473.64 41.2416 473.88 40.8016 474.36C40.3616 474.827 40.1416 475.513 40.1416 476.42C40.1416 477.313 40.3549 478 40.7816 478.48C41.2216 478.96 41.7682 479.2 42.4216 479.2ZM56.8959 482L53.4959 477.32V482H50.0759V467.2H53.4959V475.38L56.8759 470.84H61.0959L56.4559 476.44L61.1359 482H56.8959ZM72.9592 476.24C72.9592 476.56 72.9392 476.893 72.8992 477.24H65.1592C65.2126 477.933 65.4326 478.467 65.8192 478.84C66.2192 479.2 66.7059 479.38 67.2792 479.38C68.1326 479.38 68.7259 479.02 69.0592 478.3H72.6992C72.5126 479.033 72.1726 479.693 71.6792 480.28C71.1992 480.867 70.5926 481.327 69.8592 481.66C69.1259 481.993 68.3059 482.16 67.3992 482.16C66.3059 482.16 65.3326 481.927 64.4792 481.46C63.6259 480.993 62.9592 480.327 62.4792 479.46C61.9992 478.593 61.7592 477.58 61.7592 476.42C61.7592 475.26 61.9926 474.247 62.4592 473.38C62.9392 472.513 63.6059 471.847 64.4592 471.38C65.3126 470.913 66.2926 470.68 67.3992 470.68C68.4792 470.68 69.4392 470.907 70.2792 471.36C71.1192 471.813 71.7726 472.46 72.2392 473.3C72.7192 474.14 72.9592 475.12 72.9592 476.24ZM69.4592 475.34C69.4592 474.753 69.2592 474.287 68.8592 473.94C68.4592 473.593 67.9592 473.42 67.3592 473.42C66.7859 473.42 66.2992 473.587 65.8992 473.92C65.5126 474.253 65.2726 474.727 65.1792 475.34H69.4592ZM81.5634 470.72C82.8701 470.72 83.9101 471.147 84.6834 472C85.4701 472.84 85.8634 474 85.8634 475.48V482H82.4634V475.94C82.4634 475.193 82.2701 474.613 81.8834 474.2C81.4968 473.787 80.9768 473.58 80.3234 473.58C79.6701 473.58 79.1501 473.787 78.7634 474.2C78.3768 474.613 78.1834 475.193 78.1834 475.94V482H74.7634V470.84H78.1834V472.32C78.5301 471.827 78.9968 471.44 79.5834 471.16C80.1701 470.867 80.8301 470.72 81.5634 470.72ZM95.1 470.72C96.38 470.72 97.4067 471.147 98.18 472C98.9533 472.84 99.34 474 99.34 475.48V482H95.94V475.94C95.94 475.193 95.7467 474.613 95.36 474.2C94.9733 473.787 94.4533 473.58 93.8 473.58C93.1467 473.58 92.6267 473.787 92.24 474.2C91.8533 474.613 91.66 475.193 91.66 475.94V482H88.24V467.2H91.66V472.34C92.0067 471.847 92.48 471.453 93.08 471.16C93.68 470.867 94.3533 470.72 95.1 470.72ZM106.797 482.16C105.703 482.16 104.717 481.927 103.837 481.46C102.97 480.993 102.283 480.327 101.777 479.46C101.283 478.593 101.037 477.58 101.037 476.42C101.037 475.273 101.29 474.267 101.797 473.4C102.303 472.52 102.997 471.847 103.877 471.38C104.757 470.913 105.743 470.68 106.837 470.68C107.93 470.68 108.917 470.913 109.797 471.38C110.677 471.847 111.37 472.52 111.877 473.4C112.383 474.267 112.637 475.273 112.637 476.42C112.637 477.567 112.377 478.58 111.857 479.46C111.35 480.327 110.65 480.993 109.757 481.46C108.877 481.927 107.89 482.16 106.797 482.16ZM106.797 479.2C107.45 479.2 108.003 478.96 108.457 478.48C108.923 478 109.157 477.313 109.157 476.42C109.157 475.527 108.93 474.84 108.477 474.36C108.037 473.88 107.49 473.64 106.837 473.64C106.17 473.64 105.617 473.88 105.177 474.36C104.737 474.827 104.517 475.513 104.517 476.42C104.517 477.313 104.73 478 105.157 478.48C105.597 478.96 106.143 479.2 106.797 479.2ZM117.871 467.2V482H114.451V467.2H117.871ZM119.669 476.4C119.669 475.253 119.883 474.247 120.309 473.38C120.749 472.513 121.343 471.847 122.089 471.38C122.836 470.913 123.669 470.68 124.589 470.68C125.323 470.68 125.989 470.833 126.589 471.14C127.203 471.447 127.683 471.86 128.029 472.38V467.2H131.449V482H128.029V480.4C127.709 480.933 127.249 481.36 126.649 481.68C126.063 482 125.376 482.16 124.589 482.16C123.669 482.16 122.836 481.927 122.089 481.46C121.343 480.98 120.749 480.307 120.309 479.44C119.883 478.56 119.669 477.547 119.669 476.4ZM128.029 476.42C128.029 475.567 127.789 474.893 127.309 474.4C126.843 473.907 126.269 473.66 125.589 473.66C124.909 473.66 124.329 473.907 123.849 474.4C123.383 474.88 123.149 475.547 123.149 476.4C123.149 477.253 123.383 477.933 123.849 478.44C124.329 478.933 124.909 479.18 125.589 479.18C126.269 479.18 126.843 478.933 127.309 478.44C127.789 477.947 128.029 477.273 128.029 476.42ZM144.444 476.24C144.444 476.56 144.424 476.893 144.384 477.24H136.644C136.697 477.933 136.917 478.467 137.304 478.84C137.704 479.2 138.19 479.38 138.764 479.38C139.617 479.38 140.21 479.02 140.544 478.3H144.184C143.997 479.033 143.657 479.693 143.164 480.28C142.684 480.867 142.077 481.327 141.344 481.66C140.61 481.993 139.79 482.16 138.884 482.16C137.79 482.16 136.817 481.927 135.964 481.46C135.11 480.993 134.444 480.327 133.964 479.46C133.484 478.593 133.244 477.58 133.244 476.42C133.244 475.26 133.477 474.247 133.944 473.38C134.424 472.513 135.09 471.847 135.944 471.38C136.797 470.913 137.777 470.68 138.884 470.68C139.964 470.68 140.924 470.907 141.764 471.36C142.604 471.813 143.257 472.46 143.724 473.3C144.204 474.14 144.444 475.12 144.444 476.24ZM140.944 475.34C140.944 474.753 140.744 474.287 140.344 473.94C139.944 473.593 139.444 473.42 138.844 473.42C138.27 473.42 137.784 473.587 137.384 473.92C136.997 474.253 136.757 474.727 136.664 475.34H140.944ZM149.668 472.7C150.068 472.087 150.568 471.607 151.168 471.26C151.768 470.9 152.434 470.72 153.168 470.72V474.34H152.228C151.374 474.34 150.734 474.527 150.308 474.9C149.881 475.26 149.668 475.9 149.668 476.82V482H146.248V470.84H149.668V472.7ZM159.343 482.16C158.369 482.16 157.503 481.993 156.743 481.66C155.983 481.327 155.383 480.873 154.943 480.3C154.503 479.713 154.256 479.06 154.203 478.34H157.583C157.623 478.727 157.803 479.04 158.123 479.28C158.443 479.52 158.836 479.64 159.303 479.64C159.729 479.64 160.056 479.56 160.283 479.4C160.523 479.227 160.643 479.007 160.643 478.74C160.643 478.42 160.476 478.187 160.143 478.04C159.809 477.88 159.269 477.707 158.523 477.52C157.723 477.333 157.056 477.14 156.523 476.94C155.989 476.727 155.529 476.4 155.143 475.96C154.756 475.507 154.563 474.9 154.563 474.14C154.563 473.5 154.736 472.92 155.083 472.4C155.443 471.867 155.963 471.447 156.643 471.14C157.336 470.833 158.156 470.68 159.103 470.68C160.503 470.68 161.603 471.027 162.403 471.72C163.216 472.413 163.683 473.333 163.803 474.48H160.643C160.589 474.093 160.416 473.787 160.123 473.56C159.843 473.333 159.469 473.22 159.003 473.22C158.603 473.22 158.296 473.3 158.083 473.46C157.869 473.607 157.763 473.813 157.763 474.08C157.763 474.4 157.929 474.64 158.263 474.8C158.609 474.96 159.143 475.12 159.863 475.28C160.689 475.493 161.363 475.707 161.883 475.92C162.403 476.12 162.856 476.453 163.243 476.92C163.643 477.373 163.849 477.987 163.863 478.76C163.863 479.413 163.676 480 163.303 480.52C162.943 481.027 162.416 481.427 161.723 481.72C161.043 482.013 160.249 482.16 159.343 482.16Z" fill="white"/>
<path d="M306.45 53H309.325V34.775H304.125V37.375H306.45V53ZM313.99 34.725V45.25H316.69C317.165 43.9 318.29 42.975 319.965 42.975C322.34 42.975 323.515 44.325 323.515 46.7C323.515 48.95 322.415 50.625 319.965 50.625C318.04 50.625 316.74 49.625 316.365 48.075H313.59C314.015 50.925 316.19 53 319.94 53C324.165 53 326.24 50.25 326.24 46.625C326.24 43.875 324.865 40.55 320.39 40.55C318.765 40.55 317.29 41.3 316.615 42.2V37.225H324.99V34.725H313.99ZM328.757 39.175C328.757 41.675 330.382 43.1 332.557 43.1C334.732 43.1 336.357 41.675 336.357 39.175C336.357 36.7 334.732 35.275 332.557 35.275C330.382 35.275 328.757 36.7 328.757 39.175ZM332.557 37C333.507 37 334.132 37.625 334.132 39.175C334.132 40.725 333.507 41.375 332.557 41.375C331.582 41.375 330.982 40.725 330.982 39.175C330.982 37.625 331.582 37 332.557 37ZM331.232 53H334.032L344.007 35.6H341.207L331.232 53ZM338.932 49.4C338.932 51.9 340.557 53.325 342.732 53.325C344.882 53.325 346.507 51.9 346.507 49.4C346.507 46.9 344.882 45.5 342.732 45.5C340.557 45.5 338.932 46.9 338.932 49.4ZM342.707 47.225C343.657 47.225 344.282 47.85 344.282 49.4C344.282 50.95 343.657 51.575 342.707 51.575C341.757 51.575 341.132 50.95 341.132 49.4C341.132 47.85 341.757 47.225 342.707 47.225Z" fill="#F8951D"/>
<path d="M259.5 7.96H254.24V22H259.5C263.98 22 266.86 19.14 266.86 14.98C266.86 10.8 263.98 7.96 259.5 7.96ZM257.66 19.04V10.88H259.28C261.86 10.88 263.38 12.4 263.38 14.98C263.38 17.56 261.86 19.04 259.28 19.04H257.66ZM278.351 22H281.971L276.891 7.96H272.931L267.851 22H271.431L272.271 19.52H277.511L278.351 22ZM276.631 16.88H273.171L274.891 11.74L276.631 16.88ZM297.337 14.94C297.337 10.72 294.157 7.76 290.157 7.76C286.177 7.76 282.937 10.72 282.937 14.94C282.937 19.16 286.177 22.14 290.157 22.14C294.137 22.14 297.337 19.16 297.337 14.94ZM286.437 14.94C286.437 12.44 287.877 10.86 290.157 10.86C292.397 10.86 293.857 12.44 293.857 14.94C293.857 17.4 292.397 19.02 290.157 19.02C287.877 19.02 286.437 17.4 286.437 14.94ZM302.718 10.7H306.438V22H309.858V10.7H313.578V7.96H302.718V10.7ZM318.715 16.82C318.715 14.9 319.655 14.34 321.275 14.34H322.215V10.72C320.715 10.72 319.495 11.52 318.715 12.7V10.84H315.295V22H318.715V16.82ZM328.769 13.42C329.909 13.42 330.869 14.12 330.869 15.34H326.589C326.789 14.1 327.649 13.42 328.769 13.42ZM334.109 18.3H330.469C330.189 18.9 329.649 19.38 328.689 19.38C327.589 19.38 326.689 18.7 326.569 17.24H334.309C334.349 16.9 334.369 16.56 334.369 16.24C334.369 12.84 332.069 10.68 328.809 10.68C325.489 10.68 323.169 12.88 323.169 16.42C323.169 19.96 325.529 22.16 328.809 22.16C331.589 22.16 333.569 20.48 334.109 18.3ZM335.494 16.4C335.494 19.92 337.674 22.16 340.394 22.16C342.054 22.16 343.234 21.4 343.854 20.42V22H347.274V10.84H343.854V12.42C343.254 11.44 342.074 10.68 340.414 10.68C337.674 10.68 335.494 12.88 335.494 16.4ZM343.854 16.42C343.854 18.2 342.714 19.18 341.414 19.18C340.134 19.18 338.974 18.18 338.974 16.4C338.974 14.62 340.134 13.66 341.414 13.66C342.714 13.66 343.854 14.64 343.854 16.42ZM358.808 18.76C358.748 14.6 352.708 15.86 352.708 14.08C352.708 13.54 353.148 13.22 353.948 13.22C354.908 13.22 355.488 13.72 355.588 14.48H358.748C358.528 12.28 356.928 10.68 354.048 10.68C351.128 10.68 349.508 12.24 349.508 14.14C349.508 18.24 355.588 16.94 355.588 18.74C355.588 19.24 355.128 19.64 354.248 19.64C353.308 19.64 352.608 19.12 352.528 18.34H349.148C349.308 20.5 351.308 22.16 354.288 22.16C357.088 22.16 358.808 20.7 358.808 18.76ZM371.92 10.84H368.5V16.9C368.5 18.42 367.66 19.26 366.34 19.26C365.06 19.26 364.2 18.42 364.2 16.9V10.84H360.8V17.36C360.8 20.34 362.54 22.12 365.12 22.12C366.62 22.12 367.82 21.44 368.5 20.48V22H371.92V10.84ZM377.797 16.82C377.797 14.9 378.737 14.34 380.357 14.34H381.297V10.72C379.797 10.72 378.577 11.52 377.797 12.7V10.84H374.377V22H377.797V16.82ZM388.071 17.82L385.491 10.84H381.671L386.211 21.62L383.651 27.3H387.331L394.331 10.84H390.631L388.071 17.82Z" fill="white"/>
<path d="M652.45 559H655.325V540.775H650.125V543.375H652.45V559ZM659.24 549.65C659.24 554.95 660.64 558.95 665.74 558.95C670.84 558.95 672.24 554.95 672.24 549.65C672.24 544.45 670.84 540.45 665.74 540.45C660.64 540.45 659.24 544.45 659.24 549.65ZM669.44 549.65C669.44 553.225 669.065 556.35 665.74 556.35C662.415 556.35 662.04 553.225 662.04 549.65C662.04 546.25 662.415 543.05 665.74 543.05C669.065 543.05 669.44 546.25 669.44 549.65ZM674.806 545.175C674.806 547.675 676.431 549.1 678.606 549.1C680.781 549.1 682.406 547.675 682.406 545.175C682.406 542.7 680.781 541.275 678.606 541.275C676.431 541.275 674.806 542.7 674.806 545.175ZM678.606 543C679.556 543 680.181 543.625 680.181 545.175C680.181 546.725 679.556 547.375 678.606 547.375C677.631 547.375 677.031 546.725 677.031 545.175C677.031 543.625 677.631 543 678.606 543ZM677.281 559H680.081L690.056 541.6H687.256L677.281 559ZM684.981 555.4C684.981 557.9 686.606 559.325 688.781 559.325C690.931 559.325 692.556 557.9 692.556 555.4C692.556 552.9 690.931 551.5 688.781 551.5C686.606 551.5 684.981 552.9 684.981 555.4ZM688.756 553.225C689.706 553.225 690.331 553.85 690.331 555.4C690.331 556.95 689.706 557.575 688.756 557.575C687.806 557.575 687.181 556.95 687.181 555.4C687.181 553.85 687.806 553.225 688.756 553.225Z" fill="#F8951D"/>
<path d="M591.217 485.96H585.957V500H591.217C595.697 500 598.577 497.14 598.577 492.98C598.577 488.8 595.697 485.96 591.217 485.96ZM589.377 497.04V488.88H590.997C593.577 488.88 595.097 490.4 595.097 492.98C595.097 495.56 593.577 497.04 590.997 497.04H589.377ZM610.068 500H613.688L608.608 485.96H604.648L599.568 500H603.148L603.988 497.52H609.228L610.068 500ZM608.348 494.88H604.888L606.608 489.74L608.348 494.88ZM629.054 492.94C629.054 488.72 625.874 485.76 621.874 485.76C617.894 485.76 614.654 488.72 614.654 492.94C614.654 497.16 617.894 500.14 621.874 500.14C625.854 500.14 629.054 497.16 629.054 492.94ZM618.154 492.94C618.154 490.44 619.594 488.86 621.874 488.86C624.114 488.86 625.574 490.44 625.574 492.94C625.574 495.4 624.114 497.02 621.874 497.02C619.594 497.02 618.154 495.4 618.154 492.94ZM641.755 485.8C637.555 485.8 634.615 488.76 634.615 492.96C634.615 497.16 637.575 500.1 641.775 500.1C645.475 500.1 647.815 497.68 648.535 495.26V492.08H641.095V494.6H645.435C644.915 496.18 643.735 497.08 642.035 497.08C639.575 497.08 638.095 495.56 638.095 492.96C638.095 490.52 639.555 488.96 641.755 488.96C643.035 488.96 643.995 489.46 644.515 490.4H648.295C647.555 487.52 645.115 485.8 641.755 485.8ZM661.349 494.42C661.349 490.88 658.829 488.68 655.549 488.68C652.289 488.68 649.749 490.88 649.749 494.42C649.749 497.96 652.229 500.16 655.509 500.16C658.789 500.16 661.349 497.96 661.349 494.42ZM653.229 494.42C653.229 492.52 654.309 491.64 655.549 491.64C656.749 491.64 657.869 492.52 657.869 494.42C657.869 496.3 656.729 497.2 655.509 497.2C654.269 497.2 653.229 496.3 653.229 494.42ZM662.104 488.84L666.064 500H670.284L674.244 488.84H670.604L668.184 496.8L665.764 488.84H662.104ZM680.603 491.42C681.743 491.42 682.703 492.12 682.703 493.34H678.423C678.623 492.1 679.483 491.42 680.603 491.42ZM685.943 496.3H682.303C682.023 496.9 681.483 497.38 680.523 497.38C679.423 497.38 678.523 496.7 678.403 495.24H686.143C686.183 494.9 686.203 494.56 686.203 494.24C686.203 490.84 683.903 488.68 680.643 488.68C677.323 488.68 675.003 490.88 675.003 494.42C675.003 497.96 677.363 500.16 680.643 500.16C683.423 500.16 685.403 498.48 685.943 496.3ZM691.428 494.82C691.428 492.9 692.368 492.34 693.988 492.34H694.928V488.72C693.428 488.72 692.208 489.52 691.428 490.7V488.84H688.008V500H691.428V494.82ZM704.262 500H707.662V493.48C707.662 490.48 705.942 488.72 703.362 488.72C701.862 488.72 700.662 489.38 699.982 490.32V488.84H696.562V500H699.982V493.94C699.982 492.42 700.822 491.58 702.122 491.58C703.422 491.58 704.262 492.42 704.262 493.94V500ZM709.359 494.4C709.359 497.92 711.539 500.16 714.259 500.16C715.919 500.16 717.099 499.4 717.719 498.42V500H721.139V488.84H717.719V490.42C717.119 489.44 715.939 488.68 714.279 488.68C711.539 488.68 709.359 490.88 709.359 494.4ZM717.719 494.42C717.719 496.2 716.579 497.18 715.279 497.18C713.999 497.18 712.839 496.18 712.839 494.4C712.839 492.62 713.999 491.66 715.279 491.66C716.579 491.66 717.719 492.64 717.719 494.42ZM731.313 500H734.713V493.48C734.713 490.48 732.993 488.72 730.413 488.72C728.913 488.72 727.713 489.38 727.033 490.32V488.84H723.613V500H727.033V493.94C727.033 492.42 727.873 491.58 729.173 491.58C730.473 491.58 731.313 492.42 731.313 493.94V500ZM736.41 494.42C736.41 497.96 738.73 500.16 742.01 500.16C744.81 500.16 746.79 498.54 747.37 495.96H743.73C743.43 496.78 742.89 497.24 741.95 497.24C740.73 497.24 739.89 496.28 739.89 494.42C739.89 492.56 740.73 491.6 741.95 491.6C742.89 491.6 743.45 492.1 743.73 492.88H747.37C746.79 490.22 744.81 488.68 742.01 488.68C738.73 488.68 736.41 490.9 736.41 494.42ZM754.119 491.42C755.259 491.42 756.219 492.12 756.219 493.34H751.939C752.139 492.1 752.999 491.42 754.119 491.42ZM759.459 496.3H755.819C755.539 496.9 754.999 497.38 754.039 497.38C752.939 497.38 752.039 496.7 751.919 495.24H759.659C759.699 494.9 759.719 494.56 759.719 494.24C759.719 490.84 757.419 488.68 754.159 488.68C750.839 488.68 748.519 490.88 748.519 494.42C748.519 497.96 750.879 500.16 754.159 500.16C756.939 500.16 758.919 498.48 759.459 496.3ZM650.669 517.72C650.669 518.72 650.009 519.24 648.869 519.24H646.349V516.14H648.829C649.969 516.14 650.669 516.72 650.669 517.72ZM650.329 512.18C650.329 513.14 649.709 513.64 648.589 513.64H646.349V510.7H648.589C649.709 510.7 650.329 511.22 650.329 512.18ZM654.129 518.18C654.129 516.58 653.069 515.14 651.429 514.8C652.789 514.4 653.809 513.3 653.809 511.6C653.809 509.38 652.109 507.96 649.249 507.96H642.929V522H649.469C652.429 522 654.129 520.5 654.129 518.18ZM667.033 516.42C667.033 512.88 664.513 510.68 661.233 510.68C657.973 510.68 655.433 512.88 655.433 516.42C655.433 519.96 657.913 522.16 661.193 522.16C664.473 522.16 667.033 519.96 667.033 516.42ZM658.913 516.42C658.913 514.52 659.993 513.64 661.233 513.64C662.433 513.64 663.553 514.52 663.553 516.42C663.553 518.3 662.413 519.2 661.193 519.2C659.953 519.2 658.913 518.3 658.913 516.42ZM668.167 516.4C668.167 519.92 670.347 522.16 673.067 522.16C674.727 522.16 675.907 521.4 676.527 520.42V522H679.947V510.84H676.527V512.42C675.927 511.44 674.747 510.68 673.087 510.68C670.347 510.68 668.167 512.88 668.167 516.4ZM676.527 516.42C676.527 518.2 675.387 519.18 674.087 519.18C672.807 519.18 671.647 518.18 671.647 516.4C671.647 514.62 672.807 513.66 674.087 513.66C675.387 513.66 676.527 514.64 676.527 516.42ZM685.842 516.82C685.842 514.9 686.782 514.34 688.402 514.34H689.342V510.72C687.842 510.72 686.622 511.52 685.842 512.7V510.84H682.422V522H685.842V516.82ZM690.296 516.4C690.296 519.92 692.476 522.16 695.216 522.16C696.856 522.16 698.036 521.42 698.656 520.4V522H702.076V507.2H698.656V512.38C697.976 511.36 696.696 510.68 695.216 510.68C692.476 510.68 690.296 512.88 690.296 516.4ZM698.656 516.42C698.656 518.2 697.516 519.18 696.216 519.18C694.936 519.18 693.776 518.18 693.776 516.4C693.776 514.62 694.936 513.66 696.216 513.66C697.516 513.66 698.656 514.64 698.656 516.42Z" fill="white"/>
<path d="M628.25 99.725V110.25H630.95C631.425 108.9 632.55 107.975 634.225 107.975C636.6 107.975 637.775 109.325 637.775 111.7C637.775 113.95 636.675 115.625 634.225 115.625C632.3 115.625 631 114.625 630.625 113.075H627.85C628.275 115.925 630.45 118 634.2 118C638.425 118 640.5 115.25 640.5 111.625C640.5 108.875 639.125 105.55 634.65 105.55C633.025 105.55 631.55 106.3 630.875 107.2V102.225H639.25V99.725H628.25ZM643.017 104.175C643.017 106.675 644.642 108.1 646.817 108.1C648.992 108.1 650.617 106.675 650.617 104.175C650.617 101.7 648.992 100.275 646.817 100.275C644.642 100.275 643.017 101.7 643.017 104.175ZM646.817 102C647.767 102 648.392 102.625 648.392 104.175C648.392 105.725 647.767 106.375 646.817 106.375C645.842 106.375 645.242 105.725 645.242 104.175C645.242 102.625 645.842 102 646.817 102ZM645.492 118H648.292L658.267 100.6H655.467L645.492 118ZM653.192 114.4C653.192 116.9 654.817 118.325 656.992 118.325C659.142 118.325 660.767 116.9 660.767 114.4C660.767 111.9 659.142 110.5 656.992 110.5C654.817 110.5 653.192 111.9 653.192 114.4ZM656.967 112.225C657.917 112.225 658.542 112.85 658.542 114.4C658.542 115.95 657.917 116.575 656.967 116.575C656.017 116.575 655.392 115.95 655.392 114.4C655.392 112.85 656.017 112.225 656.967 112.225Z" fill="#F8951D"/>
<path d="M576.48 75.7H580.2V87H583.62V75.7H587.34V72.96H576.48V75.7ZM599.976 81.42C599.976 77.88 597.456 75.68 594.176 75.68C590.916 75.68 588.376 77.88 588.376 81.42C588.376 84.96 590.856 87.16 594.136 87.16C597.416 87.16 599.976 84.96 599.976 81.42ZM591.856 81.42C591.856 79.52 592.936 78.64 594.176 78.64C595.376 78.64 596.496 79.52 596.496 81.42C596.496 83.3 595.356 84.2 594.136 84.2C592.896 84.2 591.856 83.3 591.856 81.42ZM601.791 87H605.211V82.32L608.611 87H612.851L608.171 81.44L612.811 75.84H608.591L605.211 80.38V72.2H601.791V87ZM619.074 78.42C620.214 78.42 621.174 79.12 621.174 80.34H616.894C617.094 79.1 617.954 78.42 619.074 78.42ZM624.414 83.3H620.774C620.494 83.9 619.954 84.38 618.994 84.38C617.894 84.38 616.994 83.7 616.874 82.24H624.614C624.654 81.9 624.674 81.56 624.674 81.24C624.674 77.84 622.374 75.68 619.114 75.68C615.794 75.68 613.474 77.88 613.474 81.42C613.474 84.96 615.834 87.16 619.114 87.16C621.894 87.16 623.874 85.48 624.414 83.3ZM634.178 87H637.578V80.48C637.578 77.48 635.858 75.72 633.278 75.72C631.778 75.72 630.578 76.38 629.898 77.32V75.84H626.478V87H629.898V80.94C629.898 79.42 630.738 78.58 632.038 78.58C633.338 78.58 634.178 79.42 634.178 80.94V87ZM651.933 82.72C651.933 83.72 651.273 84.24 650.133 84.24H647.613V81.14H650.093C651.233 81.14 651.933 81.72 651.933 82.72ZM651.593 77.18C651.593 78.14 650.973 78.64 649.853 78.64H647.613V75.7H649.853C650.973 75.7 651.593 76.22 651.593 77.18ZM655.393 83.18C655.393 81.58 654.333 80.14 652.693 79.8C654.053 79.4 655.073 78.3 655.073 76.6C655.073 74.38 653.373 72.96 650.513 72.96H644.193V87H650.733C653.693 87 655.393 85.5 655.393 83.18ZM668.397 75.84H664.977V81.9C664.977 83.42 664.137 84.26 662.817 84.26C661.537 84.26 660.677 83.42 660.677 81.9V75.84H657.277V82.36C657.277 85.34 659.017 87.12 661.597 87.12C663.097 87.12 664.297 86.44 664.977 85.48V87H668.397V75.84ZM674.273 81.82C674.273 79.9 675.213 79.34 676.833 79.34H677.773V75.72C676.273 75.72 675.053 76.52 674.273 77.7V75.84H670.853V87H674.273V81.82ZM687.108 87H690.508V80.48C690.508 77.48 688.788 75.72 686.208 75.72C684.708 75.72 683.508 76.38 682.828 77.32V75.84H679.408V87H682.828V80.94C682.828 79.42 683.668 78.58 684.968 78.58C686.268 78.58 687.108 79.42 687.108 80.94V87ZM692.885 87H696.305V75.84H692.885V87ZM694.605 74.68C695.805 74.68 696.625 73.86 696.625 72.84C696.625 71.8 695.805 70.98 694.605 70.98C693.385 70.98 692.565 71.8 692.565 72.84C692.565 73.86 693.385 74.68 694.605 74.68ZM706.483 87H709.883V80.48C709.883 77.48 708.163 75.72 705.583 75.72C704.083 75.72 702.883 76.38 702.203 77.32V75.84H698.783V87H702.203V80.94C702.203 79.42 703.043 78.58 704.343 78.58C705.643 78.58 706.483 79.42 706.483 80.94V87ZM711.58 81.4C711.58 84.92 713.76 87.16 716.5 87.16C718.14 87.16 719.32 86.38 719.94 85.4V86.98C719.94 88.86 718.92 89.54 717.62 89.54C716.44 89.54 715.6 89 715.38 88.16H712C712.3 90.82 714.46 92.5 717.78 92.5C721.64 92.5 723.36 89.96 723.36 86.98V75.84H719.94V77.42C719.34 76.42 718.14 75.68 716.5 75.68C713.76 75.68 711.58 77.88 711.58 81.4ZM719.94 81.42C719.94 83.2 718.8 84.18 717.5 84.18C716.22 84.18 715.06 83.18 715.06 81.4C715.06 79.62 716.22 78.66 717.5 78.66C718.8 78.66 719.94 79.64 719.94 81.42Z" fill="white"/>
</svg>
