<svg width="846" height="503" viewBox="0 0 846 503" fill="none" xmlns="http://www.w3.org/2000/svg">
<circle cx="427" cy="257" r="246" fill="#1F1606"/>
<path d="M673 257C673 223.727 666.25 190.799 653.159 160.21C640.067 129.62 620.906 102.005 596.835 79.0333C572.764 56.0619 544.282 38.2126 513.114 26.565C481.947 14.9174 448.74 9.71374 415.503 11.2688C382.266 12.8239 349.69 21.1054 319.746 35.6123C289.802 50.1191 263.111 70.5498 241.29 95.6684C219.469 120.787 202.97 150.071 192.792 181.749C182.614 213.428 178.968 246.841 182.075 279.969L427 257H673Z" fill="#87260A"/>
<path d="M673 257C673 205.947 657.116 156.158 627.55 114.537C597.984 72.9159 556.201 41.5248 507.994 24.7158L427 257H673Z" fill="#C27518"/>
<path d="M540.838 475.075C581 454.11 614.592 422.462 637.911 383.619C661.23 344.777 673.37 300.249 672.991 254.946L427 257L540.838 475.075Z" fill="#197B93"/>
<circle cx="427" cy="257" r="246" fill="#160D01"/>
<mask id="path-6-inside-1_2102_1050" fill="white">
<path d="M673 257C673 219.415 664.388 182.33 647.825 148.592C631.262 114.854 607.189 85.3592 577.453 62.3726C547.717 39.3859 513.11 23.5183 476.287 15.9881C439.465 8.45779 401.406 9.465 365.034 18.9324L427 257H673Z"/>
</mask>
<path d="M673 257C673 219.415 664.388 182.33 647.825 148.592C631.262 114.854 607.189 85.3592 577.453 62.3726C547.717 39.3859 513.11 23.5183 476.287 15.9881C439.465 8.45779 401.406 9.465 365.034 18.9324L427 257H673Z" fill="#795C09" stroke="#979797" stroke-width="2" mask="url(#path-6-inside-1_2102_1050)"/>
<mask id="path-7-inside-2_2102_1050" fill="white">
<path d="M573.283 454.781C609.707 427.841 637.985 391.365 654.997 349.376C672.009 307.387 677.096 261.515 669.696 216.819L427 257L573.283 454.781Z"/>
</mask>
<path d="M573.283 454.781C609.707 427.841 637.985 391.365 654.997 349.376C672.009 307.387 677.096 261.515 669.696 216.819L427 257L573.283 454.781Z" fill="#87510F" stroke="#979797" stroke-width="2" mask="url(#path-7-inside-2_2102_1050)"/>
<line x1="622.445" y1="410.772" x2="641.445" y2="447.772" stroke="white"/>
<line x1="640" y1="447.5" x2="687" y2="447.5" stroke="white"/>
<line x1="586.646" y1="69.6464" x2="622.646" y2="33.6464" stroke="white"/>
<line x1="622" y1="33.5" x2="669" y2="33.5" stroke="white"/>
<line x1="87.5" y1="225" x2="87.5" y2="391" stroke="white"/>
<line x1="87" y1="224.5" x2="182" y2="224.5" stroke="white"/>
<path d="M69.25 433.225H60.875V438.2C61.225 437.733 61.7417 437.342 62.425 437.025C63.125 436.708 63.8667 436.55 64.65 436.55C66.05 436.55 67.1833 436.85 68.05 437.45C68.9333 438.05 69.5583 438.808 69.925 439.725C70.3083 440.642 70.5 441.608 70.5 442.625C70.5 443.858 70.2583 444.958 69.775 445.925C69.3083 446.875 68.6 447.625 67.65 448.175C66.7167 448.725 65.5667 449 64.2 449C62.3833 449 60.925 448.55 59.825 447.65C58.725 446.75 58.0667 445.558 57.85 444.075H60.625C60.8083 444.858 61.2167 445.483 61.85 445.95C62.4833 446.4 63.275 446.625 64.225 446.625C65.4083 446.625 66.2917 446.267 66.875 445.55C67.475 444.833 67.775 443.883 67.775 442.7C67.775 441.5 67.475 440.583 66.875 439.95C66.275 439.3 65.3917 438.975 64.225 438.975C63.4083 438.975 62.7167 439.183 62.15 439.6C61.6 440 61.2 440.55 60.95 441.25H58.25V430.725H69.25V433.225ZM73.4668 439.65C73.4668 436.767 73.9501 434.517 74.9168 432.9C75.9001 431.267 77.5835 430.45 79.9668 430.45C82.3501 430.45 84.0251 431.267 84.9918 432.9C85.9751 434.517 86.4668 436.767 86.4668 439.65C86.4668 442.567 85.9751 444.85 84.9918 446.5C84.0251 448.133 82.3501 448.95 79.9668 448.95C77.5835 448.95 75.9001 448.133 74.9168 446.5C73.9501 444.85 73.4668 442.567 73.4668 439.65ZM83.6668 439.65C83.6668 438.3 83.5751 437.158 83.3918 436.225C83.2251 435.292 82.8751 434.533 82.3418 433.95C81.8085 433.35 81.0168 433.05 79.9668 433.05C78.9168 433.05 78.1251 433.35 77.5918 433.95C77.0585 434.533 76.7001 435.292 76.5168 436.225C76.3501 437.158 76.2668 438.3 76.2668 439.65C76.2668 441.05 76.3501 442.225 76.5168 443.175C76.6835 444.125 77.0335 444.892 77.5668 445.475C78.1168 446.058 78.9168 446.35 79.9668 446.35C81.0168 446.35 81.8085 446.058 82.3418 445.475C82.8918 444.892 83.2501 444.125 83.4168 443.175C83.5835 442.225 83.6668 441.05 83.6668 439.65ZM91.0074 449.175C90.4908 449.175 90.0574 449 89.7074 448.65C89.3574 448.3 89.1824 447.867 89.1824 447.35C89.1824 446.833 89.3574 446.4 89.7074 446.05C90.0574 445.7 90.4908 445.525 91.0074 445.525C91.5074 445.525 91.9324 445.7 92.2824 446.05C92.6324 446.4 92.8074 446.833 92.8074 447.35C92.8074 447.867 92.6324 448.3 92.2824 448.65C91.9324 449 91.5074 449.175 91.0074 449.175ZM95.5127 439.65C95.5127 436.767 95.996 434.517 96.9627 432.9C97.946 431.267 99.6294 430.45 102.013 430.45C104.396 430.45 106.071 431.267 107.038 432.9C108.021 434.517 108.513 436.767 108.513 439.65C108.513 442.567 108.021 444.85 107.038 446.5C106.071 448.133 104.396 448.95 102.013 448.95C99.6294 448.95 97.946 448.133 96.9627 446.5C95.996 444.85 95.5127 442.567 95.5127 439.65ZM105.713 439.65C105.713 438.3 105.621 437.158 105.438 436.225C105.271 435.292 104.921 434.533 104.388 433.95C103.854 433.35 103.063 433.05 102.013 433.05C100.963 433.05 100.171 433.35 99.6377 433.95C99.1044 434.533 98.746 435.292 98.5627 436.225C98.396 437.158 98.3127 438.3 98.3127 439.65C98.3127 441.05 98.396 442.225 98.5627 443.175C98.7294 444.125 99.0794 444.892 99.6127 445.475C100.163 446.058 100.963 446.35 102.013 446.35C103.063 446.35 103.854 446.058 104.388 445.475C104.938 444.892 105.296 444.125 105.463 443.175C105.629 442.225 105.713 441.05 105.713 439.65ZM111.078 435.175C111.078 433.958 111.428 433.008 112.128 432.325C112.845 431.625 113.762 431.275 114.878 431.275C115.995 431.275 116.903 431.625 117.603 432.325C118.32 433.008 118.678 433.958 118.678 435.175C118.678 436.392 118.32 437.35 117.603 438.05C116.903 438.75 115.995 439.1 114.878 439.1C113.762 439.1 112.845 438.75 112.128 438.05C111.428 437.35 111.078 436.392 111.078 435.175ZM126.328 431.6L116.353 449H113.553L123.528 431.6H126.328ZM114.878 433C113.828 433 113.303 433.725 113.303 435.175C113.303 436.642 113.828 437.375 114.878 437.375C115.378 437.375 115.762 437.2 116.028 436.85C116.312 436.483 116.453 435.925 116.453 435.175C116.453 433.725 115.928 433 114.878 433ZM121.253 445.4C121.253 444.183 121.603 443.233 122.303 442.55C123.02 441.85 123.937 441.5 125.053 441.5C126.153 441.5 127.053 441.85 127.753 442.55C128.47 443.233 128.828 444.183 128.828 445.4C128.828 446.617 128.47 447.575 127.753 448.275C127.053 448.975 126.153 449.325 125.053 449.325C123.937 449.325 123.02 448.975 122.303 448.275C121.603 447.575 121.253 446.617 121.253 445.4ZM125.028 443.225C123.978 443.225 123.453 443.95 123.453 445.4C123.453 446.85 123.978 447.575 125.028 447.575C126.078 447.575 126.603 446.85 126.603 445.4C126.603 443.95 126.078 443.225 125.028 443.225Z" fill="#F8951D"/>
<path d="M57.0179 405.38H50.7779V408.14C51.0446 407.847 51.4179 407.607 51.8979 407.42C52.3779 407.233 52.8979 407.14 53.4579 407.14C54.4579 407.14 55.2846 407.367 55.9379 407.82C56.6046 408.273 57.0912 408.86 57.3979 409.58C57.7046 410.3 57.8579 411.08 57.8579 411.92C57.8579 413.48 57.4179 414.72 56.5379 415.64C55.6579 416.547 54.4179 417 52.8179 417C51.7512 417 50.8246 416.82 50.0379 416.46C49.2512 416.087 48.6446 415.573 48.2179 414.92C47.7912 414.267 47.5579 413.513 47.5179 412.66H50.8579C50.9379 413.073 51.1312 413.42 51.4379 413.7C51.7446 413.967 52.1646 414.1 52.6979 414.1C53.3246 414.1 53.7912 413.9 54.0979 413.5C54.4046 413.1 54.5579 412.567 54.5579 411.9C54.5579 411.247 54.3979 410.747 54.0779 410.4C53.7579 410.053 53.2912 409.88 52.6779 409.88C52.2246 409.88 51.8512 409.993 51.5579 410.22C51.2646 410.433 51.0712 410.72 50.9779 411.08H47.6779V402.38H57.0179V405.38ZM59.6257 414.26C60.079 413.9 60.2857 413.733 60.2457 413.76C61.5524 412.68 62.579 411.793 63.3257 411.1C64.0857 410.407 64.7257 409.68 65.2457 408.92C65.7657 408.16 66.0257 407.42 66.0257 406.7C66.0257 406.153 65.899 405.727 65.6457 405.42C65.3924 405.113 65.0124 404.96 64.5057 404.96C63.999 404.96 63.599 405.153 63.3057 405.54C63.0257 405.913 62.8857 406.447 62.8857 407.14H59.5857C59.6124 406.007 59.8524 405.06 60.3057 404.3C60.7724 403.54 61.379 402.98 62.1257 402.62C62.8857 402.26 63.7257 402.08 64.6457 402.08C66.2324 402.08 67.4257 402.487 68.2257 403.3C69.039 404.113 69.4457 405.173 69.4457 406.48C69.4457 407.907 68.959 409.233 67.9857 410.46C67.0124 411.673 65.7724 412.86 64.2657 414.02H69.6657V416.8H59.6257V414.26ZM73.5715 409.16C72.3182 408.493 71.6915 407.447 71.6915 406.02C71.6915 405.3 71.8782 404.647 72.2515 404.06C72.6248 403.46 73.1915 402.987 73.9515 402.64C74.7115 402.28 75.6448 402.1 76.7515 402.1C77.8582 402.1 78.7848 402.28 79.5315 402.64C80.2915 402.987 80.8582 403.46 81.2315 404.06C81.6048 404.647 81.7915 405.3 81.7915 406.02C81.7915 406.74 81.6182 407.367 81.2715 407.9C80.9382 408.433 80.4848 408.853 79.9115 409.16C80.6315 409.507 81.1848 409.987 81.5715 410.6C81.9582 411.2 82.1515 411.907 82.1515 412.72C82.1515 413.667 81.9115 414.487 81.4315 415.18C80.9515 415.86 80.2982 416.38 79.4715 416.74C78.6582 417.1 77.7515 417.28 76.7515 417.28C75.7515 417.28 74.8382 417.1 74.0115 416.74C73.1982 416.38 72.5515 415.86 72.0715 415.18C71.5915 414.487 71.3515 413.667 71.3515 412.72C71.3515 411.893 71.5448 411.18 71.9315 410.58C72.3182 409.967 72.8648 409.493 73.5715 409.16ZM78.4715 406.54C78.4715 405.993 78.3115 405.573 77.9915 405.28C77.6848 404.973 77.2715 404.82 76.7515 404.82C76.2315 404.82 75.8115 404.973 75.4915 405.28C75.1848 405.587 75.0315 406.013 75.0315 406.56C75.0315 407.08 75.1915 407.493 75.5115 407.8C75.8315 408.093 76.2448 408.24 76.7515 408.24C77.2582 408.24 77.6715 408.087 77.9915 407.78C78.3115 407.473 78.4715 407.06 78.4715 406.54ZM76.7515 410.64C76.1248 410.64 75.6182 410.813 75.2315 411.16C74.8448 411.493 74.6515 411.96 74.6515 412.56C74.6515 413.12 74.8382 413.58 75.2115 413.94C75.5982 414.3 76.1115 414.48 76.7515 414.48C77.3915 414.48 77.8915 414.3 78.2515 413.94C78.6248 413.58 78.8115 413.12 78.8115 412.56C78.8115 411.973 78.6182 411.507 78.2315 411.16C77.8582 410.813 77.3648 410.64 76.7515 410.64ZM101.899 402.96L96.9185 417H92.6385L87.6585 402.96H91.2985L94.7785 413.56L98.2785 402.96H101.899ZM102.648 411.4C102.648 410.253 102.861 409.247 103.288 408.38C103.728 407.513 104.321 406.847 105.068 406.38C105.815 405.913 106.648 405.68 107.568 405.68C108.355 405.68 109.041 405.84 109.628 406.16C110.228 406.48 110.688 406.9 111.008 407.42V405.84H114.428V417H111.008V415.42C110.675 415.94 110.208 416.36 109.608 416.68C109.021 417 108.335 417.16 107.548 417.16C106.641 417.16 105.815 416.927 105.068 416.46C104.321 415.98 103.728 415.307 103.288 414.44C102.861 413.56 102.648 412.547 102.648 411.4ZM111.008 411.42C111.008 410.567 110.768 409.893 110.288 409.4C109.821 408.907 109.248 408.66 108.568 408.66C107.888 408.66 107.308 408.907 106.828 409.4C106.361 409.88 106.128 410.547 106.128 411.4C106.128 412.253 106.361 412.933 106.828 413.44C107.308 413.933 107.888 414.18 108.568 414.18C109.248 414.18 109.821 413.933 110.288 413.44C110.768 412.947 111.008 412.273 111.008 411.42ZM127.922 405.84V417H124.502V415.48C124.155 415.973 123.682 416.373 123.082 416.68C122.495 416.973 121.842 417.12 121.122 417.12C120.269 417.12 119.515 416.933 118.862 416.56C118.209 416.173 117.702 415.62 117.342 414.9C116.982 414.18 116.802 413.333 116.802 412.36V405.84H120.202V411.9C120.202 412.647 120.395 413.227 120.782 413.64C121.169 414.053 121.689 414.26 122.342 414.26C123.009 414.26 123.535 414.053 123.922 413.64C124.309 413.227 124.502 412.647 124.502 411.9V405.84H127.922ZM133.799 402.2V417H130.379V402.2H133.799ZM142.497 414.1V417H140.757C139.517 417 138.55 416.7 137.857 416.1C137.164 415.487 136.817 414.493 136.817 413.12V408.68H135.457V405.84H136.817V403.12H140.237V405.84H142.477V408.68H140.237V413.16C140.237 413.493 140.317 413.733 140.477 413.88C140.637 414.027 140.904 414.1 141.277 414.1H142.497Z" fill="white"/>
<path d="M707.075 469.125C708.675 467.742 709.933 466.608 710.85 465.725C711.783 464.825 712.558 463.892 713.175 462.925C713.792 461.958 714.1 460.992 714.1 460.025C714.1 459.025 713.858 458.242 713.375 457.675C712.908 457.108 712.167 456.825 711.15 456.825C710.167 456.825 709.4 457.142 708.85 457.775C708.317 458.392 708.033 459.225 708 460.275H705.25C705.3 458.375 705.867 456.925 706.95 455.925C708.05 454.908 709.442 454.4 711.125 454.4C712.942 454.4 714.358 454.9 715.375 455.9C716.408 456.9 716.925 458.233 716.925 459.9C716.925 461.1 716.617 462.258 716 463.375C715.4 464.475 714.675 465.467 713.825 466.35C712.992 467.217 711.925 468.225 710.625 469.375L709.5 470.375H717.425V472.75H705.275V470.675L707.075 469.125ZM719.929 463.65C719.929 460.767 720.412 458.517 721.379 456.9C722.362 455.267 724.045 454.45 726.429 454.45C728.812 454.45 730.487 455.267 731.454 456.9C732.437 458.517 732.929 460.767 732.929 463.65C732.929 466.567 732.437 468.85 731.454 470.5C730.487 472.133 728.812 472.95 726.429 472.95C724.045 472.95 722.362 472.133 721.379 470.5C720.412 468.85 719.929 466.567 719.929 463.65ZM730.129 463.65C730.129 462.3 730.037 461.158 729.854 460.225C729.687 459.292 729.337 458.533 728.804 457.95C728.27 457.35 727.479 457.05 726.429 457.05C725.379 457.05 724.587 457.35 724.054 457.95C723.52 458.533 723.162 459.292 722.979 460.225C722.812 461.158 722.729 462.3 722.729 463.65C722.729 465.05 722.812 466.225 722.979 467.175C723.145 468.125 723.495 468.892 724.029 469.475C724.579 470.058 725.379 470.35 726.429 470.35C727.479 470.35 728.27 470.058 728.804 469.475C729.354 468.892 729.712 468.125 729.879 467.175C730.045 466.225 730.129 465.05 730.129 463.65ZM737.469 473.175C736.953 473.175 736.519 473 736.169 472.65C735.819 472.3 735.644 471.867 735.644 471.35C735.644 470.833 735.819 470.4 736.169 470.05C736.519 469.7 736.953 469.525 737.469 469.525C737.969 469.525 738.394 469.7 738.744 470.05C739.094 470.4 739.269 470.833 739.269 471.35C739.269 471.867 739.094 472.3 738.744 472.65C738.394 473 737.969 473.175 737.469 473.175ZM741.975 463.65C741.975 460.767 742.458 458.517 743.425 456.9C744.408 455.267 746.091 454.45 748.475 454.45C750.858 454.45 752.533 455.267 753.5 456.9C754.483 458.517 754.975 460.767 754.975 463.65C754.975 466.567 754.483 468.85 753.5 470.5C752.533 472.133 750.858 472.95 748.475 472.95C746.091 472.95 744.408 472.133 743.425 470.5C742.458 468.85 741.975 466.567 741.975 463.65ZM752.175 463.65C752.175 462.3 752.083 461.158 751.9 460.225C751.733 459.292 751.383 458.533 750.85 457.95C750.316 457.35 749.525 457.05 748.475 457.05C747.425 457.05 746.633 457.35 746.1 457.95C745.566 458.533 745.208 459.292 745.025 460.225C744.858 461.158 744.775 462.3 744.775 463.65C744.775 465.05 744.858 466.225 745.025 467.175C745.191 468.125 745.541 468.892 746.075 469.475C746.625 470.058 747.425 470.35 748.475 470.35C749.525 470.35 750.316 470.058 750.85 469.475C751.4 468.892 751.758 468.125 751.925 467.175C752.091 466.225 752.175 465.05 752.175 463.65ZM757.54 459.175C757.54 457.958 757.89 457.008 758.59 456.325C759.307 455.625 760.224 455.275 761.34 455.275C762.457 455.275 763.365 455.625 764.065 456.325C764.782 457.008 765.14 457.958 765.14 459.175C765.14 460.392 764.782 461.35 764.065 462.05C763.365 462.75 762.457 463.1 761.34 463.1C760.224 463.1 759.307 462.75 758.59 462.05C757.89 461.35 757.54 460.392 757.54 459.175ZM772.79 455.6L762.815 473H760.015L769.99 455.6H772.79ZM761.34 457C760.29 457 759.765 457.725 759.765 459.175C759.765 460.642 760.29 461.375 761.34 461.375C761.84 461.375 762.224 461.2 762.49 460.85C762.774 460.483 762.915 459.925 762.915 459.175C762.915 457.725 762.39 457 761.34 457ZM767.715 469.4C767.715 468.183 768.065 467.233 768.765 466.55C769.482 465.85 770.399 465.5 771.515 465.5C772.615 465.5 773.515 465.85 774.215 466.55C774.932 467.233 775.29 468.183 775.29 469.4C775.29 470.617 774.932 471.575 774.215 472.275C773.515 472.975 772.615 473.325 771.515 473.325C770.399 473.325 769.482 472.975 768.765 472.275C768.065 471.575 767.715 470.617 767.715 469.4ZM771.49 467.225C770.44 467.225 769.915 467.95 769.915 469.4C769.915 470.85 770.44 471.575 771.49 471.575C772.54 471.575 773.065 470.85 773.065 469.4C773.065 467.95 772.54 467.225 771.49 467.225Z" fill="#F8951D"/>
<path d="M660.243 439.14C658.923 439.14 657.71 438.833 656.603 438.22C655.51 437.607 654.637 436.753 653.983 435.66C653.343 434.553 653.023 433.313 653.023 431.94C653.023 430.567 653.343 429.333 653.983 428.24C654.637 427.147 655.51 426.293 656.603 425.68C657.71 425.067 658.923 424.76 660.243 424.76C661.563 424.76 662.77 425.067 663.863 425.68C664.97 426.293 665.837 427.147 666.463 428.24C667.103 429.333 667.423 430.567 667.423 431.94C667.423 433.313 667.103 434.553 666.463 435.66C665.823 436.753 664.957 437.607 663.863 438.22C662.77 438.833 661.563 439.14 660.243 439.14ZM660.243 436.02C661.363 436.02 662.257 435.647 662.923 434.9C663.603 434.153 663.943 433.167 663.943 431.94C663.943 430.7 663.603 429.713 662.923 428.98C662.257 428.233 661.363 427.86 660.243 427.86C659.11 427.86 658.203 428.227 657.523 428.96C656.857 429.693 656.523 430.687 656.523 431.94C656.523 433.18 656.857 434.173 657.523 434.92C658.203 435.653 659.11 436.02 660.243 436.02ZM672.746 429.42C673.079 428.9 673.539 428.48 674.126 428.16C674.713 427.84 675.399 427.68 676.186 427.68C677.106 427.68 677.939 427.913 678.686 428.38C679.433 428.847 680.019 429.513 680.446 430.38C680.886 431.247 681.106 432.253 681.106 433.4C681.106 434.547 680.886 435.56 680.446 436.44C680.019 437.307 679.433 437.98 678.686 438.46C677.939 438.927 677.106 439.16 676.186 439.16C675.413 439.16 674.726 439 674.126 438.68C673.539 438.36 673.079 437.947 672.746 437.44V444.32H669.326V427.84H672.746V429.42ZM677.626 433.4C677.626 432.547 677.386 431.88 676.906 431.4C676.439 430.907 675.859 430.66 675.166 430.66C674.486 430.66 673.906 430.907 673.426 431.4C672.959 431.893 672.726 432.567 672.726 433.42C672.726 434.273 672.959 434.947 673.426 435.44C673.906 435.933 674.486 436.18 675.166 436.18C675.846 436.18 676.426 435.933 676.906 435.44C677.386 434.933 677.626 434.253 677.626 433.4ZM693.42 433.24C693.42 433.56 693.4 433.893 693.36 434.24H685.62C685.673 434.933 685.893 435.467 686.28 435.84C686.68 436.2 687.167 436.38 687.74 436.38C688.593 436.38 689.187 436.02 689.52 435.3H693.16C692.973 436.033 692.633 436.693 692.14 437.28C691.66 437.867 691.053 438.327 690.32 438.66C689.587 438.993 688.767 439.16 687.86 439.16C686.767 439.16 685.793 438.927 684.94 438.46C684.087 437.993 683.42 437.327 682.94 436.46C682.46 435.593 682.22 434.58 682.22 433.42C682.22 432.26 682.453 431.247 682.92 430.38C683.4 429.513 684.067 428.847 684.92 428.38C685.773 427.913 686.753 427.68 687.86 427.68C688.94 427.68 689.9 427.907 690.74 428.36C691.58 428.813 692.233 429.46 692.7 430.3C693.18 431.14 693.42 432.12 693.42 433.24ZM689.92 432.34C689.92 431.753 689.72 431.287 689.32 430.94C688.92 430.593 688.42 430.42 687.82 430.42C687.247 430.42 686.76 430.587 686.36 430.92C685.973 431.253 685.733 431.727 685.64 432.34H689.92ZM698.644 429.7C699.044 429.087 699.544 428.607 700.144 428.26C700.744 427.9 701.411 427.72 702.144 427.72V431.34H701.204C700.351 431.34 699.711 431.527 699.284 431.9C698.858 432.26 698.644 432.9 698.644 433.82V439H695.224V427.84H698.644V429.7ZM703.099 433.4C703.099 432.253 703.312 431.247 703.739 430.38C704.179 429.513 704.772 428.847 705.519 428.38C706.266 427.913 707.099 427.68 708.019 427.68C708.806 427.68 709.492 427.84 710.079 428.16C710.679 428.48 711.139 428.9 711.459 429.42V427.84H714.879V439H711.459V437.42C711.126 437.94 710.659 438.36 710.059 438.68C709.472 439 708.786 439.16 707.999 439.16C707.092 439.16 706.266 438.927 705.519 438.46C704.772 437.98 704.179 437.307 703.739 436.44C703.312 435.56 703.099 434.547 703.099 433.4ZM711.459 433.42C711.459 432.567 711.219 431.893 710.739 431.4C710.272 430.907 709.699 430.66 709.019 430.66C708.339 430.66 707.759 430.907 707.279 431.4C706.812 431.88 706.579 432.547 706.579 433.4C706.579 434.253 706.812 434.933 707.279 435.44C707.759 435.933 708.339 436.18 709.019 436.18C709.699 436.18 710.272 435.933 710.739 435.44C711.219 434.947 711.459 434.273 711.459 433.42ZM723.573 436.1V439H721.833C720.593 439 719.627 438.7 718.933 438.1C718.24 437.487 717.893 436.493 717.893 435.12V430.68H716.533V427.84H717.893V425.12H721.313V427.84H723.553V430.68H721.313V435.16C721.313 435.493 721.393 435.733 721.553 435.88C721.713 436.027 721.98 436.1 722.353 436.1H723.573ZM727.198 426.68C726.598 426.68 726.105 426.507 725.718 426.16C725.345 425.8 725.158 425.36 725.158 424.84C725.158 424.307 725.345 423.867 725.718 423.52C726.105 423.16 726.598 422.98 727.198 422.98C727.785 422.98 728.265 423.16 728.638 423.52C729.025 423.867 729.218 424.307 729.218 424.84C729.218 425.36 729.025 425.8 728.638 426.16C728.265 426.507 727.785 426.68 727.198 426.68ZM728.898 427.84V439H725.478V427.84H728.898ZM736.457 439.16C735.363 439.16 734.377 438.927 733.497 438.46C732.63 437.993 731.943 437.327 731.437 436.46C730.943 435.593 730.697 434.58 730.697 433.42C730.697 432.273 730.95 431.267 731.457 430.4C731.963 429.52 732.657 428.847 733.537 428.38C734.417 427.913 735.403 427.68 736.497 427.68C737.59 427.68 738.577 427.913 739.457 428.38C740.337 428.847 741.03 429.52 741.537 430.4C742.043 431.267 742.297 432.273 742.297 433.42C742.297 434.567 742.037 435.58 741.517 436.46C741.01 437.327 740.31 437.993 739.417 438.46C738.537 438.927 737.55 439.16 736.457 439.16ZM736.457 436.2C737.11 436.2 737.663 435.96 738.117 435.48C738.583 435 738.817 434.313 738.817 433.42C738.817 432.527 738.59 431.84 738.137 431.36C737.697 430.88 737.15 430.64 736.497 430.64C735.83 430.64 735.277 430.88 734.837 431.36C734.397 431.827 734.177 432.513 734.177 433.42C734.177 434.313 734.39 435 734.817 435.48C735.257 435.96 735.803 436.2 736.457 436.2ZM750.911 427.72C752.218 427.72 753.258 428.147 754.031 429C754.818 429.84 755.211 431 755.211 432.48V439H751.811V432.94C751.811 432.193 751.618 431.613 751.231 431.2C750.844 430.787 750.324 430.58 749.671 430.58C749.018 430.58 748.498 430.787 748.111 431.2C747.724 431.613 747.531 432.193 747.531 432.94V439H744.111V427.84H747.531V429.32C747.878 428.827 748.344 428.44 748.931 428.16C749.518 427.867 750.178 427.72 750.911 427.72ZM756.908 433.4C756.908 432.253 757.121 431.247 757.548 430.38C757.988 429.513 758.581 428.847 759.328 428.38C760.074 427.913 760.908 427.68 761.828 427.68C762.614 427.68 763.301 427.84 763.888 428.16C764.488 428.48 764.948 428.9 765.268 429.42V427.84H768.688V439H765.268V437.42C764.934 437.94 764.468 438.36 763.868 438.68C763.281 439 762.594 439.16 761.808 439.16C760.901 439.16 760.074 438.927 759.328 438.46C758.581 437.98 757.988 437.307 757.548 436.44C757.121 435.56 756.908 434.547 756.908 433.4ZM765.268 433.42C765.268 432.567 765.028 431.893 764.548 431.4C764.081 430.907 763.508 430.66 762.828 430.66C762.148 430.66 761.568 430.907 761.088 431.4C760.621 431.88 760.388 432.547 760.388 433.4C760.388 434.253 760.621 434.933 761.088 435.44C761.568 435.933 762.148 436.18 762.828 436.18C763.508 436.18 764.081 435.933 764.548 435.44C765.028 434.947 765.268 434.273 765.268 433.42ZM774.582 424.2V439H771.162V424.2H774.582ZM784.719 427.7V430.54H789.299V433.18H784.719V436.26H789.899V439H781.299V424.96H789.899V427.7H784.719ZM798.719 439L796.579 435.9L794.779 439H791.079L794.759 433.3L790.979 427.84H794.819L796.959 430.92L798.759 427.84H802.459L798.719 433.46L802.559 439H798.719Z" fill="white"/>
<path d="M682.45 39.275C682.55 37.725 683.142 36.5167 684.225 35.65C685.325 34.7833 686.725 34.35 688.425 34.35C689.592 34.35 690.6 34.5583 691.45 34.975C692.3 35.3917 692.942 35.9583 693.375 36.675C693.808 37.3917 694.025 38.2 694.025 39.1C694.025 40.1333 693.75 41.0167 693.2 41.75C692.65 42.4833 691.992 42.975 691.225 43.225V43.325C692.208 43.625 692.975 44.175 693.525 44.975C694.075 45.7583 694.35 46.7667 694.35 48C694.35 48.9833 694.125 49.8583 693.675 50.625C693.225 51.3917 692.558 52 691.675 52.45C690.792 52.8833 689.733 53.1 688.5 53.1C686.7 53.1 685.217 52.6417 684.05 51.725C682.9 50.7917 682.283 49.4583 682.2 47.725H684.95C685.017 48.6083 685.358 49.3333 685.975 49.9C686.592 50.45 687.425 50.725 688.475 50.725C689.492 50.725 690.275 50.45 690.825 49.9C691.375 49.3333 691.65 48.6083 691.65 47.725C691.65 46.5583 691.275 45.7333 690.525 45.25C689.792 44.75 688.658 44.5 687.125 44.5H686.475V42.15H687.15C688.5 42.1333 689.525 41.9083 690.225 41.475C690.942 41.0417 691.3 40.3583 691.3 39.425C691.3 38.625 691.042 37.9917 690.525 37.525C690.008 37.0417 689.275 36.8 688.325 36.8C687.392 36.8 686.667 37.0417 686.15 37.525C685.633 37.9917 685.325 38.575 685.225 39.275H682.45ZM697.344 43.65C697.344 40.7667 697.827 38.5167 698.794 36.9C699.777 35.2667 701.46 34.45 703.844 34.45C706.227 34.45 707.902 35.2667 708.869 36.9C709.852 38.5167 710.344 40.7667 710.344 43.65C710.344 46.5667 709.852 48.85 708.869 50.5C707.902 52.1333 706.227 52.95 703.844 52.95C701.46 52.95 699.777 52.1333 698.794 50.5C697.827 48.85 697.344 46.5667 697.344 43.65ZM707.544 43.65C707.544 42.3 707.452 41.1583 707.269 40.225C707.102 39.2917 706.752 38.5333 706.219 37.95C705.685 37.35 704.894 37.05 703.844 37.05C702.794 37.05 702.002 37.35 701.469 37.95C700.935 38.5333 700.577 39.2917 700.394 40.225C700.227 41.1583 700.144 42.3 700.144 43.65C700.144 45.05 700.227 46.225 700.394 47.175C700.56 48.125 700.91 48.8917 701.444 49.475C701.994 50.0583 702.794 50.35 703.844 50.35C704.894 50.35 705.685 50.0583 706.219 49.475C706.769 48.8917 707.127 48.125 707.294 47.175C707.46 46.225 707.544 45.05 707.544 43.65ZM714.884 53.175C714.368 53.175 713.934 53 713.584 52.65C713.234 52.3 713.059 51.8667 713.059 51.35C713.059 50.8333 713.234 50.4 713.584 50.05C713.934 49.7 714.368 49.525 714.884 49.525C715.384 49.525 715.809 49.7 716.159 50.05C716.509 50.4 716.684 50.8333 716.684 51.35C716.684 51.8667 716.509 52.3 716.159 52.65C715.809 53 715.384 53.175 714.884 53.175ZM719.39 43.65C719.39 40.7667 719.873 38.5167 720.84 36.9C721.823 35.2667 723.506 34.45 725.89 34.45C728.273 34.45 729.948 35.2667 730.915 36.9C731.898 38.5167 732.39 40.7667 732.39 43.65C732.39 46.5667 731.898 48.85 730.915 50.5C729.948 52.1333 728.273 52.95 725.89 52.95C723.506 52.95 721.823 52.1333 720.84 50.5C719.873 48.85 719.39 46.5667 719.39 43.65ZM729.59 43.65C729.59 42.3 729.498 41.1583 729.315 40.225C729.148 39.2917 728.798 38.5333 728.265 37.95C727.731 37.35 726.94 37.05 725.89 37.05C724.84 37.05 724.048 37.35 723.515 37.95C722.981 38.5333 722.623 39.2917 722.44 40.225C722.273 41.1583 722.19 42.3 722.19 43.65C722.19 45.05 722.273 46.225 722.44 47.175C722.606 48.125 722.956 48.8917 723.49 49.475C724.04 50.0583 724.84 50.35 725.89 50.35C726.94 50.35 727.731 50.0583 728.265 49.475C728.815 48.8917 729.173 48.125 729.34 47.175C729.506 46.225 729.59 45.05 729.59 43.65ZM734.955 39.175C734.955 37.9583 735.305 37.0083 736.005 36.325C736.722 35.625 737.639 35.275 738.755 35.275C739.872 35.275 740.78 35.625 741.48 36.325C742.197 37.0083 742.555 37.9583 742.555 39.175C742.555 40.3917 742.197 41.35 741.48 42.05C740.78 42.75 739.872 43.1 738.755 43.1C737.639 43.1 736.722 42.75 736.005 42.05C735.305 41.35 734.955 40.3917 734.955 39.175ZM750.205 35.6L740.23 53H737.43L747.405 35.6H750.205ZM738.755 37C737.705 37 737.18 37.725 737.18 39.175C737.18 40.6417 737.705 41.375 738.755 41.375C739.255 41.375 739.639 41.2 739.905 40.85C740.189 40.4833 740.33 39.925 740.33 39.175C740.33 37.725 739.805 37 738.755 37ZM745.13 49.4C745.13 48.1833 745.48 47.2333 746.18 46.55C746.897 45.85 747.814 45.5 748.93 45.5C750.03 45.5 750.93 45.85 751.63 46.55C752.347 47.2333 752.705 48.1833 752.705 49.4C752.705 50.6167 752.347 51.575 751.63 52.275C750.93 52.975 750.03 53.325 748.93 53.325C747.814 53.325 746.897 52.975 746.18 52.275C745.48 51.575 745.13 50.6167 745.13 49.4ZM748.905 47.225C747.855 47.225 747.33 47.95 747.33 49.4C747.33 50.85 747.855 51.575 748.905 51.575C749.955 51.575 750.48 50.85 750.48 49.4C750.48 47.95 749.955 47.225 748.905 47.225Z" fill="#F8951D"/>
<path d="M648.14 7.96V22H644.72V13.58L641.58 22H638.82L635.66 13.56V22H632.24V7.96H636.28L640.22 17.68L644.12 7.96H648.14ZM649.919 16.4C649.919 15.2533 650.133 14.2467 650.559 13.38C650.999 12.5133 651.593 11.8467 652.339 11.38C653.086 10.9133 653.919 10.68 654.839 10.68C655.626 10.68 656.313 10.84 656.899 11.16C657.499 11.48 657.959 11.9 658.279 12.42V10.84H661.699V22H658.279V20.42C657.946 20.94 657.479 21.36 656.879 21.68C656.293 22 655.606 22.16 654.819 22.16C653.913 22.16 653.086 21.9267 652.339 21.46C651.593 20.98 650.999 20.3067 650.559 19.44C650.133 18.56 649.919 17.5467 649.919 16.4ZM658.279 16.42C658.279 15.5667 658.039 14.8933 657.559 14.4C657.093 13.9067 656.519 13.66 655.839 13.66C655.159 13.66 654.579 13.9067 654.099 14.4C653.633 14.88 653.399 15.5467 653.399 16.4C653.399 17.2533 653.633 17.9333 654.099 18.44C654.579 18.9333 655.159 19.18 655.839 19.18C656.519 19.18 657.093 18.9333 657.559 18.44C658.039 17.9467 658.279 17.2733 658.279 16.42ZM667.594 12.7C667.994 12.0867 668.494 11.6067 669.094 11.26C669.694 10.9 670.36 10.72 671.094 10.72V14.34H670.154C669.3 14.34 668.66 14.5267 668.234 14.9C667.807 15.26 667.594 15.9 667.594 16.82V22H664.174V10.84H667.594V12.7ZM679.548 22L676.148 17.32V22H672.728V7.2H676.148V15.38L679.528 10.84H683.748L679.108 16.44L683.788 22H679.548ZM695.612 16.24C695.612 16.56 695.592 16.8933 695.552 17.24H687.812C687.865 17.9333 688.085 18.4667 688.472 18.84C688.872 19.2 689.358 19.38 689.932 19.38C690.785 19.38 691.378 19.02 691.712 18.3H695.352C695.165 19.0333 694.825 19.6933 694.332 20.28C693.852 20.8667 693.245 21.3267 692.512 21.66C691.778 21.9933 690.958 22.16 690.052 22.16C688.958 22.16 687.985 21.9267 687.132 21.46C686.278 20.9933 685.612 20.3267 685.132 19.46C684.652 18.5933 684.412 17.58 684.412 16.42C684.412 15.26 684.645 14.2467 685.112 13.38C685.592 12.5133 686.258 11.8467 687.112 11.38C687.965 10.9133 688.945 10.68 690.052 10.68C691.132 10.68 692.092 10.9067 692.932 11.36C693.772 11.8133 694.425 12.46 694.892 13.3C695.372 14.14 695.612 15.12 695.612 16.24ZM692.112 15.34C692.112 14.7533 691.912 14.2867 691.512 13.94C691.112 13.5933 690.612 13.42 690.012 13.42C689.438 13.42 688.952 13.5867 688.552 13.92C688.165 14.2533 687.925 14.7267 687.832 15.34H692.112ZM703.636 19.1V22H701.896C700.656 22 699.689 21.7 698.996 21.1C698.302 20.4867 697.956 19.4933 697.956 18.12V13.68H696.596V10.84H697.956V8.12H701.376V10.84H703.616V13.68H701.376V18.16C701.376 18.4933 701.456 18.7333 701.616 18.88C701.776 19.0267 702.042 19.1 702.416 19.1H703.636ZM715.039 7.96C716.519 7.96 717.812 8.25333 718.919 8.84C720.026 9.42667 720.879 10.2533 721.479 11.32C722.092 12.3733 722.399 13.5933 722.399 14.98C722.399 16.3533 722.092 17.5733 721.479 18.64C720.879 19.7067 720.019 20.5333 718.899 21.12C717.792 21.7067 716.506 22 715.039 22H709.779V7.96H715.039ZM714.819 19.04C716.112 19.04 717.119 18.6867 717.839 17.98C718.559 17.2733 718.919 16.2733 718.919 14.98C718.919 13.6867 718.559 12.68 717.839 11.96C717.119 11.24 716.112 10.88 714.819 10.88H713.199V19.04H714.819ZM734.83 16.24C734.83 16.56 734.81 16.8933 734.77 17.24H727.03C727.084 17.9333 727.304 18.4667 727.69 18.84C728.09 19.2 728.577 19.38 729.15 19.38C730.004 19.38 730.597 19.02 730.93 18.3H734.57C734.384 19.0333 734.044 19.6933 733.55 20.28C733.07 20.8667 732.464 21.3267 731.73 21.66C730.997 21.9933 730.177 22.16 729.27 22.16C728.177 22.16 727.204 21.9267 726.35 21.46C725.497 20.9933 724.83 20.3267 724.35 19.46C723.87 18.5933 723.63 17.58 723.63 16.42C723.63 15.26 723.864 14.2467 724.33 13.38C724.81 12.5133 725.477 11.8467 726.33 11.38C727.184 10.9133 728.164 10.68 729.27 10.68C730.35 10.68 731.31 10.9067 732.15 11.36C732.99 11.8133 733.644 12.46 734.11 13.3C734.59 14.14 734.83 15.12 734.83 16.24ZM731.33 15.34C731.33 14.7533 731.13 14.2867 730.73 13.94C730.33 13.5933 729.83 13.42 729.23 13.42C728.657 13.42 728.17 13.5867 727.77 13.92C727.384 14.2533 727.144 14.7267 727.05 15.34H731.33ZM741.655 18.8L744.075 10.84H747.715L743.755 22H739.535L735.575 10.84H739.235L741.655 18.8ZM759.674 16.24C759.674 16.56 759.654 16.8933 759.614 17.24H751.874C751.927 17.9333 752.147 18.4667 752.534 18.84C752.934 19.2 753.421 19.38 753.994 19.38C754.847 19.38 755.441 19.02 755.774 18.3H759.414C759.227 19.0333 758.887 19.6933 758.394 20.28C757.914 20.8667 757.307 21.3267 756.574 21.66C755.841 21.9933 755.021 22.16 754.114 22.16C753.021 22.16 752.047 21.9267 751.194 21.46C750.341 20.9933 749.674 20.3267 749.194 19.46C748.714 18.5933 748.474 17.58 748.474 16.42C748.474 15.26 748.707 14.2467 749.174 13.38C749.654 12.5133 750.321 11.8467 751.174 11.38C752.027 10.9133 753.007 10.68 754.114 10.68C755.194 10.68 756.154 10.9067 756.994 11.36C757.834 11.8133 758.487 12.46 758.954 13.3C759.434 14.14 759.674 15.12 759.674 16.24ZM756.174 15.34C756.174 14.7533 755.974 14.2867 755.574 13.94C755.174 13.5933 754.674 13.42 754.074 13.42C753.501 13.42 753.014 13.5867 752.614 13.92C752.227 14.2533 751.987 14.7267 751.894 15.34H756.174ZM764.898 7.2V22H761.478V7.2H764.898ZM772.457 22.16C771.363 22.16 770.377 21.9267 769.497 21.46C768.63 20.9933 767.943 20.3267 767.437 19.46C766.943 18.5933 766.697 17.58 766.697 16.42C766.697 15.2733 766.95 14.2667 767.457 13.4C767.963 12.52 768.657 11.8467 769.537 11.38C770.417 10.9133 771.403 10.68 772.497 10.68C773.59 10.68 774.577 10.9133 775.457 11.38C776.337 11.8467 777.03 12.52 777.537 13.4C778.043 14.2667 778.297 15.2733 778.297 16.42C778.297 17.5667 778.037 18.58 777.517 19.46C777.01 20.3267 776.31 20.9933 775.417 21.46C774.537 21.9267 773.55 22.16 772.457 22.16ZM772.457 19.2C773.11 19.2 773.663 18.96 774.117 18.48C774.583 18 774.817 17.3133 774.817 16.42C774.817 15.5267 774.59 14.84 774.137 14.36C773.697 13.88 773.15 13.64 772.497 13.64C771.83 13.64 771.277 13.88 770.837 14.36C770.397 14.8267 770.177 15.5133 770.177 16.42C770.177 17.3133 770.39 18 770.817 18.48C771.257 18.96 771.803 19.2 772.457 19.2ZM783.531 12.42C783.864 11.9 784.324 11.48 784.911 11.16C785.498 10.84 786.184 10.68 786.971 10.68C787.891 10.68 788.724 10.9133 789.471 11.38C790.218 11.8467 790.804 12.5133 791.231 13.38C791.671 14.2467 791.891 15.2533 791.891 16.4C791.891 17.5467 791.671 18.56 791.231 19.44C790.804 20.3067 790.218 20.98 789.471 21.46C788.724 21.9267 787.891 22.16 786.971 22.16C786.198 22.16 785.511 22 784.911 21.68C784.324 21.36 783.864 20.9467 783.531 20.44V27.32H780.111V10.84H783.531V12.42ZM788.411 16.4C788.411 15.5467 788.171 14.88 787.691 14.4C787.224 13.9067 786.644 13.66 785.951 13.66C785.271 13.66 784.691 13.9067 784.211 14.4C783.744 14.8933 783.511 15.5667 783.511 16.42C783.511 17.2733 783.744 17.9467 784.211 18.44C784.691 18.9333 785.271 19.18 785.951 19.18C786.631 19.18 787.211 18.9333 787.691 18.44C788.171 17.9333 788.411 17.2533 788.411 16.4Z" fill="white"/>
</svg>
