<svg width="730" height="819" viewBox="0 0 730 819" fill="none" xmlns="http://www.w3.org/2000/svg">
<circle cx="347" cy="447" r="246" fill="#1F1606"/>
<path d="M593 447C593 413.727 586.25 380.799 573.159 350.21C560.067 319.62 540.906 292.005 516.835 269.033C492.764 246.062 464.282 228.213 433.114 216.565C401.947 204.917 368.74 199.714 335.503 201.269C302.266 202.824 269.69 211.105 239.746 225.612C209.802 240.119 183.111 260.55 161.29 285.668C139.469 310.787 122.97 340.071 112.792 371.749C102.614 403.428 98.9679 436.841 102.075 469.969L347 447H593Z" fill="#87260A"/>
<path d="M593 447C593 395.947 577.116 346.158 547.55 304.537C517.984 262.916 476.201 231.525 427.994 214.716L347 447H593Z" fill="#C27518"/>
<path d="M460.838 665.075C501 644.11 534.592 612.462 557.911 573.619C581.23 534.777 593.37 490.249 592.991 444.946L347 447L460.838 665.075Z" fill="#197B93"/>
<circle cx="347" cy="447" r="246" fill="#160D01"/>
<mask id="path-6-inside-1_1389_1102" fill="white">
<path d="M593 447C593 410.829 585.023 375.103 569.639 342.367C554.254 309.631 531.839 280.69 503.991 257.607C476.144 234.524 443.548 217.865 408.527 208.818C373.505 199.772 336.92 198.559 301.376 205.268C265.833 211.976 232.206 226.44 202.891 247.629C173.576 268.819 149.295 296.212 131.777 327.857C114.258 359.503 103.934 394.623 101.54 430.714C99.1451 466.806 104.739 502.982 117.923 536.664L347 447H593Z"/>
</mask>
<path d="M593 447C593 410.829 585.023 375.103 569.639 342.367C554.254 309.631 531.839 280.69 503.991 257.607C476.144 234.524 443.548 217.865 408.527 208.818C373.505 199.772 336.92 198.559 301.376 205.268C265.833 211.976 232.206 226.44 202.891 247.629C173.576 268.819 149.295 296.212 131.777 327.857C114.258 359.503 103.934 394.623 101.54 430.714C99.1451 466.806 104.739 502.982 117.923 536.664L347 447H593Z" fill="#2C2102" stroke="#979797" stroke-width="2" mask="url(#path-6-inside-1_1389_1102)"/>
<mask id="path-7-inside-2_1389_1102" fill="white">
<path d="M593 447C593 409.415 584.388 372.33 567.825 338.592C551.262 304.854 527.189 275.359 497.453 252.373C467.717 229.386 433.11 213.518 396.287 205.988C359.465 198.458 321.406 199.465 285.034 208.932L347 447H593Z"/>
</mask>
<path d="M593 447C593 409.415 584.388 372.33 567.825 338.592C551.262 304.854 527.189 275.359 497.453 252.373C467.717 229.386 433.11 213.518 396.287 205.988C359.465 198.458 321.406 199.465 285.034 208.932L347 447H593Z" fill="#795C09" stroke="#979797" stroke-width="2" mask="url(#path-7-inside-2_1389_1102)"/>
<mask id="path-8-inside-3_1389_1102" fill="white">
<path d="M285.53 208.804C232.448 222.502 185.463 253.539 152.033 296.987L347 447L285.53 208.804Z"/>
</mask>
<path d="M285.53 208.804C232.448 222.502 185.463 253.539 152.033 296.987L347 447L285.53 208.804Z" fill="#241803" stroke="#979797" stroke-width="2" mask="url(#path-8-inside-3_1389_1102)"/>
<mask id="path-9-inside-4_1389_1102" fill="white">
<path d="M593 447C593 395.947 577.116 346.158 547.55 304.537C517.984 262.916 476.201 231.525 427.994 214.716L347 447H593Z"/>
</mask>
<path d="M593 447C593 395.947 577.116 346.158 547.55 304.537C517.984 262.916 476.201 231.525 427.994 214.716L347 447H593Z" fill="#1F1702" stroke="#979797" stroke-width="2" mask="url(#path-9-inside-4_1389_1102)"/>
<mask id="path-10-inside-5_1389_1102" fill="white">
<path d="M493.283 644.781C529.707 617.841 557.985 581.365 574.997 539.376C592.009 497.387 597.096 451.515 589.696 406.819L347 447L493.283 644.781Z"/>
</mask>
<path d="M493.283 644.781C529.707 617.841 557.985 581.365 574.997 539.376C592.009 497.387 597.096 451.515 589.696 406.819L347 447L493.283 644.781Z" fill="#87510F" stroke="#979797" stroke-width="2" mask="url(#path-10-inside-5_1389_1102)"/>
<line x1="350.5" y1="201" x2="350.5" y2="66" stroke="white"/>
<line x1="164.5" y1="280" x2="164.5" y2="145" stroke="white"/>
<path d="M385.555 61.765C385.555 60.745 385.79 59.83 386.26 59.02C386.74 58.21 387.385 57.58 388.195 57.13C389.015 56.67 389.91 56.44 390.88 56.44C391.99 56.44 392.975 56.715 393.835 57.265C394.705 57.805 395.335 58.575 395.725 59.575H393.67C393.4 59.025 393.025 58.615 392.545 58.345C392.065 58.075 391.51 57.94 390.88 57.94C390.19 57.94 389.575 58.095 389.035 58.405C388.495 58.715 388.07 59.16 387.76 59.74C387.46 60.32 387.31 60.995 387.31 61.765C387.31 62.535 387.46 63.21 387.76 63.79C388.07 64.37 388.495 64.82 389.035 65.14C389.575 65.45 390.19 65.605 390.88 65.605C391.51 65.605 392.065 65.47 392.545 65.2C393.025 64.93 393.4 64.52 393.67 63.97H395.725C395.335 64.97 394.705 65.74 393.835 66.28C392.975 66.82 391.99 67.09 390.88 67.09C389.9 67.09 389.005 66.865 388.195 66.415C387.385 65.955 386.74 65.32 386.26 64.51C385.79 63.7 385.555 62.785 385.555 61.765ZM401.312 67.135C400.532 67.135 399.827 66.96 399.197 66.61C398.567 66.25 398.072 65.75 397.712 65.11C397.352 64.46 397.172 63.71 397.172 62.86C397.172 62.02 397.357 61.275 397.727 60.625C398.097 59.975 398.602 59.475 399.242 59.125C399.882 58.775 400.597 58.6 401.387 58.6C402.177 58.6 402.892 58.775 403.532 59.125C404.172 59.475 404.677 59.975 405.047 60.625C405.417 61.275 405.602 62.02 405.602 62.86C405.602 63.7 405.412 64.445 405.032 65.095C404.652 65.745 404.132 66.25 403.472 66.61C402.822 66.96 402.102 67.135 401.312 67.135ZM401.312 65.65C401.752 65.65 402.162 65.545 402.542 65.335C402.932 65.125 403.247 64.81 403.487 64.39C403.727 63.97 403.847 63.46 403.847 62.86C403.847 62.26 403.732 61.755 403.502 61.345C403.272 60.925 402.967 60.61 402.587 60.4C402.207 60.19 401.797 60.085 401.357 60.085C400.917 60.085 400.507 60.19 400.127 60.4C399.757 60.61 399.462 60.925 399.242 61.345C399.022 61.755 398.912 62.26 398.912 62.86C398.912 63.75 399.137 64.44 399.587 64.93C400.047 65.41 400.622 65.65 401.312 65.65ZM411.462 58.6C412.112 58.6 412.692 58.735 413.202 59.005C413.722 59.275 414.127 59.675 414.417 60.205C414.707 60.735 414.852 61.375 414.852 62.125V67H413.157V62.38C413.157 61.64 412.972 61.075 412.602 60.685C412.232 60.285 411.727 60.085 411.087 60.085C410.447 60.085 409.937 60.285 409.557 60.685C409.187 61.075 409.002 61.64 409.002 62.38V67H407.292V58.735H409.002V59.68C409.282 59.34 409.637 59.075 410.067 58.885C410.507 58.695 410.972 58.6 411.462 58.6ZM420.033 67.135C419.383 67.135 418.798 67.02 418.278 66.79C417.768 66.55 417.363 66.23 417.063 65.83C416.763 65.42 416.603 64.965 416.583 64.465H418.353C418.383 64.815 418.548 65.11 418.848 65.35C419.158 65.58 419.543 65.695 420.003 65.695C420.483 65.695 420.853 65.605 421.113 65.425C421.383 65.235 421.518 64.995 421.518 64.705C421.518 64.395 421.368 64.165 421.068 64.015C420.778 63.865 420.313 63.7 419.673 63.52C419.053 63.35 418.548 63.185 418.158 63.025C417.768 62.865 417.428 62.62 417.138 62.29C416.858 61.96 416.718 61.525 416.718 60.985C416.718 60.545 416.848 60.145 417.108 59.785C417.368 59.415 417.738 59.125 418.218 58.915C418.708 58.705 419.268 58.6 419.898 58.6C420.838 58.6 421.593 58.84 422.163 59.32C422.743 59.79 423.053 60.435 423.093 61.255H421.383C421.353 60.885 421.203 60.59 420.933 60.37C420.663 60.15 420.298 60.04 419.838 60.04C419.388 60.04 419.043 60.125 418.803 60.295C418.563 60.465 418.443 60.69 418.443 60.97C418.443 61.19 418.523 61.375 418.683 61.525C418.843 61.675 419.038 61.795 419.268 61.885C419.498 61.965 419.838 62.07 420.288 62.2C420.888 62.36 421.378 62.525 421.758 62.695C422.148 62.855 422.483 63.095 422.763 63.415C423.043 63.735 423.188 64.16 423.198 64.69C423.198 65.16 423.068 65.58 422.808 65.95C422.548 66.32 422.178 66.61 421.698 66.82C421.228 67.03 420.673 67.135 420.033 67.135ZM432.531 58.735V67H430.821V66.025C430.551 66.365 430.196 66.635 429.756 66.835C429.326 67.025 428.866 67.12 428.376 67.12C427.726 67.12 427.141 66.985 426.621 66.715C426.111 66.445 425.706 66.045 425.406 65.515C425.116 64.985 424.971 64.345 424.971 63.595V58.735H426.666V63.34C426.666 64.08 426.851 64.65 427.221 65.05C427.591 65.44 428.096 65.635 428.736 65.635C429.376 65.635 429.881 65.44 430.251 65.05C430.631 64.65 430.821 64.08 430.821 63.34V58.735H432.531ZM436.497 55.9V67H434.787V55.9H436.497ZM440.737 60.13V64.705C440.737 65.015 440.807 65.24 440.947 65.38C441.097 65.51 441.347 65.575 441.697 65.575H442.747V67H441.397C440.627 67 440.037 66.82 439.627 66.46C439.217 66.1 439.012 65.515 439.012 64.705V60.13H438.037V58.735H439.012V56.68H440.737V58.735H442.747V60.13H440.737ZM443.753 62.83C443.753 62 443.923 61.265 444.263 60.625C444.613 59.985 445.083 59.49 445.673 59.14C446.273 58.78 446.933 58.6 447.653 58.6C448.303 58.6 448.868 58.73 449.348 58.99C449.838 59.24 450.228 59.555 450.518 59.935V58.735H452.243V67H450.518V65.77C450.228 66.16 449.833 66.485 449.333 66.745C448.833 67.005 448.263 67.135 447.623 67.135C446.913 67.135 446.263 66.955 445.673 66.595C445.083 66.225 444.613 65.715 444.263 65.065C443.923 64.405 443.753 63.66 443.753 62.83ZM450.518 62.86C450.518 62.29 450.398 61.795 450.158 61.375C449.928 60.955 449.623 60.635 449.243 60.415C448.863 60.195 448.453 60.085 448.013 60.085C447.573 60.085 447.163 60.195 446.783 60.415C446.403 60.625 446.093 60.94 445.853 61.36C445.623 61.77 445.508 62.26 445.508 62.83C445.508 63.4 445.623 63.9 445.853 64.33C446.093 64.76 446.403 65.09 446.783 65.32C447.173 65.54 447.583 65.65 448.013 65.65C448.453 65.65 448.863 65.54 449.243 65.32C449.623 65.1 449.928 64.78 450.158 64.36C450.398 63.93 450.518 63.43 450.518 62.86ZM458.659 58.6C459.309 58.6 459.889 58.735 460.399 59.005C460.919 59.275 461.324 59.675 461.614 60.205C461.904 60.735 462.049 61.375 462.049 62.125V67H460.354V62.38C460.354 61.64 460.169 61.075 459.799 60.685C459.429 60.285 458.924 60.085 458.284 60.085C457.644 60.085 457.134 60.285 456.754 60.685C456.384 61.075 456.199 61.64 456.199 62.38V67H454.489V58.735H456.199V59.68C456.479 59.34 456.834 59.075 457.264 58.885C457.704 58.695 458.169 58.6 458.659 58.6ZM466.225 60.13V64.705C466.225 65.015 466.295 65.24 466.435 65.38C466.585 65.51 466.835 65.575 467.185 65.575H468.235V67H466.885C466.115 67 465.525 66.82 465.115 66.46C464.705 66.1 464.5 65.515 464.5 64.705V60.13H463.525V58.735H464.5V56.68H466.225V58.735H468.235V60.13H466.225ZM394.18 82L392.89 80.71C392.39 81.21 391.845 81.585 391.255 81.835C390.665 82.075 390.005 82.195 389.275 82.195C388.535 82.195 387.88 82.065 387.31 81.805C386.74 81.545 386.3 81.175 385.99 80.695C385.68 80.205 385.525 79.64 385.525 79C385.525 78.28 385.73 77.64 386.14 77.08C386.55 76.51 387.16 76.06 387.97 75.73C387.68 75.38 387.475 75.055 387.355 74.755C387.235 74.445 387.175 74.105 387.175 73.735C387.175 73.275 387.29 72.865 387.52 72.505C387.76 72.145 388.1 71.86 388.54 71.65C388.98 71.44 389.49 71.335 390.07 71.335C390.66 71.335 391.16 71.45 391.57 71.68C391.99 71.9 392.3 72.205 392.5 72.595C392.71 72.985 392.795 73.42 392.755 73.9H391.045C391.055 73.53 390.965 73.245 390.775 73.045C390.585 72.835 390.325 72.73 389.995 72.73C389.665 72.73 389.395 72.83 389.185 73.03C388.985 73.22 388.885 73.455 388.885 73.735C388.885 74.005 388.96 74.275 389.11 74.545C389.27 74.805 389.545 75.145 389.935 75.565L392.695 78.31L393.76 76.555H395.605L394.255 78.865L393.88 79.48L396.415 82H394.18ZM389.275 80.74C390.215 80.74 391.045 80.355 391.765 79.585L389.005 76.81C387.825 77.28 387.235 77.99 387.235 78.94C387.235 79.45 387.425 79.88 387.805 80.23C388.185 80.57 388.675 80.74 389.275 80.74ZM407.718 79.87H403.353L402.603 82H400.818L404.553 71.56H406.533L410.268 82H408.468L407.718 79.87ZM407.238 78.475L405.543 73.63L403.833 78.475H407.238ZM411.322 77.83C411.322 77 411.492 76.265 411.832 75.625C412.182 74.985 412.652 74.49 413.242 74.14C413.842 73.78 414.507 73.6 415.237 73.6C415.777 73.6 416.307 73.72 416.827 73.96C417.357 74.19 417.777 74.5 418.087 74.89V70.9H419.812V82H418.087V80.755C417.807 81.155 417.417 81.485 416.917 81.745C416.427 82.005 415.862 82.135 415.222 82.135C414.502 82.135 413.842 81.955 413.242 81.595C412.652 81.225 412.182 80.715 411.832 80.065C411.492 79.405 411.322 78.66 411.322 77.83ZM418.087 77.86C418.087 77.29 417.967 76.795 417.727 76.375C417.497 75.955 417.192 75.635 416.812 75.415C416.432 75.195 416.022 75.085 415.582 75.085C415.142 75.085 414.732 75.195 414.352 75.415C413.972 75.625 413.662 75.94 413.422 76.36C413.192 76.77 413.077 77.26 413.077 77.83C413.077 78.4 413.192 78.9 413.422 79.33C413.662 79.76 413.972 80.09 414.352 80.32C414.742 80.54 415.152 80.65 415.582 80.65C416.022 80.65 416.432 80.54 416.812 80.32C417.192 80.1 417.497 79.78 417.727 79.36C417.967 78.93 418.087 78.43 418.087 77.86ZM425.253 80.47L427.593 73.735H429.408L426.258 82H424.218L421.083 73.735H422.913L425.253 80.47ZM431.57 72.64C431.26 72.64 431 72.535 430.79 72.325C430.58 72.115 430.475 71.855 430.475 71.545C430.475 71.235 430.58 70.975 430.79 70.765C431 70.555 431.26 70.45 431.57 70.45C431.87 70.45 432.125 70.555 432.335 70.765C432.545 70.975 432.65 71.235 432.65 71.545C432.65 71.855 432.545 72.115 432.335 72.325C432.125 72.535 431.87 72.64 431.57 72.64ZM432.41 73.735V82H430.7V73.735H432.41ZM437.655 82.135C437.005 82.135 436.42 82.02 435.9 81.79C435.39 81.55 434.985 81.23 434.685 80.83C434.385 80.42 434.225 79.965 434.205 79.465H435.975C436.005 79.815 436.17 80.11 436.47 80.35C436.78 80.58 437.165 80.695 437.625 80.695C438.105 80.695 438.475 80.605 438.735 80.425C439.005 80.235 439.14 79.995 439.14 79.705C439.14 79.395 438.99 79.165 438.69 79.015C438.4 78.865 437.935 78.7 437.295 78.52C436.675 78.35 436.17 78.185 435.78 78.025C435.39 77.865 435.05 77.62 434.76 77.29C434.48 76.96 434.34 76.525 434.34 75.985C434.34 75.545 434.47 75.145 434.73 74.785C434.99 74.415 435.36 74.125 435.84 73.915C436.33 73.705 436.89 73.6 437.52 73.6C438.46 73.6 439.215 73.84 439.785 74.32C440.365 74.79 440.675 75.435 440.715 76.255H439.005C438.975 75.885 438.825 75.59 438.555 75.37C438.285 75.15 437.92 75.04 437.46 75.04C437.01 75.04 436.665 75.125 436.425 75.295C436.185 75.465 436.065 75.69 436.065 75.97C436.065 76.19 436.145 76.375 436.305 76.525C436.465 76.675 436.66 76.795 436.89 76.885C437.12 76.965 437.46 77.07 437.91 77.2C438.51 77.36 439 77.525 439.38 77.695C439.77 77.855 440.105 78.095 440.385 78.415C440.665 78.735 440.81 79.16 440.82 79.69C440.82 80.16 440.69 80.58 440.43 80.95C440.17 81.32 439.8 81.61 439.32 81.82C438.85 82.03 438.295 82.135 437.655 82.135ZM446.253 82.135C445.473 82.135 444.768 81.96 444.138 81.61C443.508 81.25 443.013 80.75 442.653 80.11C442.293 79.46 442.113 78.71 442.113 77.86C442.113 77.02 442.298 76.275 442.668 75.625C443.038 74.975 443.543 74.475 444.183 74.125C444.823 73.775 445.538 73.6 446.328 73.6C447.118 73.6 447.833 73.775 448.473 74.125C449.113 74.475 449.618 74.975 449.988 75.625C450.358 76.275 450.543 77.02 450.543 77.86C450.543 78.7 450.353 79.445 449.973 80.095C449.593 80.745 449.073 81.25 448.413 81.61C447.763 81.96 447.043 82.135 446.253 82.135ZM446.253 80.65C446.693 80.65 447.103 80.545 447.483 80.335C447.873 80.125 448.188 79.81 448.428 79.39C448.668 78.97 448.788 78.46 448.788 77.86C448.788 77.26 448.673 76.755 448.443 76.345C448.213 75.925 447.908 75.61 447.528 75.4C447.148 75.19 446.738 75.085 446.298 75.085C445.858 75.085 445.448 75.19 445.068 75.4C444.698 75.61 444.403 75.925 444.183 76.345C443.963 76.755 443.853 77.26 443.853 77.86C443.853 78.75 444.078 79.44 444.528 79.93C444.988 80.41 445.563 80.65 446.253 80.65ZM453.943 74.935C454.193 74.515 454.523 74.19 454.933 73.96C455.353 73.72 455.848 73.6 456.418 73.6V75.37H455.983C455.313 75.37 454.803 75.54 454.453 75.88C454.113 76.22 453.943 76.81 453.943 77.65V82H452.233V73.735H453.943V74.935ZM460.99 82.135C460.34 82.135 459.755 82.02 459.235 81.79C458.725 81.55 458.32 81.23 458.02 80.83C457.72 80.42 457.56 79.965 457.54 79.465H459.31C459.34 79.815 459.505 80.11 459.805 80.35C460.115 80.58 460.5 80.695 460.96 80.695C461.44 80.695 461.81 80.605 462.07 80.425C462.34 80.235 462.475 79.995 462.475 79.705C462.475 79.395 462.325 79.165 462.025 79.015C461.735 78.865 461.27 78.7 460.63 78.52C460.01 78.35 459.505 78.185 459.115 78.025C458.725 77.865 458.385 77.62 458.095 77.29C457.815 76.96 457.675 76.525 457.675 75.985C457.675 75.545 457.805 75.145 458.065 74.785C458.325 74.415 458.695 74.125 459.175 73.915C459.665 73.705 460.225 73.6 460.855 73.6C461.795 73.6 462.55 73.84 463.12 74.32C463.7 74.79 464.01 75.435 464.05 76.255H462.34C462.31 75.885 462.16 75.59 461.89 75.37C461.62 75.15 461.255 75.04 460.795 75.04C460.345 75.04 460 75.125 459.76 75.295C459.52 75.465 459.4 75.69 459.4 75.97C459.4 76.19 459.48 76.375 459.64 76.525C459.8 76.675 459.995 76.795 460.225 76.885C460.455 76.965 460.795 77.07 461.245 77.2C461.845 77.36 462.335 77.525 462.715 77.695C463.105 77.855 463.44 78.095 463.72 78.415C464 78.735 464.145 79.16 464.155 79.69C464.155 80.16 464.025 80.58 463.765 80.95C463.505 81.32 463.135 81.61 462.655 81.82C462.185 82.03 461.63 82.135 460.99 82.135Z" fill="#F8951D"/>
<path d="M395.02 31.52C395.073 30.0933 395.54 28.9933 396.42 28.22C397.3 27.4467 398.493 27.06 400 27.06C401 27.06 401.853 27.2333 402.56 27.58C403.28 27.9267 403.82 28.4 404.18 29C404.553 29.6 404.74 30.2733 404.74 31.02C404.74 31.9 404.52 32.62 404.08 33.18C403.64 33.7267 403.127 34.1 402.54 34.3V34.38C403.3 34.6333 403.9 35.0533 404.34 35.64C404.78 36.2267 405 36.98 405 37.9C405 38.7267 404.807 39.46 404.42 40.1C404.047 40.7267 403.493 41.22 402.76 41.58C402.04 41.94 401.18 42.12 400.18 42.12C398.58 42.12 397.3 41.7267 396.34 40.94C395.393 40.1533 394.893 38.9667 394.84 37.38H398.16C398.173 37.9667 398.34 38.4333 398.66 38.78C398.98 39.1133 399.447 39.28 400.06 39.28C400.58 39.28 400.98 39.1333 401.26 38.84C401.553 38.5333 401.7 38.1333 401.7 37.64C401.7 37 401.493 36.54 401.08 36.26C400.68 35.9667 400.033 35.82 399.14 35.82H398.5V33.04H399.14C399.82 33.04 400.367 32.9267 400.78 32.7C401.207 32.46 401.42 32.04 401.42 31.44C401.42 30.96 401.287 30.5867 401.02 30.32C400.753 30.0533 400.387 29.92 399.92 29.92C399.413 29.92 399.033 30.0733 398.78 30.38C398.54 30.6867 398.4 31.0667 398.36 31.52H395.02ZM406.729 31.08C406.729 30 407.036 29.1667 407.649 28.58C408.276 27.9933 409.083 27.7 410.069 27.7C411.056 27.7 411.856 27.9933 412.469 28.58C413.083 29.1667 413.389 30 413.389 31.08C413.389 32.16 413.083 32.9933 412.469 33.58C411.856 34.1667 411.056 34.46 410.069 34.46C409.083 34.46 408.276 34.1667 407.649 33.58C407.036 32.9933 406.729 32.16 406.729 31.08ZM420.309 27.92L412.609 42H409.309L417.009 27.92H420.309ZM410.049 29.7C409.409 29.7 409.089 30.16 409.089 31.08C409.089 31.9867 409.409 32.44 410.049 32.44C410.356 32.44 410.596 32.3267 410.769 32.1C410.943 31.8733 411.029 31.5333 411.029 31.08C411.029 30.16 410.703 29.7 410.049 29.7ZM416.249 38.84C416.249 37.76 416.556 36.9267 417.169 36.34C417.783 35.7533 418.583 35.46 419.569 35.46C420.556 35.46 421.356 35.7533 421.969 36.34C422.583 36.9267 422.889 37.76 422.889 38.84C422.889 39.92 422.583 40.7533 421.969 41.34C421.356 41.9267 420.556 42.22 419.569 42.22C418.583 42.22 417.783 41.9267 417.169 41.34C416.556 40.7533 416.249 39.92 416.249 38.84ZM419.549 37.46C419.243 37.46 419.003 37.5733 418.829 37.8C418.669 38.0267 418.589 38.3733 418.589 38.84C418.589 39.7467 418.909 40.2 419.549 40.2C419.856 40.2 420.096 40.0867 420.269 39.86C420.443 39.6333 420.529 39.2933 420.529 38.84C420.529 38.3867 420.443 38.0467 420.269 37.82C420.096 37.58 419.856 37.46 419.549 37.46Z" fill="white"/>
<rect x="366.5" y="52.5" width="128" height="36" rx="7.5" stroke="white"/>
<line x1="351" y1="66.5" x2="366" y2="66.5" stroke="white"/>
<line x1="542.445" y1="600.772" x2="561.445" y2="637.772" stroke="white"/>
<path d="M622.555 630.765C622.555 629.745 622.79 628.83 623.26 628.02C623.74 627.21 624.385 626.58 625.195 626.13C626.015 625.67 626.91 625.44 627.88 625.44C628.99 625.44 629.975 625.715 630.835 626.265C631.705 626.805 632.335 627.575 632.725 628.575H630.67C630.4 628.025 630.025 627.615 629.545 627.345C629.065 627.075 628.51 626.94 627.88 626.94C627.19 626.94 626.575 627.095 626.035 627.405C625.495 627.715 625.07 628.16 624.76 628.74C624.46 629.32 624.31 629.995 624.31 630.765C624.31 631.535 624.46 632.21 624.76 632.79C625.07 633.37 625.495 633.82 626.035 634.14C626.575 634.45 627.19 634.605 627.88 634.605C628.51 634.605 629.065 634.47 629.545 634.2C630.025 633.93 630.4 633.52 630.67 632.97H632.725C632.335 633.97 631.705 634.74 630.835 635.28C629.975 635.82 628.99 636.09 627.88 636.09C626.9 636.09 626.005 635.865 625.195 635.415C624.385 634.955 623.74 634.32 623.26 633.51C622.79 632.7 622.555 631.785 622.555 630.765ZM639.002 627.6C639.632 627.6 640.192 627.735 640.682 628.005C641.182 628.275 641.572 628.675 641.852 629.205C642.142 629.735 642.287 630.375 642.287 631.125V636H640.592V631.38C640.592 630.64 640.407 630.075 640.037 629.685C639.667 629.285 639.162 629.085 638.522 629.085C637.882 629.085 637.372 629.285 636.992 629.685C636.622 630.075 636.437 630.64 636.437 631.38V636H634.727V624.9H636.437V628.695C636.727 628.345 637.092 628.075 637.532 627.885C637.982 627.695 638.472 627.6 639.002 627.6ZM643.898 631.83C643.898 631 644.068 630.265 644.408 629.625C644.758 628.985 645.228 628.49 645.818 628.14C646.418 627.78 647.078 627.6 647.798 627.6C648.448 627.6 649.013 627.73 649.493 627.99C649.983 628.24 650.373 628.555 650.663 628.935V627.735H652.388V636H650.663V634.77C650.373 635.16 649.978 635.485 649.478 635.745C648.978 636.005 648.408 636.135 647.768 636.135C647.058 636.135 646.408 635.955 645.818 635.595C645.228 635.225 644.758 634.715 644.408 634.065C644.068 633.405 643.898 632.66 643.898 631.83ZM650.663 631.86C650.663 631.29 650.543 630.795 650.303 630.375C650.073 629.955 649.768 629.635 649.388 629.415C649.008 629.195 648.598 629.085 648.158 629.085C647.718 629.085 647.308 629.195 646.928 629.415C646.548 629.625 646.238 629.94 645.998 630.36C645.768 630.77 645.653 631.26 645.653 631.83C645.653 632.4 645.768 632.9 645.998 633.33C646.238 633.76 646.548 634.09 646.928 634.32C647.318 634.54 647.728 634.65 648.158 634.65C648.598 634.65 649.008 634.54 649.388 634.32C649.768 634.1 650.073 633.78 650.303 633.36C650.543 632.93 650.663 632.43 650.663 631.86ZM656.344 628.935C656.594 628.515 656.924 628.19 657.334 627.96C657.754 627.72 658.249 627.6 658.819 627.6V629.37H658.384C657.714 629.37 657.204 629.54 656.854 629.88C656.514 630.22 656.344 630.81 656.344 631.65V636H654.634V627.735H656.344V628.935ZM661.261 626.64C660.951 626.64 660.691 626.535 660.481 626.325C660.271 626.115 660.166 625.855 660.166 625.545C660.166 625.235 660.271 624.975 660.481 624.765C660.691 624.555 660.951 624.45 661.261 624.45C661.561 624.45 661.816 624.555 662.026 624.765C662.236 624.975 662.341 625.235 662.341 625.545C662.341 625.855 662.236 626.115 662.026 626.325C661.816 626.535 661.561 626.64 661.261 626.64ZM662.101 627.735V636H660.391V627.735H662.101ZM666.341 629.13V633.705C666.341 634.015 666.411 634.24 666.551 634.38C666.701 634.51 666.951 634.575 667.301 634.575H668.351V636H667.001C666.231 636 665.641 635.82 665.231 635.46C664.821 635.1 664.616 634.515 664.616 633.705V629.13H663.641V627.735H664.616V625.68H666.341V627.735H668.351V629.13H666.341ZM677.367 627.735L672.297 639.885H670.527L672.207 635.865L668.952 627.735H670.857L673.182 634.035L675.597 627.735H677.367ZM625.12 644.13V648.705C625.12 649.015 625.19 649.24 625.33 649.38C625.48 649.51 625.73 649.575 626.08 649.575H627.13V651H625.78C625.01 651 624.42 650.82 624.01 650.46C623.6 650.1 623.395 649.515 623.395 648.705V644.13H622.42V642.735H623.395V640.68H625.12V642.735H627.13V644.13H625.12ZM632.291 651.135C631.511 651.135 630.806 650.96 630.176 650.61C629.546 650.25 629.051 649.75 628.691 649.11C628.331 648.46 628.151 647.71 628.151 646.86C628.151 646.02 628.336 645.275 628.706 644.625C629.076 643.975 629.581 643.475 630.221 643.125C630.861 642.775 631.576 642.6 632.366 642.6C633.156 642.6 633.871 642.775 634.511 643.125C635.151 643.475 635.656 643.975 636.026 644.625C636.396 645.275 636.581 646.02 636.581 646.86C636.581 647.7 636.391 648.445 636.011 649.095C635.631 649.745 635.111 650.25 634.451 650.61C633.801 650.96 633.081 651.135 632.291 651.135ZM632.291 649.65C632.731 649.65 633.141 649.545 633.521 649.335C633.911 649.125 634.226 648.81 634.466 648.39C634.706 647.97 634.826 647.46 634.826 646.86C634.826 646.26 634.711 645.755 634.481 645.345C634.251 644.925 633.946 644.61 633.566 644.4C633.186 644.19 632.776 644.085 632.336 644.085C631.896 644.085 631.486 644.19 631.106 644.4C630.736 644.61 630.441 644.925 630.221 645.345C630.001 645.755 629.891 646.26 629.891 646.86C629.891 647.75 630.116 648.44 630.566 648.93C631.026 649.41 631.601 649.65 632.291 649.65ZM641.541 646.875L645.351 651H643.041L639.981 647.445V651H638.271V639.9H639.981V646.35L642.981 642.735H645.351L641.541 646.875ZM654.152 646.665C654.152 646.975 654.132 647.255 654.092 647.505H647.777C647.827 648.165 648.072 648.695 648.512 649.095C648.952 649.495 649.492 649.695 650.132 649.695C651.052 649.695 651.702 649.31 652.082 648.54H653.927C653.677 649.3 653.222 649.925 652.562 650.415C651.912 650.895 651.102 651.135 650.132 651.135C649.342 651.135 648.632 650.96 648.002 650.61C647.382 650.25 646.892 649.75 646.532 649.11C646.182 648.46 646.007 647.71 646.007 646.86C646.007 646.01 646.177 645.265 646.517 644.625C646.867 643.975 647.352 643.475 647.972 643.125C648.602 642.775 649.322 642.6 650.132 642.6C650.912 642.6 651.607 642.77 652.217 643.11C652.827 643.45 653.302 643.93 653.642 644.55C653.982 645.16 654.152 645.865 654.152 646.665ZM652.367 646.125C652.357 645.495 652.132 644.99 651.692 644.61C651.252 644.23 650.707 644.04 650.057 644.04C649.467 644.04 648.962 644.23 648.542 644.61C648.122 644.98 647.872 645.485 647.792 646.125H652.367ZM660.005 642.6C660.655 642.6 661.235 642.735 661.745 643.005C662.265 643.275 662.67 643.675 662.96 644.205C663.25 644.735 663.395 645.375 663.395 646.125V651H661.7V646.38C661.7 645.64 661.515 645.075 661.145 644.685C660.775 644.285 660.27 644.085 659.63 644.085C658.99 644.085 658.48 644.285 658.1 644.685C657.73 645.075 657.545 645.64 657.545 646.38V651H655.835V642.735H657.545V643.68C657.825 643.34 658.18 643.075 658.61 642.885C659.05 642.695 659.515 642.6 660.005 642.6Z" fill="#F8951D"/>
<path d="M645.18 597.38H638.94V600.14C639.207 599.847 639.58 599.607 640.06 599.42C640.54 599.233 641.06 599.14 641.62 599.14C642.62 599.14 643.447 599.367 644.1 599.82C644.767 600.273 645.253 600.86 645.56 601.58C645.867 602.3 646.02 603.08 646.02 603.92C646.02 605.48 645.58 606.72 644.7 607.64C643.82 608.547 642.58 609 640.98 609C639.913 609 638.987 608.82 638.2 608.46C637.413 608.087 636.807 607.573 636.38 606.92C635.953 606.267 635.72 605.513 635.68 604.66H639.02C639.1 605.073 639.293 605.42 639.6 605.7C639.907 605.967 640.327 606.1 640.86 606.1C641.487 606.1 641.953 605.9 642.26 605.5C642.567 605.1 642.72 604.567 642.72 603.9C642.72 603.247 642.56 602.747 642.24 602.4C641.92 602.053 641.453 601.88 640.84 601.88C640.387 601.88 640.013 601.993 639.72 602.22C639.427 602.433 639.233 602.72 639.14 603.08H635.84V594.38H645.18V597.38ZM647.628 598.08C647.628 597 647.934 596.167 648.548 595.58C649.174 594.993 649.981 594.7 650.968 594.7C651.954 594.7 652.754 594.993 653.368 595.58C653.981 596.167 654.288 597 654.288 598.08C654.288 599.16 653.981 599.993 653.368 600.58C652.754 601.167 651.954 601.46 650.968 601.46C649.981 601.46 649.174 601.167 648.548 600.58C647.934 599.993 647.628 599.16 647.628 598.08ZM661.208 594.92L653.508 609H650.208L657.908 594.92H661.208ZM650.948 596.7C650.308 596.7 649.988 597.16 649.988 598.08C649.988 598.987 650.308 599.44 650.948 599.44C651.254 599.44 651.494 599.327 651.668 599.1C651.841 598.873 651.928 598.533 651.928 598.08C651.928 597.16 651.601 596.7 650.948 596.7ZM657.148 605.84C657.148 604.76 657.454 603.927 658.068 603.34C658.681 602.753 659.481 602.46 660.468 602.46C661.454 602.46 662.254 602.753 662.868 603.34C663.481 603.927 663.788 604.76 663.788 605.84C663.788 606.92 663.481 607.753 662.868 608.34C662.254 608.927 661.454 609.22 660.468 609.22C659.481 609.22 658.681 608.927 658.068 608.34C657.454 607.753 657.148 606.92 657.148 605.84ZM660.448 604.46C660.141 604.46 659.901 604.573 659.728 604.8C659.568 605.027 659.488 605.373 659.488 605.84C659.488 606.747 659.808 607.2 660.448 607.2C660.754 607.2 660.994 607.087 661.168 606.86C661.341 606.633 661.428 606.293 661.428 605.84C661.428 605.387 661.341 605.047 661.168 604.82C660.994 604.58 660.754 604.46 660.448 604.46Z" fill="white"/>
<rect x="606.5" y="619.5" width="112" height="38" rx="7.5" stroke="white"/>
<line x1="560" y1="637.5" x2="607" y2="637.5" stroke="white"/>
<line x1="506.646" y1="259.646" x2="542.646" y2="223.646" stroke="white"/>
<path d="M614.105 214.575V225H612.395V217.86L609.215 225H608.03L604.835 217.86V225H603.125V214.575H604.97L608.63 222.75L612.275 214.575H614.105ZM615.783 220.83C615.783 220 615.953 219.265 616.293 218.625C616.643 217.985 617.113 217.49 617.703 217.14C618.303 216.78 618.963 216.6 619.683 216.6C620.333 216.6 620.898 216.73 621.378 216.99C621.868 217.24 622.258 217.555 622.548 217.935V216.735H624.273V225H622.548V223.77C622.258 224.16 621.863 224.485 621.363 224.745C620.863 225.005 620.293 225.135 619.653 225.135C618.943 225.135 618.293 224.955 617.703 224.595C617.113 224.225 616.643 223.715 616.293 223.065C615.953 222.405 615.783 221.66 615.783 220.83ZM622.548 220.86C622.548 220.29 622.428 219.795 622.188 219.375C621.958 218.955 621.653 218.635 621.273 218.415C620.893 218.195 620.483 218.085 620.043 218.085C619.603 218.085 619.193 218.195 618.813 218.415C618.433 218.625 618.123 218.94 617.883 219.36C617.653 219.77 617.538 220.26 617.538 220.83C617.538 221.4 617.653 221.9 617.883 222.33C618.123 222.76 618.433 223.09 618.813 223.32C619.203 223.54 619.613 223.65 620.043 223.65C620.483 223.65 620.893 223.54 621.273 223.32C621.653 223.1 621.958 222.78 622.188 222.36C622.428 221.93 622.548 221.43 622.548 220.86ZM628.229 217.935C628.479 217.515 628.809 217.19 629.219 216.96C629.639 216.72 630.134 216.6 630.704 216.6V218.37H630.269C629.599 218.37 629.089 218.54 628.739 218.88C628.399 219.22 628.229 219.81 628.229 220.65V225H626.519V216.735H628.229V217.935ZM635.545 220.875L639.355 225H637.045L633.985 221.445V225H632.275V213.9H633.985V220.35L636.985 216.735H639.355L635.545 220.875ZM648.156 220.665C648.156 220.975 648.136 221.255 648.096 221.505H641.781C641.831 222.165 642.076 222.695 642.516 223.095C642.956 223.495 643.496 223.695 644.136 223.695C645.056 223.695 645.706 223.31 646.086 222.54H647.931C647.681 223.3 647.226 223.925 646.566 224.415C645.916 224.895 645.106 225.135 644.136 225.135C643.346 225.135 642.636 224.96 642.006 224.61C641.386 224.25 640.896 223.75 640.536 223.11C640.186 222.46 640.011 221.71 640.011 220.86C640.011 220.01 640.181 219.265 640.521 218.625C640.871 217.975 641.356 217.475 641.976 217.125C642.606 216.775 643.326 216.6 644.136 216.6C644.916 216.6 645.611 216.77 646.221 217.11C646.831 217.45 647.306 217.93 647.646 218.55C647.986 219.16 648.156 219.865 648.156 220.665ZM646.371 220.125C646.361 219.495 646.136 218.99 645.696 218.61C645.256 218.23 644.711 218.04 644.061 218.04C643.471 218.04 642.966 218.23 642.546 218.61C642.126 218.98 641.876 219.485 641.796 220.125H646.371ZM651.834 218.13V222.705C651.834 223.015 651.904 223.24 652.044 223.38C652.194 223.51 652.444 223.575 652.794 223.575H653.844V225H652.494C651.724 225 651.134 224.82 650.724 224.46C650.314 224.1 650.109 223.515 650.109 222.705V218.13H649.134V216.735H650.109V214.68H651.834V216.735H653.844V218.13H651.834ZM602.555 235.83C602.555 235 602.725 234.265 603.065 233.625C603.415 232.985 603.885 232.49 604.475 232.14C605.075 231.78 605.74 231.6 606.47 231.6C607.01 231.6 607.54 231.72 608.06 231.96C608.59 232.19 609.01 232.5 609.32 232.89V228.9H611.045V240H609.32V238.755C609.04 239.155 608.65 239.485 608.15 239.745C607.66 240.005 607.095 240.135 606.455 240.135C605.735 240.135 605.075 239.955 604.475 239.595C603.885 239.225 603.415 238.715 603.065 238.065C602.725 237.405 602.555 236.66 602.555 235.83ZM609.32 235.86C609.32 235.29 609.2 234.795 608.96 234.375C608.73 233.955 608.425 233.635 608.045 233.415C607.665 233.195 607.255 233.085 606.815 233.085C606.375 233.085 605.965 233.195 605.585 233.415C605.205 233.625 604.895 233.94 604.655 234.36C604.425 234.77 604.31 235.26 604.31 235.83C604.31 236.4 604.425 236.9 604.655 237.33C604.895 237.76 605.205 238.09 605.585 238.32C605.975 238.54 606.385 238.65 606.815 238.65C607.255 238.65 607.665 238.54 608.045 238.32C608.425 238.1 608.73 237.78 608.96 237.36C609.2 236.93 609.32 236.43 609.32 235.86ZM620.866 235.665C620.866 235.975 620.846 236.255 620.806 236.505H614.491C614.541 237.165 614.786 237.695 615.226 238.095C615.666 238.495 616.206 238.695 616.846 238.695C617.766 238.695 618.416 238.31 618.796 237.54H620.641C620.391 238.3 619.936 238.925 619.276 239.415C618.626 239.895 617.816 240.135 616.846 240.135C616.056 240.135 615.346 239.96 614.716 239.61C614.096 239.25 613.606 238.75 613.246 238.11C612.896 237.46 612.721 236.71 612.721 235.86C612.721 235.01 612.891 234.265 613.231 233.625C613.581 232.975 614.066 232.475 614.686 232.125C615.316 231.775 616.036 231.6 616.846 231.6C617.626 231.6 618.321 231.77 618.931 232.11C619.541 232.45 620.016 232.93 620.356 233.55C620.696 234.16 620.866 234.865 620.866 235.665ZM619.081 235.125C619.071 234.495 618.846 233.99 618.406 233.61C617.966 233.23 617.421 233.04 616.771 233.04C616.181 233.04 615.676 233.23 615.256 233.61C614.836 233.98 614.586 234.485 614.506 235.125H619.081ZM625.744 238.47L628.084 231.735H629.899L626.749 240H624.709L621.574 231.735H623.404L625.744 238.47ZM638.766 235.665C638.766 235.975 638.746 236.255 638.706 236.505H632.391C632.441 237.165 632.686 237.695 633.126 238.095C633.566 238.495 634.106 238.695 634.746 238.695C635.666 238.695 636.316 238.31 636.696 237.54H638.541C638.291 238.3 637.836 238.925 637.176 239.415C636.526 239.895 635.716 240.135 634.746 240.135C633.956 240.135 633.246 239.96 632.616 239.61C631.996 239.25 631.506 238.75 631.146 238.11C630.796 237.46 630.621 236.71 630.621 235.86C630.621 235.01 630.791 234.265 631.131 233.625C631.481 232.975 631.966 232.475 632.586 232.125C633.216 231.775 633.936 231.6 634.746 231.6C635.526 231.6 636.221 231.77 636.831 232.11C637.441 232.45 637.916 232.93 638.256 233.55C638.596 234.16 638.766 234.865 638.766 235.665ZM636.981 235.125C636.971 234.495 636.746 233.99 636.306 233.61C635.866 233.23 635.321 233.04 634.671 233.04C634.081 233.04 633.576 233.23 633.156 233.61C632.736 233.98 632.486 234.485 632.406 235.125H636.981ZM642.159 228.9V240H640.449V228.9H642.159ZM647.989 240.135C647.209 240.135 646.504 239.96 645.874 239.61C645.244 239.25 644.749 238.75 644.389 238.11C644.029 237.46 643.849 236.71 643.849 235.86C643.849 235.02 644.034 234.275 644.404 233.625C644.774 232.975 645.279 232.475 645.919 232.125C646.559 231.775 647.274 231.6 648.064 231.6C648.854 231.6 649.569 231.775 650.209 232.125C650.849 232.475 651.354 232.975 651.724 233.625C652.094 234.275 652.279 235.02 652.279 235.86C652.279 236.7 652.089 237.445 651.709 238.095C651.329 238.745 650.809 239.25 650.149 239.61C649.499 239.96 648.779 240.135 647.989 240.135ZM647.989 238.65C648.429 238.65 648.839 238.545 649.219 238.335C649.609 238.125 649.924 237.81 650.164 237.39C650.404 236.97 650.524 236.46 650.524 235.86C650.524 235.26 650.409 234.755 650.179 234.345C649.949 233.925 649.644 233.61 649.264 233.4C648.884 233.19 648.474 233.085 648.034 233.085C647.594 233.085 647.184 233.19 646.804 233.4C646.434 233.61 646.139 233.925 645.919 234.345C645.699 234.755 645.589 235.26 645.589 235.86C645.589 236.75 645.814 237.44 646.264 237.93C646.724 238.41 647.299 238.65 647.989 238.65ZM655.68 232.95C655.97 232.57 656.365 232.25 656.865 231.99C657.365 231.73 657.93 231.6 658.56 231.6C659.28 231.6 659.935 231.78 660.525 232.14C661.125 232.49 661.595 232.985 661.935 233.625C662.275 234.265 662.445 235 662.445 235.83C662.445 236.66 662.275 237.405 661.935 238.065C661.595 238.715 661.125 239.225 660.525 239.595C659.935 239.955 659.28 240.135 658.56 240.135C657.93 240.135 657.37 240.01 656.88 239.76C656.39 239.5 655.99 239.18 655.68 238.8V243.93H653.97V231.735H655.68V232.95ZM660.705 235.83C660.705 235.26 660.585 234.77 660.345 234.36C660.115 233.94 659.805 233.625 659.415 233.415C659.035 233.195 658.625 233.085 658.185 233.085C657.755 233.085 657.345 233.195 656.955 233.415C656.575 233.635 656.265 233.955 656.025 234.375C655.795 234.795 655.68 235.29 655.68 235.86C655.68 236.43 655.795 236.93 656.025 237.36C656.265 237.78 656.575 238.1 656.955 238.32C657.345 238.54 657.755 238.65 658.185 238.65C658.625 238.65 659.035 238.54 659.415 238.32C659.805 238.09 660.115 237.76 660.345 237.33C660.585 236.9 660.705 236.4 660.705 235.83ZM674.141 231.6C674.791 231.6 675.371 231.735 675.881 232.005C676.401 232.275 676.806 232.675 677.096 233.205C677.396 233.735 677.546 234.375 677.546 235.125V240H675.851V235.38C675.851 234.64 675.666 234.075 675.296 233.685C674.926 233.285 674.421 233.085 673.781 233.085C673.141 233.085 672.631 233.285 672.251 233.685C671.881 234.075 671.696 234.64 671.696 235.38V240H670.001V235.38C670.001 234.64 669.816 234.075 669.446 233.685C669.076 233.285 668.571 233.085 667.931 233.085C667.291 233.085 666.781 233.285 666.401 233.685C666.031 234.075 665.846 234.64 665.846 235.38V240H664.136V231.735H665.846V232.68C666.126 232.34 666.481 232.075 666.911 231.885C667.341 231.695 667.801 231.6 668.291 231.6C668.951 231.6 669.541 231.74 670.061 232.02C670.581 232.3 670.981 232.705 671.261 233.235C671.511 232.735 671.901 232.34 672.431 232.05C672.961 231.75 673.531 231.6 674.141 231.6ZM687.297 235.665C687.297 235.975 687.277 236.255 687.237 236.505H680.922C680.972 237.165 681.217 237.695 681.657 238.095C682.097 238.495 682.637 238.695 683.277 238.695C684.197 238.695 684.847 238.31 685.227 237.54H687.072C686.822 238.3 686.367 238.925 685.707 239.415C685.057 239.895 684.247 240.135 683.277 240.135C682.487 240.135 681.777 239.96 681.147 239.61C680.527 239.25 680.037 238.75 679.677 238.11C679.327 237.46 679.152 236.71 679.152 235.86C679.152 235.01 679.322 234.265 679.662 233.625C680.012 232.975 680.497 232.475 681.117 232.125C681.747 231.775 682.467 231.6 683.277 231.6C684.057 231.6 684.752 231.77 685.362 232.11C685.972 232.45 686.447 232.93 686.787 233.55C687.127 234.16 687.297 234.865 687.297 235.665ZM685.512 235.125C685.502 234.495 685.277 233.99 684.837 233.61C684.397 233.23 683.852 233.04 683.202 233.04C682.612 233.04 682.107 233.23 681.687 233.61C681.267 233.98 681.017 234.485 680.937 235.125H685.512ZM693.149 231.6C693.799 231.6 694.379 231.735 694.889 232.005C695.409 232.275 695.814 232.675 696.104 233.205C696.394 233.735 696.539 234.375 696.539 235.125V240H694.844V235.38C694.844 234.64 694.659 234.075 694.289 233.685C693.919 233.285 693.414 233.085 692.774 233.085C692.134 233.085 691.624 233.285 691.244 233.685C690.874 234.075 690.689 234.64 690.689 235.38V240H688.979V231.735H690.689V232.68C690.969 232.34 691.324 232.075 691.754 231.885C692.194 231.695 692.659 231.6 693.149 231.6ZM700.716 233.13V237.705C700.716 238.015 700.786 238.24 700.926 238.38C701.076 238.51 701.326 238.575 701.676 238.575H702.726V240H701.376C700.606 240 700.016 239.82 699.606 239.46C699.196 239.1 698.991 238.515 698.991 237.705V233.13H698.016V231.735H698.991V229.68H700.716V231.735H702.726V233.13H700.716Z" fill="#F8951D"/>
<path d="M628.18 188.38H621.94V191.14C622.207 190.847 622.58 190.607 623.06 190.42C623.54 190.233 624.06 190.14 624.62 190.14C625.62 190.14 626.447 190.367 627.1 190.82C627.767 191.273 628.253 191.86 628.56 192.58C628.867 193.3 629.02 194.08 629.02 194.92C629.02 196.48 628.58 197.72 627.7 198.64C626.82 199.547 625.58 200 623.98 200C622.913 200 621.987 199.82 621.2 199.46C620.413 199.087 619.807 198.573 619.38 197.92C618.953 197.267 618.72 196.513 618.68 195.66H622.02C622.1 196.073 622.293 196.42 622.6 196.7C622.907 196.967 623.327 197.1 623.86 197.1C624.487 197.1 624.953 196.9 625.26 196.5C625.567 196.1 625.72 195.567 625.72 194.9C625.72 194.247 625.56 193.747 625.24 193.4C624.92 193.053 624.453 192.88 623.84 192.88C623.387 192.88 623.013 192.993 622.72 193.22C622.427 193.433 622.233 193.72 622.14 194.08H618.84V185.38H628.18V188.38ZM630.628 189.08C630.628 188 630.934 187.167 631.548 186.58C632.174 185.993 632.981 185.7 633.968 185.7C634.954 185.7 635.754 185.993 636.368 186.58C636.981 187.167 637.288 188 637.288 189.08C637.288 190.16 636.981 190.993 636.368 191.58C635.754 192.167 634.954 192.46 633.968 192.46C632.981 192.46 632.174 192.167 631.548 191.58C630.934 190.993 630.628 190.16 630.628 189.08ZM644.208 185.92L636.508 200H633.208L640.908 185.92H644.208ZM633.948 187.7C633.308 187.7 632.988 188.16 632.988 189.08C632.988 189.987 633.308 190.44 633.948 190.44C634.254 190.44 634.494 190.327 634.668 190.1C634.841 189.873 634.928 189.533 634.928 189.08C634.928 188.16 634.601 187.7 633.948 187.7ZM640.148 196.84C640.148 195.76 640.454 194.927 641.068 194.34C641.681 193.753 642.481 193.46 643.468 193.46C644.454 193.46 645.254 193.753 645.868 194.34C646.481 194.927 646.788 195.76 646.788 196.84C646.788 197.92 646.481 198.753 645.868 199.34C645.254 199.927 644.454 200.22 643.468 200.22C642.481 200.22 641.681 199.927 641.068 199.34C640.454 198.753 640.148 197.92 640.148 196.84ZM643.448 195.46C643.141 195.46 642.901 195.573 642.728 195.8C642.568 196.027 642.488 196.373 642.488 196.84C642.488 197.747 642.808 198.2 643.448 198.2C643.754 198.2 643.994 198.087 644.168 197.86C644.341 197.633 644.428 197.293 644.428 196.84C644.428 196.387 644.341 196.047 644.168 195.82C643.994 195.58 643.754 195.46 643.448 195.46Z" fill="white"/>
<rect x="589.5" y="210.5" width="136" height="37" rx="7.5" stroke="white"/>
<line x1="542" y1="223.5" x2="589" y2="223.5" stroke="white"/>
<line x1="273.5" y1="679" x2="273.5" y2="788" stroke="white"/>
<line x1="7.5" y1="415" x2="7.50001" y2="581" stroke="white"/>
<path d="M267.835 798.955V802.015H271.435V803.41H267.835V806.605H271.885V808H266.125V797.56H271.885V798.955H267.835ZM273.421 803.86C273.421 803.01 273.591 802.265 273.931 801.625C274.281 800.975 274.761 800.475 275.371 800.125C275.981 799.775 276.681 799.6 277.471 799.6C278.471 799.6 279.296 799.84 279.946 800.32C280.606 800.79 281.051 801.465 281.281 802.345H279.436C279.286 801.935 279.046 801.615 278.716 801.385C278.386 801.155 277.971 801.04 277.471 801.04C276.771 801.04 276.211 801.29 275.791 801.79C275.381 802.28 275.176 802.97 275.176 803.86C275.176 804.75 275.381 805.445 275.791 805.945C276.211 806.445 276.771 806.695 277.471 806.695C278.461 806.695 279.116 806.26 279.436 805.39H281.281C281.041 806.23 280.591 806.9 279.931 807.4C279.271 807.89 278.451 808.135 277.471 808.135C276.681 808.135 275.981 807.96 275.371 807.61C274.761 807.25 274.281 806.75 273.931 806.11C273.591 805.46 273.421 804.71 273.421 803.86ZM286.57 808.135C285.79 808.135 285.085 807.96 284.455 807.61C283.825 807.25 283.33 806.75 282.97 806.11C282.61 805.46 282.43 804.71 282.43 803.86C282.43 803.02 282.615 802.275 282.985 801.625C283.355 800.975 283.86 800.475 284.5 800.125C285.14 799.775 285.855 799.6 286.645 799.6C287.435 799.6 288.15 799.775 288.79 800.125C289.43 800.475 289.935 800.975 290.305 801.625C290.675 802.275 290.86 803.02 290.86 803.86C290.86 804.7 290.67 805.445 290.29 806.095C289.91 806.745 289.39 807.25 288.73 807.61C288.08 807.96 287.36 808.135 286.57 808.135ZM286.57 806.65C287.01 806.65 287.42 806.545 287.8 806.335C288.19 806.125 288.505 805.81 288.745 805.39C288.985 804.97 289.105 804.46 289.105 803.86C289.105 803.26 288.99 802.755 288.76 802.345C288.53 801.925 288.225 801.61 287.845 801.4C287.465 801.19 287.055 801.085 286.615 801.085C286.175 801.085 285.765 801.19 285.385 801.4C285.015 801.61 284.72 801.925 284.5 802.345C284.28 802.755 284.17 803.26 284.17 803.86C284.17 804.75 284.395 805.44 284.845 805.93C285.305 806.41 285.88 806.65 286.57 806.65ZM295.551 808.135C294.901 808.135 294.316 808.02 293.796 807.79C293.286 807.55 292.881 807.23 292.581 806.83C292.281 806.42 292.121 805.965 292.101 805.465H293.871C293.901 805.815 294.066 806.11 294.366 806.35C294.676 806.58 295.061 806.695 295.521 806.695C296.001 806.695 296.371 806.605 296.631 806.425C296.901 806.235 297.036 805.995 297.036 805.705C297.036 805.395 296.886 805.165 296.586 805.015C296.296 804.865 295.831 804.7 295.191 804.52C294.571 804.35 294.066 804.185 293.676 804.025C293.286 803.865 292.946 803.62 292.656 803.29C292.376 802.96 292.236 802.525 292.236 801.985C292.236 801.545 292.366 801.145 292.626 800.785C292.886 800.415 293.256 800.125 293.736 799.915C294.226 799.705 294.786 799.6 295.416 799.6C296.356 799.6 297.111 799.84 297.681 800.32C298.261 800.79 298.571 801.435 298.611 802.255H296.901C296.871 801.885 296.721 801.59 296.451 801.37C296.181 801.15 295.816 801.04 295.356 801.04C294.906 801.04 294.561 801.125 294.321 801.295C294.081 801.465 293.961 801.69 293.961 801.97C293.961 802.19 294.041 802.375 294.201 802.525C294.361 802.675 294.556 802.795 294.786 802.885C295.016 802.965 295.356 803.07 295.806 803.2C296.406 803.36 296.896 803.525 297.276 803.695C297.666 803.855 298.001 804.095 298.281 804.415C298.561 804.735 298.706 805.16 298.716 805.69C298.716 806.16 298.586 806.58 298.326 806.95C298.066 807.32 297.696 807.61 297.216 807.82C296.746 808.03 296.191 808.135 295.551 808.135ZM308.003 799.735L302.933 811.885H301.163L302.843 807.865L299.588 799.735H301.493L303.818 806.035L306.233 799.735H308.003ZM312.294 808.135C311.644 808.135 311.059 808.02 310.539 807.79C310.029 807.55 309.624 807.23 309.324 806.83C309.024 806.42 308.864 805.965 308.844 805.465H310.614C310.644 805.815 310.809 806.11 311.109 806.35C311.419 806.58 311.804 806.695 312.264 806.695C312.744 806.695 313.114 806.605 313.374 806.425C313.644 806.235 313.779 805.995 313.779 805.705C313.779 805.395 313.629 805.165 313.329 805.015C313.039 804.865 312.574 804.7 311.934 804.52C311.314 804.35 310.809 804.185 310.419 804.025C310.029 803.865 309.689 803.62 309.399 803.29C309.119 802.96 308.979 802.525 308.979 801.985C308.979 801.545 309.109 801.145 309.369 800.785C309.629 800.415 309.999 800.125 310.479 799.915C310.969 799.705 311.529 799.6 312.159 799.6C313.099 799.6 313.854 799.84 314.424 800.32C315.004 800.79 315.314 801.435 315.354 802.255H313.644C313.614 801.885 313.464 801.59 313.194 801.37C312.924 801.15 312.559 801.04 312.099 801.04C311.649 801.04 311.304 801.125 311.064 801.295C310.824 801.465 310.704 801.69 310.704 801.97C310.704 802.19 310.784 802.375 310.944 802.525C311.104 802.675 311.299 802.795 311.529 802.885C311.759 802.965 312.099 803.07 312.549 803.2C313.149 803.36 313.639 803.525 314.019 803.695C314.409 803.855 314.744 804.095 315.024 804.415C315.304 804.735 315.449 805.16 315.459 805.69C315.459 806.16 315.329 806.58 315.069 806.95C314.809 807.32 314.439 807.61 313.959 807.82C313.489 808.03 312.934 808.135 312.294 808.135ZM319.302 801.13V805.705C319.302 806.015 319.372 806.24 319.512 806.38C319.662 806.51 319.912 806.575 320.262 806.575H321.312V808H319.962C319.192 808 318.602 807.82 318.192 807.46C317.782 807.1 317.577 806.515 317.577 805.705V801.13H316.602V799.735H317.577V797.68H319.302V799.735H321.312V801.13H319.302ZM330.463 803.665C330.463 803.975 330.443 804.255 330.403 804.505H324.088C324.138 805.165 324.383 805.695 324.823 806.095C325.263 806.495 325.803 806.695 326.443 806.695C327.363 806.695 328.013 806.31 328.393 805.54H330.238C329.988 806.3 329.533 806.925 328.873 807.415C328.223 807.895 327.413 808.135 326.443 808.135C325.653 808.135 324.943 807.96 324.313 807.61C323.693 807.25 323.203 806.75 322.843 806.11C322.493 805.46 322.318 804.71 322.318 803.86C322.318 803.01 322.488 802.265 322.828 801.625C323.178 800.975 323.663 800.475 324.283 800.125C324.913 799.775 325.633 799.6 326.443 799.6C327.223 799.6 327.918 799.77 328.528 800.11C329.138 800.45 329.613 800.93 329.953 801.55C330.293 802.16 330.463 802.865 330.463 803.665ZM328.678 803.125C328.668 802.495 328.443 801.99 328.003 801.61C327.563 801.23 327.018 801.04 326.368 801.04C325.778 801.04 325.273 801.23 324.853 801.61C324.433 801.98 324.183 802.485 324.103 803.125H328.678ZM342.151 799.6C342.801 799.6 343.381 799.735 343.891 800.005C344.411 800.275 344.816 800.675 345.106 801.205C345.406 801.735 345.556 802.375 345.556 803.125V808H343.861V803.38C343.861 802.64 343.676 802.075 343.306 801.685C342.936 801.285 342.431 801.085 341.791 801.085C341.151 801.085 340.641 801.285 340.261 801.685C339.891 802.075 339.706 802.64 339.706 803.38V808H338.011V803.38C338.011 802.64 337.826 802.075 337.456 801.685C337.086 801.285 336.581 801.085 335.941 801.085C335.301 801.085 334.791 801.285 334.411 801.685C334.041 802.075 333.856 802.64 333.856 803.38V808H332.146V799.735H333.856V800.68C334.136 800.34 334.491 800.075 334.921 799.885C335.351 799.695 335.811 799.6 336.301 799.6C336.961 799.6 337.551 799.74 338.071 800.02C338.591 800.3 338.991 800.705 339.271 801.235C339.521 800.735 339.911 800.34 340.441 800.05C340.971 799.75 341.541 799.6 342.151 799.6Z" fill="#F8951D"/>
<path d="M291.12 767.34C291.013 766.847 290.827 766.48 290.56 766.24C290.293 765.987 289.913 765.86 289.42 765.86C288.66 765.86 288.113 766.193 287.78 766.86C287.447 767.513 287.273 768.553 287.26 769.98C287.553 769.513 287.973 769.147 288.52 768.88C289.08 768.613 289.693 768.48 290.36 768.48C291.667 768.48 292.713 768.893 293.5 769.72C294.3 770.547 294.7 771.7 294.7 773.18C294.7 774.153 294.5 775.007 294.1 775.74C293.713 776.473 293.14 777.047 292.38 777.46C291.633 777.873 290.747 778.08 289.72 778.08C287.667 778.08 286.24 777.44 285.44 776.16C284.64 774.867 284.24 773.013 284.24 770.6C284.24 768.067 284.66 766.187 285.5 764.96C286.353 763.72 287.713 763.1 289.58 763.1C290.58 763.1 291.42 763.3 292.1 763.7C292.793 764.087 293.313 764.6 293.66 765.24C294.02 765.88 294.233 766.58 294.3 767.34H291.12ZM289.54 771.18C288.967 771.18 288.487 771.353 288.1 771.7C287.727 772.033 287.54 772.513 287.54 773.14C287.54 773.78 287.713 774.28 288.06 774.64C288.42 775 288.927 775.18 289.58 775.18C290.167 775.18 290.627 775.007 290.96 774.66C291.307 774.3 291.48 773.813 291.48 773.2C291.48 772.573 291.313 772.08 290.98 771.72C290.647 771.36 290.167 771.18 289.54 771.18ZM296.634 770.5C296.634 768.207 297.074 766.4 297.954 765.08C298.848 763.76 300.281 763.1 302.254 763.1C304.228 763.1 305.654 763.76 306.534 765.08C307.428 766.4 307.874 768.207 307.874 770.5C307.874 772.82 307.428 774.64 306.534 775.96C305.654 777.28 304.228 777.94 302.254 777.94C300.281 777.94 298.848 777.28 297.954 775.96C297.074 774.64 296.634 772.82 296.634 770.5ZM304.514 770.5C304.514 769.153 304.368 768.12 304.074 767.4C303.781 766.667 303.174 766.3 302.254 766.3C301.334 766.3 300.728 766.667 300.434 767.4C300.141 768.12 299.994 769.153 299.994 770.5C299.994 771.407 300.048 772.16 300.154 772.76C300.261 773.347 300.474 773.827 300.794 774.2C301.128 774.56 301.614 774.74 302.254 774.74C302.894 774.74 303.374 774.56 303.694 774.2C304.028 773.827 304.248 773.347 304.354 772.76C304.461 772.16 304.514 771.407 304.514 770.5ZM309.401 767.08C309.401 766 309.708 765.167 310.321 764.58C310.948 763.993 311.755 763.7 312.741 763.7C313.728 763.7 314.528 763.993 315.141 764.58C315.755 765.167 316.061 766 316.061 767.08C316.061 768.16 315.755 768.993 315.141 769.58C314.528 770.167 313.728 770.46 312.741 770.46C311.755 770.46 310.948 770.167 310.321 769.58C309.708 768.993 309.401 768.16 309.401 767.08ZM322.981 763.92L315.281 778H311.981L319.681 763.92H322.981ZM312.721 765.7C312.081 765.7 311.761 766.16 311.761 767.08C311.761 767.987 312.081 768.44 312.721 768.44C313.028 768.44 313.268 768.327 313.441 768.1C313.615 767.873 313.701 767.533 313.701 767.08C313.701 766.16 313.375 765.7 312.721 765.7ZM318.921 774.84C318.921 773.76 319.228 772.927 319.841 772.34C320.455 771.753 321.255 771.46 322.241 771.46C323.228 771.46 324.028 771.753 324.641 772.34C325.255 772.927 325.561 773.76 325.561 774.84C325.561 775.92 325.255 776.753 324.641 777.34C324.028 777.927 323.228 778.22 322.241 778.22C321.255 778.22 320.455 777.927 319.841 777.34C319.228 776.753 318.921 775.92 318.921 774.84ZM322.221 773.46C321.915 773.46 321.675 773.573 321.501 773.8C321.341 774.027 321.261 774.373 321.261 774.84C321.261 775.747 321.581 776.2 322.221 776.2C322.528 776.2 322.768 776.087 322.941 775.86C323.115 775.633 323.201 775.293 323.201 774.84C323.201 774.387 323.115 774.047 322.941 773.82C322.768 773.58 322.528 773.46 322.221 773.46Z" fill="white"/>
<rect x="252.5" y="788.5" width="117" height="30" rx="7.5" stroke="white"/>
<path d="M18.415 593.68C18.415 594.21 18.29 594.71 18.04 595.18C17.79 595.65 17.39 596.035 16.84 596.335C16.29 596.625 15.585 596.77 14.725 596.77H12.835V601H11.125V590.575H14.725C15.525 590.575 16.2 590.715 16.75 590.995C17.31 591.265 17.725 591.635 17.995 592.105C18.275 592.575 18.415 593.1 18.415 593.68ZM14.725 595.375C15.375 595.375 15.86 595.23 16.18 594.94C16.5 594.64 16.66 594.22 16.66 593.68C16.66 592.54 16.015 591.97 14.725 591.97H12.835V595.375H14.725ZM21.7559 593.935C22.0059 593.515 22.3359 593.19 22.7459 592.96C23.1659 592.72 23.6609 592.6 24.2309 592.6V594.37H23.7959C23.1259 594.37 22.6159 594.54 22.2659 594.88C21.9259 595.22 21.7559 595.81 21.7559 596.65V601H20.0459V592.735H21.7559V593.935ZM29.3877 601.135C28.6077 601.135 27.9027 600.96 27.2727 600.61C26.6427 600.25 26.1477 599.75 25.7877 599.11C25.4277 598.46 25.2477 597.71 25.2477 596.86C25.2477 596.02 25.4327 595.275 25.8027 594.625C26.1727 593.975 26.6777 593.475 27.3177 593.125C27.9577 592.775 28.6727 592.6 29.4627 592.6C30.2527 592.6 30.9677 592.775 31.6077 593.125C32.2477 593.475 32.7527 593.975 33.1227 594.625C33.4927 595.275 33.6777 596.02 33.6777 596.86C33.6777 597.7 33.4877 598.445 33.1077 599.095C32.7277 599.745 32.2077 600.25 31.5477 600.61C30.8977 600.96 30.1777 601.135 29.3877 601.135ZM29.3877 599.65C29.8277 599.65 30.2377 599.545 30.6177 599.335C31.0077 599.125 31.3227 598.81 31.5627 598.39C31.8027 597.97 31.9227 597.46 31.9227 596.86C31.9227 596.26 31.8077 595.755 31.5777 595.345C31.3477 594.925 31.0427 594.61 30.6627 594.4C30.2827 594.19 29.8727 594.085 29.4327 594.085C28.9927 594.085 28.5827 594.19 28.2027 594.4C27.8327 594.61 27.5377 594.925 27.3177 595.345C27.0977 595.755 26.9877 596.26 26.9877 596.86C26.9877 597.75 27.2127 598.44 27.6627 598.93C28.1227 599.41 28.6977 599.65 29.3877 599.65ZM36.2382 591.64C35.9282 591.64 35.6682 591.535 35.4582 591.325C35.2482 591.115 35.1432 590.855 35.1432 590.545C35.1432 590.235 35.2482 589.975 35.4582 589.765C35.6682 589.555 35.9282 589.45 36.2382 589.45C36.5382 589.45 36.7932 589.555 37.0032 589.765C37.2132 589.975 37.3182 590.235 37.3182 590.545C37.3182 590.855 37.2132 591.115 37.0032 591.325C36.7932 591.535 36.5382 591.64 36.2382 591.64ZM37.0782 602.62C37.0782 603.43 36.8732 604.015 36.4632 604.375C36.0632 604.745 35.4782 604.93 34.7082 604.93H33.8232V603.49H34.4082C34.7582 603.49 35.0032 603.42 35.1432 603.28C35.2932 603.15 35.3682 602.93 35.3682 602.62V592.735H37.0782V602.62ZM46.8982 596.665C46.8982 596.975 46.8782 597.255 46.8382 597.505H40.5232C40.5732 598.165 40.8182 598.695 41.2582 599.095C41.6982 599.495 42.2382 599.695 42.8782 599.695C43.7982 599.695 44.4482 599.31 44.8282 598.54H46.6732C46.4232 599.3 45.9682 599.925 45.3082 600.415C44.6582 600.895 43.8482 601.135 42.8782 601.135C42.0882 601.135 41.3782 600.96 40.7482 600.61C40.1282 600.25 39.6382 599.75 39.2782 599.11C38.9282 598.46 38.7532 597.71 38.7532 596.86C38.7532 596.01 38.9232 595.265 39.2632 594.625C39.6132 593.975 40.0982 593.475 40.7182 593.125C41.3482 592.775 42.0682 592.6 42.8782 592.6C43.6582 592.6 44.3532 592.77 44.9632 593.11C45.5732 593.45 46.0482 593.93 46.3882 594.55C46.7282 595.16 46.8982 595.865 46.8982 596.665ZM45.1132 596.125C45.1032 595.495 44.8782 594.99 44.4382 594.61C43.9982 594.23 43.4532 594.04 42.8032 594.04C42.2132 594.04 41.7082 594.23 41.2882 594.61C40.8682 594.98 40.6182 595.485 40.5382 596.125H45.1132ZM48.0111 596.86C48.0111 596.01 48.1811 595.265 48.5211 594.625C48.8711 593.975 49.3511 593.475 49.9611 593.125C50.5711 592.775 51.2711 592.6 52.0611 592.6C53.0611 592.6 53.8861 592.84 54.5361 593.32C55.1961 593.79 55.6411 594.465 55.8711 595.345H54.0261C53.8761 594.935 53.6361 594.615 53.3061 594.385C52.9761 594.155 52.5611 594.04 52.0611 594.04C51.3611 594.04 50.8011 594.29 50.3811 594.79C49.9711 595.28 49.7661 595.97 49.7661 596.86C49.7661 597.75 49.9711 598.445 50.3811 598.945C50.8011 599.445 51.3611 599.695 52.0611 599.695C53.0511 599.695 53.7061 599.26 54.0261 598.39H55.8711C55.6311 599.23 55.1811 599.9 54.5211 600.4C53.8611 600.89 53.0411 601.135 52.0611 601.135C51.2711 601.135 50.5711 600.96 49.9611 600.61C49.3511 600.25 48.8711 599.75 48.5211 599.11C48.1811 598.46 48.0111 597.71 48.0111 596.86ZM59.5702 594.13V598.705C59.5702 599.015 59.6402 599.24 59.7802 599.38C59.9302 599.51 60.1802 599.575 60.5302 599.575H61.5802V601H60.2302C59.4602 601 58.8702 600.82 58.4602 600.46C58.0502 600.1 57.8452 599.515 57.8452 598.705V594.13H56.8702V592.735H57.8452V590.68H59.5702V592.735H61.5802V594.13H59.5702ZM70.5177 594.13H68.9877V601H67.2627V594.13H66.2877V592.735H67.2627V592.15C67.2627 591.2 67.5127 590.51 68.0127 590.08C68.5227 589.64 69.3177 589.42 70.3977 589.42V590.845C69.8777 590.845 69.5127 590.945 69.3027 591.145C69.0927 591.335 68.9877 591.67 68.9877 592.15V592.735H70.5177V594.13ZM75.6182 601.135C74.8382 601.135 74.1332 600.96 73.5032 600.61C72.8732 600.25 72.3782 599.75 72.0182 599.11C71.6582 598.46 71.4782 597.71 71.4782 596.86C71.4782 596.02 71.6632 595.275 72.0332 594.625C72.4032 593.975 72.9082 593.475 73.5482 593.125C74.1882 592.775 74.9032 592.6 75.6932 592.6C76.4832 592.6 77.1982 592.775 77.8382 593.125C78.4782 593.475 78.9832 593.975 79.3532 594.625C79.7232 595.275 79.9082 596.02 79.9082 596.86C79.9082 597.7 79.7182 598.445 79.3382 599.095C78.9582 599.745 78.4382 600.25 77.7782 600.61C77.1282 600.96 76.4082 601.135 75.6182 601.135ZM75.6182 599.65C76.0582 599.65 76.4682 599.545 76.8482 599.335C77.2382 599.125 77.5532 598.81 77.7932 598.39C78.0332 597.97 78.1532 597.46 78.1532 596.86C78.1532 596.26 78.0382 595.755 77.8082 595.345C77.5782 594.925 77.2732 594.61 76.8932 594.4C76.5132 594.19 76.1032 594.085 75.6632 594.085C75.2232 594.085 74.8132 594.19 74.4332 594.4C74.0632 594.61 73.7682 594.925 73.5482 595.345C73.3282 595.755 73.2182 596.26 73.2182 596.86C73.2182 597.75 73.4432 598.44 73.8932 598.93C74.3532 599.41 74.9282 599.65 75.6182 599.65ZM89.0836 592.735V601H87.3736V600.025C87.1036 600.365 86.7486 600.635 86.3086 600.835C85.8786 601.025 85.4186 601.12 84.9286 601.12C84.2786 601.12 83.6936 600.985 83.1736 600.715C82.6636 600.445 82.2586 600.045 81.9586 599.515C81.6686 598.985 81.5236 598.345 81.5236 597.595V592.735H83.2186V597.34C83.2186 598.08 83.4036 598.65 83.7736 599.05C84.1436 599.44 84.6486 599.635 85.2886 599.635C85.9286 599.635 86.4336 599.44 86.8036 599.05C87.1836 598.65 87.3736 598.08 87.3736 597.34V592.735H89.0836ZM95.5098 592.6C96.1598 592.6 96.7398 592.735 97.2498 593.005C97.7698 593.275 98.1748 593.675 98.4648 594.205C98.7548 594.735 98.8998 595.375 98.8998 596.125V601H97.2048V596.38C97.2048 595.64 97.0198 595.075 96.6498 594.685C96.2798 594.285 95.7748 594.085 95.1348 594.085C94.4948 594.085 93.9848 594.285 93.6048 594.685C93.2348 595.075 93.0498 595.64 93.0498 596.38V601H91.3398V592.735H93.0498V593.68C93.3298 593.34 93.6848 593.075 94.1148 592.885C94.5548 592.695 95.0198 592.6 95.5098 592.6ZM100.511 596.83C100.511 596 100.681 595.265 101.021 594.625C101.371 593.985 101.841 593.49 102.431 593.14C103.031 592.78 103.696 592.6 104.426 592.6C104.966 592.6 105.496 592.72 106.016 592.96C106.546 593.19 106.966 593.5 107.276 593.89V589.9H109.001V601H107.276V599.755C106.996 600.155 106.606 600.485 106.106 600.745C105.616 601.005 105.051 601.135 104.411 601.135C103.691 601.135 103.031 600.955 102.431 600.595C101.841 600.225 101.371 599.715 101.021 599.065C100.681 598.405 100.511 597.66 100.511 596.83ZM107.276 596.86C107.276 596.29 107.156 595.795 106.916 595.375C106.686 594.955 106.381 594.635 106.001 594.415C105.621 594.195 105.211 594.085 104.771 594.085C104.331 594.085 103.921 594.195 103.541 594.415C103.161 594.625 102.851 594.94 102.611 595.36C102.381 595.77 102.266 596.26 102.266 596.83C102.266 597.4 102.381 597.9 102.611 598.33C102.851 598.76 103.161 599.09 103.541 599.32C103.931 599.54 104.341 599.65 104.771 599.65C105.211 599.65 105.621 599.54 106.001 599.32C106.381 599.1 106.686 598.78 106.916 598.36C107.156 597.93 107.276 597.43 107.276 596.86ZM112.117 591.64C111.807 591.64 111.547 591.535 111.337 591.325C111.127 591.115 111.022 590.855 111.022 590.545C111.022 590.235 111.127 589.975 111.337 589.765C111.547 589.555 111.807 589.45 112.117 589.45C112.417 589.45 112.672 589.555 112.882 589.765C113.092 589.975 113.197 590.235 113.197 590.545C113.197 590.855 113.092 591.115 112.882 591.325C112.672 591.535 112.417 591.64 112.117 591.64ZM112.957 592.735V601H111.247V592.735H112.957ZM119.372 592.6C120.022 592.6 120.602 592.735 121.112 593.005C121.632 593.275 122.037 593.675 122.327 594.205C122.617 594.735 122.762 595.375 122.762 596.125V601H121.067V596.38C121.067 595.64 120.882 595.075 120.512 594.685C120.142 594.285 119.637 594.085 118.997 594.085C118.357 594.085 117.847 594.285 117.467 594.685C117.097 595.075 116.912 595.64 116.912 596.38V601H115.202V592.735H116.912V593.68C117.192 593.34 117.547 593.075 117.977 592.885C118.417 592.695 118.882 592.6 119.372 592.6ZM128.273 592.6C128.913 592.6 129.478 592.73 129.968 592.99C130.468 593.24 130.858 593.555 131.138 593.935V592.735H132.863V601.135C132.863 601.895 132.703 602.57 132.383 603.16C132.063 603.76 131.598 604.23 130.988 604.57C130.388 604.91 129.668 605.08 128.828 605.08C127.708 605.08 126.778 604.815 126.038 604.285C125.298 603.765 124.878 603.055 124.778 602.155H126.473C126.603 602.585 126.878 602.93 127.298 603.19C127.728 603.46 128.238 603.595 128.828 603.595C129.518 603.595 130.073 603.385 130.493 602.965C130.923 602.545 131.138 601.935 131.138 601.135V599.755C130.848 600.145 130.453 600.475 129.953 600.745C129.463 601.005 128.903 601.135 128.273 601.135C127.553 601.135 126.893 600.955 126.293 600.595C125.703 600.225 125.233 599.715 124.883 599.065C124.543 598.405 124.373 597.66 124.373 596.83C124.373 596 124.543 595.265 124.883 594.625C125.233 593.985 125.703 593.49 126.293 593.14C126.893 592.78 127.553 592.6 128.273 592.6ZM131.138 596.86C131.138 596.29 131.018 595.795 130.778 595.375C130.548 594.955 130.243 594.635 129.863 594.415C129.483 594.195 129.073 594.085 128.633 594.085C128.193 594.085 127.783 594.195 127.403 594.415C127.023 594.625 126.713 594.94 126.473 595.36C126.243 595.77 126.128 596.26 126.128 596.83C126.128 597.4 126.243 597.9 126.473 598.33C126.713 598.76 127.023 599.09 127.403 599.32C127.793 599.54 128.203 599.65 128.633 599.65C129.073 599.65 129.483 599.54 129.863 599.32C130.243 599.1 130.548 598.78 130.778 598.36C131.018 597.93 131.138 597.43 131.138 596.86ZM17.0165 609.13V613.705C17.0165 614.015 17.0865 614.24 17.2265 614.38C17.3765 614.51 17.6265 614.575 17.9765 614.575H19.0265V616H17.6765C16.9065 616 16.3165 615.82 15.9065 615.46C15.4965 615.1 15.2915 614.515 15.2915 613.705V609.13H14.3165V607.735H15.2915V605.68H17.0165V607.735H19.0265V609.13H17.0165ZM28.1775 611.665C28.1775 611.975 28.1575 612.255 28.1175 612.505H21.8025C21.8525 613.165 22.0975 613.695 22.5375 614.095C22.9775 614.495 23.5175 614.695 24.1575 614.695C25.0775 614.695 25.7275 614.31 26.1075 613.54H27.9525C27.7025 614.3 27.2475 614.925 26.5875 615.415C25.9375 615.895 25.1275 616.135 24.1575 616.135C23.3675 616.135 22.6575 615.96 22.0275 615.61C21.4075 615.25 20.9175 614.75 20.5575 614.11C20.2075 613.46 20.0325 612.71 20.0325 611.86C20.0325 611.01 20.2025 610.265 20.5425 609.625C20.8925 608.975 21.3775 608.475 21.9975 608.125C22.6275 607.775 23.3475 607.6 24.1575 607.6C24.9375 607.6 25.6325 607.77 26.2425 608.11C26.8525 608.45 27.3275 608.93 27.6675 609.55C28.0075 610.16 28.1775 610.865 28.1775 611.665ZM26.3925 611.125C26.3825 610.495 26.1575 609.99 25.7175 609.61C25.2775 609.23 24.7325 609.04 24.0825 609.04C23.4925 609.04 22.9875 609.23 22.5675 609.61C22.1475 609.98 21.8975 610.485 21.8175 611.125H26.3925ZM29.2904 611.83C29.2904 611 29.4604 610.265 29.8004 609.625C30.1504 608.985 30.6204 608.49 31.2104 608.14C31.8104 607.78 32.4704 607.6 33.1904 607.6C33.8404 607.6 34.4054 607.73 34.8854 607.99C35.3754 608.24 35.7654 608.555 36.0554 608.935V607.735H37.7804V616H36.0554V614.77C35.7654 615.16 35.3704 615.485 34.8704 615.745C34.3704 616.005 33.8004 616.135 33.1604 616.135C32.4504 616.135 31.8004 615.955 31.2104 615.595C30.6204 615.225 30.1504 614.715 29.8004 614.065C29.4604 613.405 29.2904 612.66 29.2904 611.83ZM36.0554 611.86C36.0554 611.29 35.9354 610.795 35.6954 610.375C35.4654 609.955 35.1604 609.635 34.7804 609.415C34.4004 609.195 33.9904 609.085 33.5504 609.085C33.1104 609.085 32.7004 609.195 32.3204 609.415C31.9404 609.625 31.6304 609.94 31.3904 610.36C31.1604 610.77 31.0454 611.26 31.0454 611.83C31.0454 612.4 31.1604 612.9 31.3904 613.33C31.6304 613.76 31.9404 614.09 32.3204 614.32C32.7104 614.54 33.1204 614.65 33.5504 614.65C33.9904 614.65 34.4004 614.54 34.7804 614.32C35.1604 614.1 35.4654 613.78 35.6954 613.36C35.9354 612.93 36.0554 612.43 36.0554 611.86ZM50.0314 607.6C50.6814 607.6 51.2614 607.735 51.7714 608.005C52.2914 608.275 52.6964 608.675 52.9864 609.205C53.2864 609.735 53.4364 610.375 53.4364 611.125V616H51.7414V611.38C51.7414 610.64 51.5564 610.075 51.1864 609.685C50.8164 609.285 50.3114 609.085 49.6714 609.085C49.0314 609.085 48.5214 609.285 48.1414 609.685C47.7714 610.075 47.5864 610.64 47.5864 611.38V616H45.8914V611.38C45.8914 610.64 45.7064 610.075 45.3364 609.685C44.9664 609.285 44.4614 609.085 43.8214 609.085C43.1814 609.085 42.6714 609.285 42.2914 609.685C41.9214 610.075 41.7364 610.64 41.7364 611.38V616H40.0264V607.735H41.7364V608.68C42.0164 608.34 42.3714 608.075 42.8014 607.885C43.2314 607.695 43.6914 607.6 44.1814 607.6C44.8414 607.6 45.4314 607.74 45.9514 608.02C46.4714 608.3 46.8714 608.705 47.1514 609.235C47.4014 608.735 47.7914 608.34 48.3214 608.05C48.8514 607.75 49.4214 607.6 50.0314 607.6Z" fill="#F8951D"/>
<path d="M31.54 563.58V560.4H37.08V575H33.52V563.58H31.54ZM49.6995 563.38H43.4595V566.14C43.7262 565.847 44.0995 565.607 44.5795 565.42C45.0595 565.233 45.5795 565.14 46.1395 565.14C47.1395 565.14 47.9662 565.367 48.6195 565.82C49.2862 566.273 49.7729 566.86 50.0795 567.58C50.3862 568.3 50.5395 569.08 50.5395 569.92C50.5395 571.48 50.0995 572.72 49.2195 573.64C48.3395 574.547 47.0995 575 45.4995 575C44.4329 575 43.5062 574.82 42.7195 574.46C41.9329 574.087 41.3262 573.573 40.8995 572.92C40.4729 572.267 40.2395 571.513 40.1995 570.66H43.5395C43.6195 571.073 43.8129 571.42 44.1195 571.7C44.4262 571.967 44.8462 572.1 45.3795 572.1C46.0062 572.1 46.4729 571.9 46.7795 571.5C47.0862 571.1 47.2395 570.567 47.2395 569.9C47.2395 569.247 47.0795 568.747 46.7595 568.4C46.4395 568.053 45.9729 567.88 45.3595 567.88C44.9062 567.88 44.5329 567.993 44.2395 568.22C43.9462 568.433 43.7529 568.72 43.6595 569.08H40.3595V560.38H49.6995V563.38ZM52.1473 564.08C52.1473 563 52.454 562.167 53.0673 561.58C53.694 560.993 54.5007 560.7 55.4873 560.7C56.474 560.7 57.274 560.993 57.8873 561.58C58.5007 562.167 58.8073 563 58.8073 564.08C58.8073 565.16 58.5007 565.993 57.8873 566.58C57.274 567.167 56.474 567.46 55.4873 567.46C54.5007 567.46 53.694 567.167 53.0673 566.58C52.454 565.993 52.1473 565.16 52.1473 564.08ZM65.7273 560.92L58.0273 575H54.7273L62.4273 560.92H65.7273ZM55.4673 562.7C54.8273 562.7 54.5073 563.16 54.5073 564.08C54.5073 564.987 54.8273 565.44 55.4673 565.44C55.774 565.44 56.014 565.327 56.1873 565.1C56.3607 564.873 56.4473 564.533 56.4473 564.08C56.4473 563.16 56.1207 562.7 55.4673 562.7ZM61.6673 571.84C61.6673 570.76 61.974 569.927 62.5873 569.34C63.2007 568.753 64.0007 568.46 64.9873 568.46C65.974 568.46 66.774 568.753 67.3873 569.34C68.0007 569.927 68.3073 570.76 68.3073 571.84C68.3073 572.92 68.0007 573.753 67.3873 574.34C66.774 574.927 65.974 575.22 64.9873 575.22C64.0007 575.22 63.2007 574.927 62.5873 574.34C61.974 573.753 61.6673 572.92 61.6673 571.84ZM64.9673 570.46C64.6607 570.46 64.4207 570.573 64.2473 570.8C64.0873 571.027 64.0073 571.373 64.0073 571.84C64.0073 572.747 64.3273 573.2 64.9673 573.2C65.274 573.2 65.514 573.087 65.6873 572.86C65.8607 572.633 65.9473 572.293 65.9473 571.84C65.9473 571.387 65.8607 571.047 65.6873 570.82C65.514 570.58 65.274 570.46 64.9673 570.46Z" fill="white"/>
<rect x="0.5" y="585.5" width="144" height="37" rx="7.5" stroke="white"/>
<line x1="165" y1="145.5" x2="219" y2="145.5" stroke="white"/>
<line x1="7" y1="414.5" x2="102" y2="414.5" stroke="white"/>
<path d="M238.835 149.62H242.36V151H237.125V140.575H238.835V149.62ZM244.66 141.64C244.35 141.64 244.09 141.535 243.88 141.325C243.67 141.115 243.565 140.855 243.565 140.545C243.565 140.235 243.67 139.975 243.88 139.765C244.09 139.555 244.35 139.45 244.66 139.45C244.96 139.45 245.215 139.555 245.425 139.765C245.635 139.975 245.74 140.235 245.74 140.545C245.74 140.855 245.635 141.115 245.425 141.325C245.215 141.535 244.96 141.64 244.66 141.64ZM245.5 142.735V151H243.79V142.735H245.5ZM247.175 146.83C247.175 146 247.345 145.265 247.685 144.625C248.035 143.985 248.505 143.49 249.095 143.14C249.695 142.78 250.36 142.6 251.09 142.6C251.73 142.6 252.295 142.73 252.785 142.99C253.285 143.25 253.67 143.565 253.94 143.935V142.735H255.665V154.93H253.94V149.8C253.67 150.17 253.28 150.485 252.77 150.745C252.26 151.005 251.68 151.135 251.03 151.135C250.32 151.135 249.67 150.955 249.08 150.595C248.5 150.225 248.035 149.715 247.685 149.065C247.345 148.405 247.175 147.66 247.175 146.83ZM253.94 146.86C253.94 146.29 253.82 145.795 253.58 145.375C253.35 144.955 253.045 144.635 252.665 144.415C252.285 144.195 251.875 144.085 251.435 144.085C250.995 144.085 250.585 144.195 250.205 144.415C249.825 144.625 249.515 144.94 249.275 145.36C249.045 145.77 248.93 146.26 248.93 146.83C248.93 147.4 249.045 147.9 249.275 148.33C249.515 148.76 249.825 149.09 250.205 149.32C250.595 149.54 251.005 149.65 251.435 149.65C251.875 149.65 252.285 149.54 252.665 149.32C253.045 149.1 253.35 148.78 253.58 148.36C253.82 147.93 253.94 147.43 253.94 146.86ZM265.396 142.735V151H263.686V150.025C263.416 150.365 263.061 150.635 262.621 150.835C262.191 151.025 261.731 151.12 261.241 151.12C260.591 151.12 260.006 150.985 259.486 150.715C258.976 150.445 258.571 150.045 258.271 149.515C257.981 148.985 257.836 148.345 257.836 147.595V142.735H259.531V147.34C259.531 148.08 259.716 148.65 260.086 149.05C260.456 149.44 260.961 149.635 261.601 149.635C262.241 149.635 262.746 149.44 263.116 149.05C263.496 148.65 263.686 148.08 263.686 147.34V142.735H265.396ZM268.522 141.64C268.212 141.64 267.952 141.535 267.742 141.325C267.532 141.115 267.427 140.855 267.427 140.545C267.427 140.235 267.532 139.975 267.742 139.765C267.952 139.555 268.212 139.45 268.522 139.45C268.822 139.45 269.077 139.555 269.287 139.765C269.497 139.975 269.602 140.235 269.602 140.545C269.602 140.855 269.497 141.115 269.287 141.325C269.077 141.535 268.822 141.64 268.522 141.64ZM269.362 142.735V151H267.652V142.735H269.362ZM271.037 146.83C271.037 146 271.207 145.265 271.547 144.625C271.897 143.985 272.367 143.49 272.957 143.14C273.557 142.78 274.222 142.6 274.952 142.6C275.492 142.6 276.022 142.72 276.542 142.96C277.072 143.19 277.492 143.5 277.802 143.89V139.9H279.527V151H277.802V149.755C277.522 150.155 277.132 150.485 276.632 150.745C276.142 151.005 275.577 151.135 274.937 151.135C274.217 151.135 273.557 150.955 272.957 150.595C272.367 150.225 271.897 149.715 271.547 149.065C271.207 148.405 271.037 147.66 271.037 146.83ZM277.802 146.86C277.802 146.29 277.682 145.795 277.442 145.375C277.212 144.955 276.907 144.635 276.527 144.415C276.147 144.195 275.737 144.085 275.297 144.085C274.857 144.085 274.447 144.195 274.067 144.415C273.687 144.625 273.377 144.94 273.137 145.36C272.907 145.77 272.792 146.26 272.792 146.83C272.792 147.4 272.907 147.9 273.137 148.33C273.377 148.76 273.687 149.09 274.067 149.32C274.457 149.54 274.867 149.65 275.297 149.65C275.737 149.65 276.147 149.54 276.527 149.32C276.907 149.1 277.212 148.78 277.442 148.36C277.682 147.93 277.802 147.43 277.802 146.86ZM282.643 141.64C282.333 141.64 282.073 141.535 281.863 141.325C281.653 141.115 281.548 140.855 281.548 140.545C281.548 140.235 281.653 139.975 281.863 139.765C282.073 139.555 282.333 139.45 282.643 139.45C282.943 139.45 283.198 139.555 283.408 139.765C283.618 139.975 283.723 140.235 283.723 140.545C283.723 140.855 283.618 141.115 283.408 141.325C283.198 141.535 282.943 141.64 282.643 141.64ZM283.483 142.735V151H281.773V142.735H283.483ZM287.724 144.13V148.705C287.724 149.015 287.794 149.24 287.934 149.38C288.084 149.51 288.334 149.575 288.684 149.575H289.734V151H288.384C287.614 151 287.024 150.82 286.614 150.46C286.204 150.1 285.999 149.515 285.999 148.705V144.13H285.024V142.735H285.999V140.68H287.724V142.735H289.734V144.13H287.724ZM298.75 142.735L293.68 154.885H291.91L293.59 150.865L290.335 142.735H292.24L294.565 149.035L296.98 142.735H298.75Z" fill="#F8951D"/>
<path d="M248.54 109.58V106.4H254.08V121H250.52V109.58H248.54ZM256.3 118.26C256.753 117.9 256.96 117.733 256.92 117.76C258.226 116.68 259.253 115.793 260 115.1C260.76 114.407 261.4 113.68 261.92 112.92C262.44 112.16 262.7 111.42 262.7 110.7C262.7 110.153 262.573 109.727 262.32 109.42C262.066 109.113 261.686 108.96 261.18 108.96C260.673 108.96 260.273 109.153 259.98 109.54C259.7 109.913 259.56 110.447 259.56 111.14H256.26C256.286 110.007 256.526 109.06 256.98 108.3C257.446 107.54 258.053 106.98 258.8 106.62C259.56 106.26 260.4 106.08 261.32 106.08C262.906 106.08 264.1 106.487 264.9 107.3C265.713 108.113 266.12 109.173 266.12 110.48C266.12 111.907 265.633 113.233 264.66 114.46C263.686 115.673 262.446 116.86 260.94 118.02H266.34V120.8H256.3V118.26ZM267.565 110.08C267.565 109 267.872 108.167 268.485 107.58C269.112 106.993 269.919 106.7 270.905 106.7C271.892 106.7 272.692 106.993 273.305 107.58C273.919 108.167 274.225 109 274.225 110.08C274.225 111.16 273.919 111.993 273.305 112.58C272.692 113.167 271.892 113.46 270.905 113.46C269.919 113.46 269.112 113.167 268.485 112.58C267.872 111.993 267.565 111.16 267.565 110.08ZM281.145 106.92L273.445 121H270.145L277.845 106.92H281.145ZM270.885 108.7C270.245 108.7 269.925 109.16 269.925 110.08C269.925 110.987 270.245 111.44 270.885 111.44C271.192 111.44 271.432 111.327 271.605 111.1C271.779 110.873 271.865 110.533 271.865 110.08C271.865 109.16 271.539 108.7 270.885 108.7ZM277.085 117.84C277.085 116.76 277.392 115.927 278.005 115.34C278.619 114.753 279.419 114.46 280.405 114.46C281.392 114.46 282.192 114.753 282.805 115.34C283.419 115.927 283.725 116.76 283.725 117.84C283.725 118.92 283.419 119.753 282.805 120.34C282.192 120.927 281.392 121.22 280.405 121.22C279.419 121.22 278.619 120.927 278.005 120.34C277.392 119.753 277.085 118.92 277.085 117.84ZM280.385 116.46C280.079 116.46 279.839 116.573 279.665 116.8C279.505 117.027 279.425 117.373 279.425 117.84C279.425 118.747 279.745 119.2 280.385 119.2C280.692 119.2 280.932 119.087 281.105 118.86C281.279 118.633 281.365 118.293 281.365 117.84C281.365 117.387 281.279 117.047 281.105 116.82C280.932 116.58 280.692 116.46 280.385 116.46Z" fill="white"/>
<rect x="220.5" y="131.5" width="91" height="30" rx="7.5" stroke="white"/>
</svg>
