<svg width="30" height="30" viewBox="0 0 30 30" fill="none" xmlns="http://www.w3.org/2000/svg">
<g id="Twitter">
<circle id="Oval 1" cx="15" cy="15" r="15" fill="#F8951D"/>
<path id="Fill 1" fill-rule="evenodd" clip-rule="evenodd" d="M21.8705 9.26277C21.4471 9.53396 20.475 9.92804 19.9956 9.92804V9.92885C19.4482 9.357 18.6776 9 17.8229 9C16.1629 9 14.8168 10.3461 14.8168 12.0054C14.8168 12.236 14.8435 12.4609 14.8929 12.6765H14.8924C12.6406 12.6174 10.1779 11.4888 8.69533 9.55711C7.78381 11.1349 8.57261 12.8896 9.60702 13.529C9.25293 13.5557 8.60111 13.4882 8.2943 13.1888C8.27373 14.236 8.77726 15.6235 10.6133 16.1269C10.2597 16.3171 9.63373 16.2626 9.36157 16.2221C9.4571 17.1061 10.695 18.2618 12.0487 18.2618C11.5662 18.8198 9.75095 19.8321 7.71387 19.51C9.09734 20.3518 10.7098 20.8393 12.4164 20.8393C17.2662 20.8393 21.0326 16.9087 20.8299 12.0598C20.8291 12.0545 20.8291 12.0492 20.8286 12.0433C20.8291 12.0309 20.8299 12.0184 20.8299 12.0054C20.8299 11.9904 20.8286 11.9761 20.8282 11.9616C21.2697 11.6596 21.8621 11.1255 22.2853 10.4225C22.0398 10.5577 21.3035 10.8284 20.6183 10.8956C21.0581 10.6582 21.7096 9.88092 21.8705 9.26277Z" fill="url(#paint0_linear_990_41469)"/>
</g>
<defs>
<linearGradient id="paint0_linear_990_41469" x1="14.9996" y1="9" x2="14.9996" y2="20.8393" gradientUnits="userSpaceOnUse">
<stop offset="0.265625" stop-color="#100901"/>
<stop offset="1" stop-color="#98750B"/>
</linearGradient>
</defs>
</svg>
