<svg width="68" height="66" viewBox="0 0 68 66" fill="none" xmlns="http://www.w3.org/2000/svg">
<path d="M11.7951 54.293L17.1161 40.2948C16.5812 39.1509 16.1747 37.9634 15.8999 36.7506C15.6143 35.4889 15.4696 34.1976 15.4696 32.8968C15.4696 29.3965 16.5216 26.0619 18.3894 23.2273C20.2423 20.4153 22.8976 18.0959 26.1245 16.5949L31.4455 2.59673C23.4167 3.3033 16.2527 6.86828 11.0749 12.2194C5.82367 17.6464 2.61369 24.912 2.61369 32.8968C2.61369 37.0155 3.47462 41.0181 5.09275 44.7012C6.65294 48.2527 8.9181 51.5104 11.7951 54.293ZM17.8029 40.393L12.0721 55.4695L11.6954 55.1171C8.57489 52.1967 6.12927 48.739 4.46631 44.9539C2.81149 41.1872 1.93115 37.099 1.93115 32.8968C1.93115 24.7439 5.21091 17.3228 10.5764 11.7778C15.9819 6.19127 23.5046 2.50973 31.9221 1.90322L32.4478 1.86528L26.7165 16.9429L26.5432 17.1266C23.3767 18.572 20.7735 20.8302 18.9651 23.5744C17.1658 26.3054 16.1522 29.5201 16.1522 32.8968C16.1522 34.1537 16.2915 35.3988 16.5663 36.6129C16.8415 37.8284 17.2516 39.0128 17.7921 40.1465L17.8029 40.393ZM55.9183 10.5107L50.8249 23.9098L50.998 24.2075L51.1144 24.4143L64.0071 21.8396C63.1223 19.6694 61.9803 17.6098 60.6116 15.6997C59.258 13.8106 57.6838 12.0687 55.9183 10.5107ZM50.1308 23.8307L55.6235 9.38129L55.9982 9.70171C57.9592 11.3782 59.697 13.2705 61.1741 15.3321C62.6473 17.388 63.8637 19.6145 64.7865 21.9656L64.9265 22.3216C60.2007 23.267 55.4745 24.2103 50.7483 25.153L50.6297 24.9316C50.5589 24.7992 50.4819 24.6609 50.4008 24.5188C50.3333 24.4008 50.2515 24.263 50.1561 24.1063L50.0761 23.9748L50.1308 23.8307ZM40.9468 49.8966L35.8538 63.2952C42.1147 63.0209 47.9951 60.9919 52.882 57.6467C57.8117 54.2719 61.73 49.5574 64.0082 43.9543L51.1146 41.3796C50.0331 43.3315 48.5936 45.0661 46.8846 46.5055C45.155 47.962 43.1451 49.1194 40.9468 49.8966ZM35.0411 63.5279L40.4156 49.3888L40.5663 49.3369C42.7381 48.5892 44.7256 47.4542 46.4341 46.0154C48.147 44.5729 49.5776 42.8271 50.6301 40.8623L50.7489 40.6407C55.4742 41.5868 60.2005 42.5284 64.9263 43.4719L64.7872 43.827C62.4829 49.7111 58.4178 54.6578 53.2767 58.1775C48.1532 61.6847 41.9586 63.7755 35.3702 63.9645L34.8697 63.9788L35.0411 63.5279Z" fill="url(#paint0_linear_484_1880)"/>
<path d="M41.5693 13.1053C42.8604 13.5553 43.5293 14.9209 43.0626 16.1487C42.5861 17.4022 41.1569 18.0368 39.8657 17.5868C38.5476 17.1275 37.869 15.7875 38.3454 14.534L34.1224 13.0623L34.0733 13.1909C32.7565 16.6553 34.6386 20.5197 38.2699 21.7852C41.9013 23.0509 45.9371 21.2488 47.2539 17.7846C48.5707 14.3201 46.6888 10.4557 43.0574 9.19018L40.7173 8.37469L41.7093 5.7646L50.1825 8.71764L51.7456 4.60518L39.0225 0.171082L34.9791 10.8084L41.5693 13.1053ZM37.399 15.0309L34.6408 14.0698C33.8969 16.9654 35.5607 20.0142 38.5474 21.0552C41.7486 22.1708 45.3252 20.5873 46.4915 17.5189C47.657 14.4524 45.9793 11.0352 42.7799 9.92036L39.6773 8.83918L41.2242 4.76865L49.6976 7.72174L50.7057 5.06949L39.5074 1.16698L36.0191 10.3441L41.8468 12.3753C43.5512 12.9692 44.4466 14.7794 43.825 16.4144C43.1999 18.0594 41.3089 18.9167 39.5882 18.3169C38.1239 17.8066 37.2463 16.4472 37.399 15.0309ZM24.7549 41.0416L36.4837 45.1292L37.4852 42.494L31.0753 40.2603L38.212 35.5045C39.1554 34.9126 40.0754 33.757 40.456 32.7561C40.9977 31.3306 40.9328 29.6907 40.342 28.2888C39.6965 26.7567 38.4779 25.6013 36.8519 25.0346C33.7509 23.954 30.4258 25.1097 28.966 27.8373L31.8151 28.8302C32.6439 27.6362 34.2204 27.0726 35.6987 27.5879C37.339 28.1594 38.3368 30.0515 37.7356 31.6331C37.3815 32.5649 36.641 33.2011 35.7705 33.6954L24.7549 41.0416ZM22.0584 49.9563C21.6905 50.9244 21.6371 51.9534 21.8987 52.9523L22.0654 53.5886L21.4382 53.8525C19.901 54.4995 18.7327 55.7408 18.1603 57.2464C16.9828 60.3445 18.6314 63.73 21.8669 64.8576C25.0973 65.9833 28.6644 64.4181 29.8429 61.3178C30.4161 59.8098 30.3257 58.131 29.5834 56.6912L29.2741 56.0909L29.8482 55.7091C30.7346 55.1197 31.3813 54.3045 31.7504 53.334C32.7246 50.7709 31.3447 47.9087 28.6646 46.9747C25.9826 46.0401 23.0307 47.3985 22.0584 49.9563ZM20.8854 58.1962C21.4878 56.6113 23.2991 55.7226 24.9862 56.2323L25.0032 56.2374L25.2244 56.3147L25.24 56.3209C26.8822 56.9701 27.7269 58.7652 27.1178 60.368C26.4938 62.0095 24.5661 62.8433 22.8588 62.2483C21.1477 61.6521 20.2626 59.8346 20.8854 58.1962ZM24.8007 50.9414C25.227 49.8197 26.4704 49.2233 27.6532 49.6354C28.832 50.0463 29.4164 51.2753 28.9884 52.4008C28.5592 53.53 27.2939 54.0809 26.1191 53.6713C24.9406 53.2606 24.3729 52.0664 24.8007 50.9414ZM23.0081 41.2596L36.9686 46.1251L38.5253 42.0297L32.8226 40.0424L38.6567 36.1543C38.6567 36.1543 40.4547 35.0307 41.2184 33.0218C42.4128 29.8796 41.0568 25.6733 37.1294 24.3046C32.987 22.861 29.1321 24.9885 27.8789 28.2853L32.2096 29.7946C32.6993 28.5067 34.13 27.8679 35.4213 28.3179C36.8468 28.8147 37.3452 30.3885 36.9732 31.3673C36.6892 32.1143 36.068 32.6269 35.3317 33.0412L23.0081 41.2596ZM21.296 49.6906C20.8505 50.8625 20.8258 52.0499 21.1116 53.1412C19.4435 53.8433 18.0735 55.2034 17.3979 56.9807C16.0664 60.4835 17.9312 64.3129 21.5894 65.5877C25.2478 66.8627 29.2738 65.0865 30.6053 61.5835C31.2809 59.8063 31.1175 57.9118 30.3111 56.3473C31.2895 55.6966 32.0673 54.7718 32.5128 53.5998C33.6436 50.6249 32.0355 47.3227 28.9421 46.2446C25.8486 45.1665 22.4268 46.7157 21.296 49.6906ZM21.6478 58.4619C22.1081 57.2512 23.4852 56.5936 24.7421 56.9732L24.9303 57.0389C26.1749 57.531 26.8153 58.8917 26.3553 60.1023C25.8852 61.3387 24.4276 61.9683 23.1363 61.5183C21.8452 61.0682 21.178 59.698 21.6478 58.4619ZM25.5631 51.2071C25.8406 50.4772 26.6225 50.1031 27.3757 50.3656C28.1288 50.6281 28.5036 51.4053 28.226 52.135C27.9487 52.8648 27.1498 53.2038 26.3966 52.9412C25.6435 52.6788 25.2858 51.9366 25.5631 51.2071Z" fill="url(#paint1_linear_484_1880)"/>
<path d="M34.3969 5.34058e-05L35.2284 0.00969696L28.2067 18.4818L28.0694 18.5374C25.0936 19.7378 22.5662 21.7612 20.7997 24.3087C19.0868 26.7791 18.0889 29.7448 18.0889 32.9338C18.0889 34.2032 18.246 35.4339 18.5418 36.6085C18.8474 37.8218 19.3023 38.9818 19.8855 40.0671L19.9541 40.1937C17.6033 46.3491 15.271 52.5117 12.9303 58.6706L12.559 58.3785C8.65219 55.3006 5.46524 51.4138 3.2809 46.9873C1.17707 42.7243 0 37.9596 0 32.9338C0 23.8394 3.85037 15.605 10.0741 9.64556C16.2976 3.68613 24.8976 -0.000717163 34.3969 5.34058e-05ZM27.6679 17.9937L34.2591 0.653328C25.0038 0.688576 16.6275 4.29462 10.5569 10.1078C4.45603 15.9495 0.682425 24.0201 0.682425 32.9338C0.682425 37.8622 1.83544 42.5324 3.8968 46.7088C5.96932 50.9081 8.96055 54.6121 12.6208 57.5799L19.2129 40.2378C18.6386 39.1451 18.1882 37.9803 17.8812 36.7617C17.5709 35.531 17.4065 34.2487 17.4065 32.9338C17.4065 29.6133 18.4467 26.5235 20.2318 23.9487C22.0444 21.3348 24.6267 19.2512 27.6679 17.9937ZM55.0959 6.63095C57.9913 8.72438 60.5322 11.2483 62.614 14.1039C64.6652 16.9181 66.2697 20.0522 67.3277 23.4106L67.4348 23.7498L49.6137 27.3089L49.5065 27.057C49.3061 26.5843 49.0825 26.1246 48.8392 25.6813C48.589 25.2254 48.3181 24.7866 48.0312 24.3679L47.9376 24.2309C50.1884 18.2719 52.4648 12.3202 54.7285 6.36508L55.0959 6.63095ZM62.057 14.4764C60.1071 11.8012 57.7413 9.42075 55.0515 7.42067L48.6927 24.1491C48.9623 24.5505 49.213 24.9609 49.442 25.3777C49.6542 25.7648 49.8507 26.1595 50.0294 26.5602L66.5657 23.2579C65.5286 20.0923 63.9961 17.1369 62.057 14.4764ZM39.0893 47.8911C41.4519 47.2121 43.5901 46.0332 45.368 44.4835C47.1558 42.9257 48.5812 40.9904 49.5065 38.8107L49.6137 38.5585C55.552 39.7525 61.4942 40.9337 67.4348 42.1175L67.3277 42.4571C65.1681 49.3129 60.7371 55.2268 54.8735 59.3952C49.1521 63.462 42.0666 65.8684 34.3952 65.8684C34.121 65.8684 33.8198 65.8639 33.4933 65.8561C33.1846 65.8487 32.8844 65.8373 32.5959 65.8229L32.1363 65.7994L38.9256 47.9382L39.0893 47.8911ZM45.8267 44.9658C44.0161 46.5443 41.8457 47.7537 39.4483 48.468L33.0913 65.1917L33.5095 65.205L34.3952 65.215C41.9168 65.215 48.8621 62.8572 54.4681 58.8722C60.1178 54.8558 64.4111 49.1849 66.5657 42.6094L50.0291 39.3074C49.0643 41.4749 47.6205 43.4024 45.8267 44.9658Z" fill="url(#paint2_linear_484_1880)"/>
<defs>
<linearGradient id="paint0_linear_484_1880" x1="-26.6702" y1="-14.6193" x2="61.9592" y2="-14.6552" gradientUnits="userSpaceOnUse">
<stop stop-color="#C87829"/>
<stop offset="1" stop-color="#F7EC00"/>
</linearGradient>
<linearGradient id="paint1_linear_484_1880" x1="11.618" y1="233.03" x2="58.0023" y2="233.024" gradientUnits="userSpaceOnUse">
<stop stop-color="#C87829"/>
<stop offset="1" stop-color="#F7EC00"/>
</linearGradient>
<linearGradient id="paint2_linear_484_1880" x1="-10.3739" y1="233.004" x2="79.5722" y2="232.986" gradientUnits="userSpaceOnUse">
<stop stop-color="#C87829"/>
<stop offset="1" stop-color="#F7EC00"/>
</linearGradient>
</defs>
</svg>
